<svg width="60" height="60" viewBox="0 0 60 60" xmlns="http://www.w3.org/2000/svg"><path d="M30 60C13.431 60 0 46.569 0 30 0 13.431 13.431 0 30 0c16.569 0 30 13.431 30 30 0 16.569-13.431 30-30 30zm0-54.263C16.6 5.737 5.738 16.6 5.738 30 5.738 43.4 16.6 54.263 30 54.263S54.263 43.4 54.263 30A24.262 24.262 0 0 0 30 5.738zm12.54 36.638a2.873 2.873 0 0 0-.045-4.057L32.31 28.403V15.18a2.872 2.872 0 0 0-5.738 0v15.645L38.49 42.428a2.78 2.78 0 0 0 1.957.81 2.902 2.902 0 0 0 2.1-.863h-.007z" fill-rule="evenodd"/></svg>