<svg width="74" height="76" viewBox="0 0 74 76" xmlns="http://www.w3.org/2000/svg"><path d="M67.077 41.892l5.582-5.582a1.58 1.58 0 0 0 0-2.233L39.165.582a1.58 1.58 0 0 0-2.233 0l-5.583 5.583-1.116-1.117a4.74 4.74 0 0 0-6.699 0l-8.932 8.932a4.743 4.743 0 0 0 0 6.7l17.864 17.863a1.58 1.58 0 0 1 0 2.233l-5.618 5.618c-2.535-1.628-6.536-2.396-8.798-.134L1.303 63.007c-2.104 2.104-.284 6.612 1.373 8.269l2.233 2.233c1.862 1.862 5.65 2.572 7.558.663l16.748-16.747c2.262-2.262 1.494-6.264-.134-8.798l5.618-5.618a4.74 4.74 0 0 0 0-6.7L16.835 18.447a1.582 1.582 0 0 1 0-2.233l8.932-8.932a1.58 1.58 0 0 1 2.233 0l1.116 1.117-5.582 5.582a1.582 1.582 0 0 0 0 2.233L57.03 49.708a1.582 1.582 0 0 0 2.233 0l5.582-5.583 1.116 1.117a1.58 1.58 0 0 0 2.233-2.233l-1.116-1.117z" fill-rule="evenodd"/></svg>