<svg width="60" height="60" viewBox="0 0 60 60" xmlns="http://www.w3.org/2000/svg" xmlns:xlink="http://www.w3.org/1999/xlink"><defs><path id="a" d="M27.75.25H.25v17.5h27.5z"/><path id="c" d="M27.75.25H.25v17.501h27.5V.25z"/></defs><g fill-rule="evenodd"><g transform="translate(1 .251)"><mask id="b"><use xlink:href="#a"/></mask><path d="M21.5 5.25c-2 0-3.762.963-4.907 2.428L2.06.383A1.25 1.25 0 0 0 .94 2.618l14.54 7.295a6.165 6.165 0 0 0-.23 1.587 6.257 6.257 0 0 0 6.25 6.25 6.257 6.257 0 0 0 6.25-6.25 6.257 6.257 0 0 0-6.25-6.25" mask="url(#b)"/></g><g transform="translate(31 .251)"><mask id="d"><use xlink:href="#c"/></mask><path d="M27.617.941a1.252 1.252 0 0 0-1.678-.56L11.407 7.676C10.262 6.211 8.499 5.251 6.5 5.251a6.257 6.257 0 0 0-6.25 6.25 6.257 6.257 0 0 0 6.25 6.25 6.255 6.255 0 0 0 6.25-6.25c0-.553-.095-1.077-.23-1.587l14.54-7.295A1.25 1.25 0 0 0 27.616.94" mask="url(#d)"/></g><path d="M25 49.251h10v-20H25zm-10 0h2.5v-20H15zm45-22.5v-6.25c0-.69-.56-1.25-1.25-1.25H1.25c-.69 0-1.25.56-1.25 1.25v6.25h60zm-55 22.5h7.5v-20H5zm15 0h2.5v-20H20zm17.5 0H40v-20h-2.5zM0 51.751v6.25c0 .69.56 1.25 1.25 1.25h57.5c.69 0 1.25-.56 1.25-1.25v-6.25H0zm47.5-2.5H55v-20h-7.5zm-5 0H45v-20h-2.5z"/></g></svg>