<svg width="53" height="60" viewBox="0 0 53 60" xmlns="http://www.w3.org/2000/svg"><path d="M18.253 47.148l6.33-16.067h-7.51l9.856-17.391h9.155l-7.513 12.422h9.401L18.253 47.148zM51.508 1.41a1.25 1.25 0 0 0-1.287.082c-4.388 3.066-8.01 4.435-11.742 4.435-4.442 0-8.599-2.003-11.403-5.488-.473-.584-1.509-.584-1.978 0-2.803 3.488-6.96 5.488-11.401 5.488-3.735 0-7.357-1.37-11.744-4.435A1.244 1.244 0 0 0 0 2.51v36.8c0 .111.015.22.044.328.154.564 4.04 13.843 25.71 19.918.11.03.22.047.333.047.111 0 .226-.018.335-.047 21.67-6.075 25.553-19.354 25.71-19.918a1.34 1.34 0 0 0 .042-.328V2.51a1.24 1.24 0 0 0-.666-1.101z" fill-rule="evenodd"/></svg>