<svg width="60" height="60" viewBox="0 0 60 60" xmlns="http://www.w3.org/2000/svg"><path d="M0 4.003A4.007 4.007 0 0 1 4.003 0h16.994A4.007 4.007 0 0 1 25 4.003v16.994A4.007 4.007 0 0 1 20.997 25H4.003A4.007 4.007 0 0 1 0 20.997V4.003zm0 35A4.007 4.007 0 0 1 4.003 35h16.994A4.007 4.007 0 0 1 25 39.003v16.994A4.007 4.007 0 0 1 20.997 60H4.003A4.007 4.007 0 0 1 0 55.997V39.003zm35-35A4.007 4.007 0 0 1 39.003 0h16.994A4.007 4.007 0 0 1 60 4.003v16.994A4.007 4.007 0 0 1 55.997 25H39.003A4.007 4.007 0 0 1 35 20.997V4.003zm0 35A4.007 4.007 0 0 1 39.003 35h16.994A4.007 4.007 0 0 1 60 39.003v16.994A4.007 4.007 0 0 1 55.997 60H39.003A4.007 4.007 0 0 1 35 55.997V39.003z" fill-rule="evenodd"/></svg>