<svg width="60" height="60" viewBox="0 0 60 60" xmlns="http://www.w3.org/2000/svg"><path d="M30 60C13.431 60 0 46.569 0 30 0 13.431 13.431 0 30 0c16.569 0 30 13.431 30 30 0 16.569-13.431 30-30 30zm7.66-36.46l3.817-4.126a15.606 15.606 0 0 0-3.634-2.628c-1.342-.704-2.92-1.17-4.732-1.4V9h-5.124v6.435c-2.65.393-4.74 1.294-6.275 2.702-1.533 1.408-2.3 3.176-2.3 5.305 0 1.507.374 2.767 1.124 3.783a9.755 9.755 0 0 0 2.823 2.554 19.147 19.147 0 0 0 3.687 1.72c1.324.458 2.553.9 3.686 1.326 1.133.425 2.074.867 2.824 1.326.749.458 1.124 1.031 1.124 1.72 0 .687-.331 1.227-.994 1.62-.662.393-1.62.59-2.876.59-1.673 0-3.25-.27-4.732-.81-1.481-.541-3.058-1.286-4.732-2.236L18 39.947c1.325 1.081 2.893 1.957 4.706 2.628 1.813.672 3.573 1.09 5.28 1.253V51h5.125v-7.32c2.928-.458 5.142-1.448 6.64-2.971 1.5-1.523 2.249-3.316 2.249-5.38 0-1.473-.375-2.717-1.124-3.733a10.072 10.072 0 0 0-2.824-2.578 18.521 18.521 0 0 0-3.66-1.744c-1.307-.459-2.527-.885-3.66-1.278-1.133-.392-2.074-.785-2.823-1.178-.75-.393-1.125-.885-1.125-1.474 0-1.507 1.203-2.26 3.608-2.26 1.43 0 2.693.205 3.791.614 1.098.41 2.257 1.024 3.477 1.842z" fill-rule="evenodd"/></svg>