<svg xmlns="http://www.w3.org/2000/svg" viewBox="0 0 50 40"><path d="M41.9 4.2c1.5 0 2.7 1.2 2.7 2.7v26.3c0 1.5-1.2 2.7-2.7 2.7h-35c-1.5 0-2.7-1.2-2.7-2.7V6.9c0-1.5 1.2-2.7 2.7-2.7h35m0-4.2h-35C3.1 0 0 3.1 0 6.9v26.3c0 3.8 3.1 6.9 6.9 6.9h35c3.8 0 6.9-3.1 6.9-6.9V6.9c0-3.8-3.1-6.9-6.9-6.9z"/><path d="M9.5 15.1c3.6 0 6.6-3 6.6-6.6h.9c0 3.6 3 6.6 6.6 6.6v.9C20 16 17 19 17 22.6h-.9c0-3.6-3-6.6-6.6-6.6v-.9zm11.9 11.3c2.1 0 3.8-1.7 3.8-3.8h.5c0 2.1 1.7 3.8 3.8 3.8v.5c-2.1 0-3.8 1.7-3.8 3.8h-.5c0-2.1-1.7-3.8-3.8-3.8v-.5z"/></svg>