<svg xmlns="http://www.w3.org/2000/svg" viewBox="0 0 50 40"><path d="M4.3 33.3V7c0-1.5 1.2-2.6 2.6-2.6h2.8V.1H6.9C3.1.1.1 3.2.1 7v26.3c0 3.8 3.1 6.9 6.9 6.9h2.8V36H6.9c-1.4-.1-2.6-1.3-2.6-2.7zM41.9.1h-2.8v4.2h2.8c1.5 0 2.6 1.2 2.6 2.6v26.3c0 1.5-1.2 2.6-2.6 2.6h-2.8V40h2.8c3.8 0 6.9-3.1 6.9-6.9V7c0-3.8-3.1-6.9-6.9-6.9zM17 8l-4 9.2h2.2l.9-2H20l.9 2H23L19 8h-2zm-.1 5.4l1.2-2.7 1.1 2.7h-2.3zm17.8-.9c.2-.1.3-.1.3-.2.1 0 .2-.1.3-.2.5-.4.7-.9.7-1.6 0-.6-.2-1.1-.6-1.6-.2-.3-.6-.5-1-.6-.4-.2-1-.3-1.6-.3h-3.6v9.2h4c1.3 0 2.2-.3 2.7-.9.4-.5.7-1.1.7-1.7 0-.6-.2-1.1-.5-1.5-.4-.3-.8-.5-1.4-.6zm-3.4-2.7h1c.6 0 1 .1 1.3.2.3.1.4.4.4.8s-.1.7-.4.8c-.3.1-.7.2-1.3.2h-1v-2zm2.7 5.5c-.3.1-.7.2-1.3.2h-1.4v-2.1h1.2c.7 0 1.2.1 1.5.2.3.1.5.4.5.8s-.2.7-.5.9zM19 25.5c1 0 1.8.4 2.4 1.2l1.3-1.5c-1-1.2-2.3-1.7-3.8-1.7-1.4 0-2.5.5-3.4 1.4-.9.9-1.4 2.1-1.4 3.4 0 1.4.5 2.5 1.4 3.4.9.9 2.1 1.3 3.5 1.3s2.7-.6 3.7-1.8L21.3 30c-.6.8-1.5 1.2-2.5 1.2-.7 0-1.4-.3-1.9-.8s-.8-1.2-.8-2.1c0-.9.3-1.5.8-2 .7-.5 1.3-.8 2.1-.8zm12-1.7h-3.3V33h3.2c1.8 0 3.1-.4 3.9-1.3.9-.8 1.3-2 1.3-3.4s-.4-2.6-1.3-3.4c-.9-.7-2.1-1.1-3.8-1.1zm2.3 6.7c-.5.5-1.2.7-2.2.7h-1.3v-5.6H31c1 0 1.8.2 2.3.7.5.5.8 1.2.8 2.1 0 .9-.3 1.6-.8 2.1z"/></svg>