<svg xmlns="http://www.w3.org/2000/svg" viewBox="0 0 50 40"><path d="M10.2 22.9L8.9 13l3.2 2.4c5-6.2 14.1-7.4 20.5-2.5l.6.5c-6.2-1.6-12.5.9-16 5.9l2.9 2.2-9.9 1.4zm28.4-5.4l1.3 9.8-3.2-2.4c-5 6.2-14.1 7.4-20.5 2.5l-.6-.4c6.2 1.6 12.5-.9 16-5.9l-2.9-2.2 9.9-1.4z"/><path d="M41.9 4.4c1.5 0 2.7 1.2 2.7 2.7v26.3c0 1.5-1.2 2.7-2.7 2.7h-35c-1.5 0-2.7-1.2-2.7-2.7V7c0-1.5 1.2-2.7 2.7-2.7l35 .1m0-4.3h-35C3.1.1 0 3.2 0 7v26.3c0 3.8 3.1 6.9 6.9 6.9h35c3.8 0 6.9-3.1 6.9-6.9V7c0-3.8-3.1-6.9-6.9-6.9z"/></svg>