<svg xmlns="http://www.w3.org/2000/svg" viewBox="0 0 50 40"><path d="M41.8 4.3c1.5 0 2.6 1.2 2.6 2.6V33c0 1.5-1.2 2.6-2.6 2.6H7c-1.5 0-2.6-1.2-2.6-2.6V7c0-1.5 1.2-2.6 2.6-2.6l34.8-.1m0-4.2H7C3.3.1.2 3.2.2 7v26.1c0 3.8 3.1 6.8 6.8 6.8h34.7c3.8 0 6.8-3.1 6.8-6.8V7c.1-3.8-3-6.9-6.7-6.9z"/><path d="M20.7 2v36.1H22V2"/><path d="M4.4 21.7h41c.4 0 .7-.3.7-.7 0-.4-.3-.7-.7-.7h-41c-.4 0-.7.3-.7.7 0 .4.3.7.7.7"/><path d="M30.6 21.1H30c0 2.4-1 4.5-2.5 6.1-1.6 1.6-3.7 2.5-6.1 2.5-2.4 0-4.5-1-6.1-2.5-1.6-1.6-2.5-3.7-2.5-6.1 0-2.4 1-4.5 2.5-6.1 1.6-1.6 3.7-2.5 6.1-2.5 2.4 0 4.5 1 6.1 2.5 1.6 1.6 2.5 3.7 2.5 6.1h1.3c0-5.5-4.5-9.9-9.9-9.9-5.5 0-9.9 4.5-9.9 9.9S16 31 21.4 31c5.5 0 9.9-4.5 9.9-9.9h-.7z"/><circle cx="21.4" cy="21.5" r="2.3"/></svg>