<svg xmlns="http://www.w3.org/2000/svg" viewBox="0 0 612 792"><path d="M523.8 151.2H89.3c-47.9 0-86.9 39-86.9 85.6v327.4c0 47.9 39 85.6 85.6 85.6h435.7c47.9 0 85.6-39 85.6-85.6V236.8c.2-46.6-37.6-85.6-85.5-85.6zm32.8 413.1c0 17.6-15.1 32.7-32.7 32.7H89.3c-17.6 0-32.7-15.1-32.7-32.7V236.8c0-17.6 15.1-32.7 32.7-32.7h434.5c17.6 0 32.7 15.1 32.7 32.7v327.5z"/><path d="M98.2 241.9h426.9v84.4H98.2zm224.1 123.4c-15.1 0-26.4 11.3-26.4 26.4 0 15.1 11.3 26.4 26.4 26.4s26.4-11.3 26.4-26.4c.1-13.8-11.3-26.4-26.4-26.4z"/><circle cx="405.4" cy="391.7" r="26.4"/><path d="M489.8 365.3c-15.1 0-26.4 11.3-26.4 26.4 0 15.1 11.3 26.4 26.4 26.4 15.1 0 26.4-11.3 26.4-26.4.1-13.8-12.5-26.4-26.4-26.4zm-167.5 71.8c-15.1 0-26.4 11.3-26.4 26.4 0 15.1 11.3 26.4 26.4 26.4s26.4-11.3 26.4-26.4c.1-15.1-11.3-27.7-26.4-26.4z"/><circle cx="405.4" cy="463.5" r="26.4"/><path d="M489.8 437.1c-15.1 0-26.4 11.3-26.4 26.4 0 15.1 11.3 26.4 26.4 26.4 15.1 0 26.4-11.3 26.4-26.4.1-15.1-12.5-27.7-26.4-26.4zm-167.5 70.5c-15.1 0-26.4 11.3-26.4 26.4 0 15.1 11.3 26.4 26.4 26.4s26.4-11.3 26.4-26.4c.1-15.1-11.3-26.4-26.4-26.4z"/><circle cx="405.4" cy="534" r="26.4"/><path d="M489.8 507.6c-15.1 0-26.4 11.3-26.4 26.4 0 15.1 11.3 26.4 26.4 26.4 15.1 0 26.4-11.3 26.4-26.4.1-15.1-12.5-26.4-26.4-26.4zM98.2 365.3h165v195.2h-165z"/></svg>