<svg xmlns="http://www.w3.org/2000/svg" viewBox="0 0 612 792"><path d="M469.9 12.4H142.1C63.4 12.4 0 75.8 0 154.5v483c0 78.7 63.4 142.1 142.1 142.1H470c78.7 0 142.1-63.4 142.1-142.1v-483C612 75.8 548.6 12.4 469.9 12.4zm54.7 679.8c-13.1 13.1-32.8 21.9-54.6 21.9H142.1c-21.9 0-39.3-8.7-54.6-21.9-13.1-13.1-21.9-32.8-21.9-54.6v-483c0-21.9 8.7-39.3 21.9-54.6 13-13.3 32.7-22 54.6-22H470c21.9 0 39.3 8.7 54.6 21.9 13.1 13.1 21.9 32.8 21.9 54.6v483c-.1 21.9-8.8 39.4-21.9 54.7z"/><path d="M120.2 163.2H494v131.1H120.2z"/><circle cx="177" cy="397.1" r="41.5"/><circle cx="306" cy="397.1" r="41.5"/><circle cx="435" cy="397.1" r="41.5"/><circle cx="177" cy="508.6" r="41.5"/><circle cx="306" cy="508.6" r="41.5"/><circle cx="435" cy="508.6" r="41.5"/><circle cx="177" cy="617.9" r="41.5"/><circle cx="306" cy="617.9" r="41.5"/><circle cx="435" cy="617.9" r="41.5"/></svg>