<svg xmlns="http://www.w3.org/2000/svg" viewBox="0 0 50 40"><path d="M41.6 0H7.1C3.3 0 .2 3.1.2 6.8v26c0 3.8 3.1 6.8 6.8 6.8h34.6c3.8 0 6.8-3.1 6.8-6.8v-26c0-3.7-3-6.8-6.8-6.8zm2.7 32.8c0 1.4-1.2 2.6-2.6 2.6H7.1c-1.4 0-2.6-1.2-2.6-2.6v-26c0-1.4 1.2-2.6 2.6-2.6h34.6c1.4 0 2.6 1.2 2.6 2.6v26z"/><path d="M20.1 14.1c0-.2 0-.3-.1-.5s-.1-.3-.3-.4l-.6-.3c-.3-.1-.6-.1-1-.1-.5 0-.9.1-1.4.3-.5.2-.9.5-1.2.8-.4.3-.7.7-.9 1.1-.3.4-.4.9-.5 1.3l-.1.5h-1.4l-.2.7h1.4l-1.3 5.9c-.1.7-.3 1.3-.5 1.7-.2.4-.4.8-.6 1-.1-.1-.1-.3-.2-.5l-.3-.6c-.1-.2-.3-.3-.5-.5-.2-.1-.4-.2-.7-.2-.3 0-.6.1-.8.3-.2.2-.3.5-.3.7 0 .2 0 .3.1.5s.1.3.3.4l.6.3c.3.1.6.1 1 .1.5 0 .9-.1 1.4-.3.4-.2.9-.4 1.2-.8.4-.3.7-.7 1-1.1.3-.4.5-.9.6-1.3l.6-2.7c.2-.9.4-1.9.6-3h1.7l.2-.7h-1.8l.2-.8c.2-.7.3-1.3.5-1.7.2-.4.3-.7.5-1 .1.1.1.3.2.5l.3.6c.1.2.3.3.5.5.2.1.4.2.7.2.2 0 .4 0 .5-.1l.3-.3c.1-.1.1-.2.2-.3 0 0 .1-.1.1-.2zm3.4 2.4c.4-.8.9-1.5 1.5-2s1.1-.8 1.7-.9l.1-.6c-.7.1-1.5.4-2.4.8-.8.4-1.6 1-2.2 1.6-.7.7-1.2 1.6-1.6 2.6-.4 1-.6 2.1-.6 3.3 0 .7.1 1.4.3 2 .2.6.5 1 .9 1.4.4.4.8.7 1.3.9.5.2 1 .4 1.5.4l.1-.6c-.7-.1-1.1-.5-1.4-1.1-.3-.6-.5-1.3-.5-2.3 0-1 .1-1.9.3-2.9.3-.9.6-1.8 1-2.6zm10.1 6.2c-.1 0-.3.1-.4.1-.2 0-.3.1-.5.1-.3 0-.6-.1-.7-.2-.2-.1-.3-.3-.4-.6l-.3-.9c-.1-.3-.2-.8-.4-1.5.2-.2.3-.5.5-.6.1-.2.3-.3.3-.3.2.1.3.1.6.2.2.1.4.1.7.1.4 0 .7-.1 1-.4.3-.2.4-.6.4-1 0-.3-.1-.6-.3-.8-.2-.2-.4-.3-.7-.3-.4 0-.7.1-1 .4-.3.2-.6.7-1 1.2-.1.1-.2.3-.3.4-.1.2-.2.3-.3.5 0-.1-.1-.3-.1-.5s-.1-.4-.2-.6c-.1-.3-.2-.5-.3-.6-.1-.2-.3-.3-.4-.4-.2-.1-.4-.2-.5-.2h-.6c-.3 0-.6 0-.9.1-.4.1-.8.2-1.2.4l-.2.6c.1 0 .3-.1.4-.1.2-.1.3-.1.5-.1.3 0 .6.1.7.2.2.1.3.3.4.6l.3.9c.1.3.2.8.4 1.4-.2.2-.3.4-.5.6-.1.2-.3.3-.3.3-.2-.1-.4-.1-.6-.2-.2-.1-.4-.1-.6-.1-.4 0-.7.1-1 .4-.3.2-.4.6-.4 1 0 .3.1.6.3.8.2.2.4.3.7.3.4 0 .7-.1 1-.4.3-.2.6-.6 1-1.2.1-.2.2-.3.3-.4.1-.1.2-.2.3-.4 0 .2.1.4.1.6 0 .2.1.4.2.6.1.3.2.5.3.6.1.2.3.3.4.4.2.1.3.2.5.2s.4.1.6.1c.3 0 .6 0 .9-.1.3-.1.8-.2 1.2-.4l.1-.8zm5.3-8.4c-.4-.4-.8-.7-1.3-.9-.5-.2-1-.4-1.5-.4l-.1.6c.7.1 1.1.5 1.4 1.1.3.6.5 1.3.5 2.3 0 1-.1 1.9-.3 2.9-.2 1-.5 1.9-.9 2.6-.4.8-.9 1.5-1.5 2s-1.1.8-1.7.9l-.2.6c.7-.1 1.5-.4 2.4-.8.8-.4 1.6-1 2.2-1.6.7-.8 1.3-1.6 1.7-2.6.4-1 .6-2.1.6-3.3 0-.7-.1-1.4-.3-2-.3-.5-.6-1-1-1.4z"/></svg>