<svg xmlns="http://www.w3.org/2000/svg" viewBox="0 0 24 24"><path d="M21.1 4.2c-.5 1.3-1.4 3.5-2.9 4.2-.1.1-.2.1-.3 0-1.1-.3-2.1.1-2.7.4.2.3.5.8.7 1.8.2.1.6 0 .8-.1.2-.1.4-.1.6.1 1.2 1.2-.4 2.8-1.3 3.8l-.5.5.1.1c.2.2.5.5.6.9 0 .3-.1.6-.4.8-.5.5-1 .8-1.4 1-.1 1.7-1.4 2.7-3.5 2.7-1 0-2-2.5-2-3 0-.4.2-.7.3-1 .1-.2.2-.4.2-.5 0-.2-.4-.7-.9-1.1-.1-.1-.1-.2-.1-.4 0-.4-.1-.7-.2-.9-.3-.2-.8-.2-1.5-.2h-.8c-1.6 0-2-1.6-2-2.5 0-.2 0-3.9 2.9-4.5 1.3-.3 2.2-.2 2.7.2.2.1.3.3.3.5.5.4 1.5.2 2.3 0 .3-.1.5-.1.8-.2.1-.8.1-1.7 0-2-.6.3-1.2.3-1.7 0s-.8-.8-.9-1.5C10.4 2.1 13.1 1 15 .4c-1-.3-2-.4-3-.4C5.4 0 0 5.4 0 12s5.4 12 12 12 12-5.4 12-12c0-3-1.1-5.7-2.9-7.8z"/></svg>