<svg xmlns="http://www.w3.org/2000/svg" viewBox="0 0 50 40"><path d="M41.5 4.2c1.4 0 2.6 1.2 2.6 2.6v26c0 1.4-1.2 2.6-2.6 2.6H6.8c-1.4 0-2.6-1.2-2.6-2.6v-26c0-1.4 1.2-2.6 2.6-2.6h34.7m0-4.2H6.8C3.1 0 0 3.1 0 6.8v26c0 3.8 3.1 6.8 6.8 6.8h34.6c3.8 0 6.8-3.1 6.8-6.8v-26c.1-3.7-3-6.8-6.7-6.8z"/><path d="M39.3 13.1l-7.5 7.5h-3.7v-3.7l7.5-7.5 3.7 3.7zm-7.1 5.5l-2.1-2.1-.8.8v1h1.1v1.1h1l.8-.8zm9.2-7.6l-1.5 1.5-3.7-3.7 1.5-1.5c.1-.2.4-.3.7-.3.3 0 .6.1.8.3l2.1 2.1c.2.2.3.5.3.8.1.3 0 .6-.2.8z"/><path d="M31.3 12.2c2.1 2.1 3.4 5.1 3.5 8.1.1 3-1 6.1-3.2 8.4-2.2 2.2-5.2 3.6-8.4 3.6-3.1.1-6.3-1.2-8.6-3.4s-3.7-5.4-3.8-8.6c0-1.6.3-3.2.9-4.8.6-1.5 1.6-2.9 2.7-4 1.2-1.1 2.6-2 4.1-2.5 1.5-.5 3.1-.7 4.7-.6 3.1.2 6 1.6 8.1 3.8zm-.2.1c-1.1-1-2.3-1.8-3.7-2.3-1.4-.5-2.8-.7-4.3-.6-2.9.2-5.5 1.5-7.3 3.5-1.9 1.9-3 4.6-3 7.3-.1 2.7 1 5.5 2.9 7.5s4.7 3.2 7.5 3.2c2.8.1 5.6-1 7.7-3 2.1-2 3.4-4.8 3.5-7.7 0-1.5-.2-2.9-.7-4.3-.7-1.3-1.5-2.6-2.6-3.6z"/><path d="M29 19.3H6.6v1H29"/><circle cx="23.2" cy="19.9" r="2"/></svg>