<svg xmlns="http://www.w3.org/2000/svg" viewBox="0 0 80 79.96"><title>asset-ebook</title><path class="a" d="M49.99 64.89L46.6 60H6.67V6.69h43.31v34.78a8.51 8.51 0 0 1 6 2.5l.19.2.43.51v-38A6.67 6.67 0 0 0 49.94.02H6.67A6.67 6.67 0 0 0 .01 6.68v60a6.69 6.69 0 0 0 6.66 6.68H52.2a15.22 15.22 0 0 1-2.21-6.66v-1.81zm-33.33 1.77a1.67 1.67 0 1 1 1.67-1.67 1.66 1.66 0 0 1-1.67 1.65zm15 0h-10v-3.33h10v3.33zm5 0a1.67 1.67 0 1 1 1.67-1.67 1.66 1.66 0 0 1-1.68 1.65zm43.35 11.66a1.66 1.66 0 0 1-1.67 1.67H61.65a1.66 1.66 0 0 1-1.3-.63 63.85 63.85 0 0 1-4.29-6c-1.74-2.83-2.74-5.2-2.74-6.66v-2.29a1.67 1.67 0 0 0-.3-.95l-3-4.39-3.79-5.48a5.8 5.8 0 0 1 .12-7.22 5.36 5.36 0 0 1 7.36 0l3 3.52 3.33 3.94V28.59a1.66 1.66 0 0 1 2.74-1.27c6.7 5.72 7.26 8.2 7.26 14.4v22.76l.33.45 9.16 12.22A1.65 1.65 0 0 1 80 78.3zm-63.34-35h23.31v3.33H16.66v-3.33zm23.32-3.33H16.66v-3.33h23.32v3.33zm0-6.66H16.66V30h23.32v3.33zm0-6.66H16.66v-3.33h23.32v3.33zm-10-10V20H16.66v-3.33h13.33z"/></svg>