<svg xmlns="http://www.w3.org/2000/svg" viewBox="0 0 24 24"><title>asset-definition_glossary_term</title><path d="M7.5.5V11h-7V.5C.5.2.7 0 1 0s.5.2.5.5V4c0 1.1 0 1.8.2 2.2 0 0 0 .1.1.1.1.2.2.3.3.4.4.2 1 .3 1.9.3s1.5 0 1.9-.3l.3-.3s0-.1.1-.1c.2-.5.2-1.2.2-2.3V.5c0-.3.2-.5.5-.5s.5.2.5.5zM.5 22c0 1.3.9 2 2.5 2h2c1.6 0 2.5-.7 2.5-2v-2h-7v2zM3 6c.3 0 .5-.2.5-.5v-4c0-.3-.2-.5-.5-.5-.2 0-.5.2-.5.4v4.1c0 .3.2.5.5.5zm2 0c.3 0 .5-.2.5-.5v-4c0-.3-.2-.5-.5-.5-.2 0-.5.2-.5.4v4.1c0 .3.2.5.5.5zm10-6c-.3 0-.5.2-.5.5V4c0 1.1 0 1.8-.2 2.2 0 0 0 .1-.1.1-.1.1-.2.3-.4.4-.3.2-.9.3-1.8.3s-1.5 0-1.9-.3l-.3-.3s0-.1-.1-.1c-.2-.5-.2-1.2-.2-2.3V.5C9.5.2 9.3 0 9 0c-.2 0-.5.2-.5.4V11h7V.5c0-.3-.2-.5-.5-.5zM8.5 22c0 1.3.9 2 2.5 2h2c1.6 0 2.5-.7 2.5-2v-2h-7v2zM11 6c.3 0 .5-.2.5-.5v-4c0-.3-.2-.5-.5-.5s-.5.2-.5.5v4.1c0 .2.2.4.5.4zm2 0c.3 0 .5-.2.5-.5v-4c0-.3-.2-.5-.5-.5s-.5.2-.5.5v4.1c0 .2.2.4.5.4zm10-6c-.3 0-.5.2-.5.5V4c0 1.1 0 1.8-.2 2.2 0 0 0 .1-.1.1-.1.1-.2.3-.4.4-.3.2-.9.3-1.8.3s-1.5-.1-1.9-.3c-.1-.1-.3-.2-.4-.4 0 0 0-.1-.1-.1-.2-.5-.2-1.2-.2-2.2V.5c.1-.3-.1-.5-.4-.5-.3 0-.5.2-.5.5V11h7V.5c0-.3-.2-.5-.5-.5zm-6.5 22c0 1.3.9 2 2.5 2h2c1.6 0 2.5-.7 2.5-2v-2h-7v2zM19 6c.3 0 .5-.2.5-.5v-4c0-.3-.2-.5-.5-.5s-.5.2-.5.5v4.1c0 .2.2.4.5.4zm2 0c.3 0 .5-.2.5-.5v-4c0-.3-.2-.5-.5-.5s-.5.2-.5.5v4.1c0 .2.2.4.5.4zM.5 20.1h7V12h-7v8.1zm8 0h7V12h-7v8.1zm8-.1h7v-8.1h-7V20z"/></svg>