<svg xmlns="http://www.w3.org/2000/svg" viewBox="0 0 28 28"><title>asset-audio</title><path d="M19.8 17.9h-1.6c-.2 0-.4.1-.5.3l-.9 1.8-1.3-5.9c0-.2-.2-.4-.5-.4-.2 0-.5.1-.5.3l-1.7 4.2-1.1-2.1c-.1-.3-.5-.4-.7-.2 0 0 0 .1-.1.1l-1.4 1.9H8.2c-.3 0-.5.2-.6.5s.2.6.5.6h1.7c.2 0 .3-.1.4-.2l1.1-1.4 1.2 2.4c.1.2.3.3.5.3s.4-.1.5-.3l1.5-3.7 1.2 5.7c0 .2.2.4.5.4h.1c.2 0 .4-.1.5-.3l1.4-2.9H20c.3 0 .5-.3.5-.6-.2-.2-.4-.4-.7-.5z"/><path d="M23.3 11.7c-.5-4.7-4.2-8.3-9-8.6-5.2-.3-9.5 3.6-10 8.6C1.9 12.3.1 14.4 0 17c-.1 1.5.5 2.9 1.5 4s2.4 1.7 3.9 1.8c.6 0 1.1-.5 1.1-1.1v-9c0-4 3.3-7.3 7.4-7.3 4 0 7.4 3.3 7.4 7.3v9c0 .6.5 1.1 1.1 1.1 3.1 0 5.6-2.5 5.6-5.6-.1-2.7-2-5-4.7-5.5z"/></svg>