<svg xmlns="http://www.w3.org/2000/svg" viewBox="0 0 75.64 80"><title>asset-technology_enhanced_assessment</title><path class="a" d="M43.07 72.56H24.7a8.17 8.17 0 0 1-2.12-.29 7.1 7.1 0 0 1-6.14-7V29.59h59.19v29.85a6.13 6.13 0 0 0-3.15-2.31l-9.33-3.15V40.83a6.535 6.535 0 0 0-13.07 0v19.71c-2.48-2.47-4.8-3.5-7.48-3.5a4.62 4.62 0 0 0-4.2 2.44 7.08 7.08 0 0 0 .53 6.9zM16.45 23.8v2.52h59.19V23.8a7.31 7.31 0 0 0-7.07-7.35h-45a7.35 7.35 0 0 0-7.12 7.35zm4.93-22.15A1.64 1.64 0 0 0 19.74.01 19.75 19.75 0 0 0 .01 19.74a1.645 1.645 0 1 0 3.29 0A16.46 16.46 0 0 1 19.74 3.3a1.64 1.64 0 0 0 1.63-1.65zm0 8.22a1.64 1.64 0 0 0-1.64-1.64A11.52 11.52 0 0 0 8.23 19.74a1.645 1.645 0 0 0 3.29 0 8.23 8.23 0 0 1 8.22-8.22 1.64 1.64 0 0 0 1.63-1.65z"/><path class="a" d="M52.84 40.81a3.76 3.76 0 0 1 3.76-3.74 3.8 3.8 0 0 1 3.8 3.78v15.13l11.21 3.78c2.49.8 3 3.79 2.45 6.34l-2.61 13.88h-20.1L41.23 64.82c-1.14-1.76-1.15-5.06 1.37-5.06s5.19 1 10.24 8.8V40.79z"/></svg>