<svg xmlns="http://www.w3.org/2000/svg" viewBox="0 0 72.56 80"><title>asset-interactive_video</title><path class="a" d="M26.49 61.03c2.84-1.64 6.1-2.2 12.07-.09L27.75 42.23l-4.78 2.39a1.32 1.32 0 0 1-1.91-1.18v-23.7a1.32 1.32 0 0 1 1.91-1.18l23.7 11.91a1.32 1.32 0 0 1 0 2.36l-5.69 2.84 5.32 9.2 13-2.62a6.82 6.82 0 0 1 2.11-.12 31.6 31.6 0 1 0-36.55 20.34 5.38 5.38 0 0 1 1.63-1.44z"/><path class="a" d="M26.97 35.77a4.79 4.79 0 0 1 1.77-6.53 4.84 4.84 0 0 1 6.61 1.75L45 47.69l14.79-3c3.26-.71 5.78 2.24 6.76 5.44l6 17-22.23 12.84-20.85-10.29c-2.38-1.21-4.5-4.86-1.71-6.47s6.4-2.17 16.92 3.19z"/></svg>