<svg xmlns="http://www.w3.org/2000/svg" viewBox="0 0 80 73.57"><title>asset-investigation</title><path class="a" d="M55 30.23a1.67 1.67 0 0 1-3.33 0c0-2-3.4-4.09-8.33-4.77v29.77A18.33 18.33 0 1 0 76.5 44.5l-10-23.26a1.68 1.68 0 0 0-.35-.52l-4.75-4.74-4.87-12.79a1.71 1.71 0 0 0-.38-.59 9.2 9.2 0 0 0-12.36 0 1.67 1.67 0 0 0-.49 1.17v18.32c6.87.79 11.7 4.02 11.7 8.14zm6.67 40a15 15 0 1 1 15-15 15 15 0 0 1-15 15zM0 55.23a18.335 18.335 0 0 0 36.67 0V25.46c-4.93.69-8.33 2.82-8.33 4.77a1.67 1.67 0 0 1-3.33 0c0-4.11 4.83-7.34 11.67-8.14V3.56a1.68 1.68 0 0 0-.49-1.18 9.2 9.2 0 0 0-12.36 0 1.64 1.64 0 0 0-.38.59l-4.87 13-4.75 4.79a1.64 1.64 0 0 0-.36.52l-10 23.26A18.22 18.22 0 0 0 0 55.23zm18.33 15a15 15 0 1 1 15-15 15 15 0 0 1-14.99 15zm-8.33-15a1.67 1.67 0 0 1-3.33 0 11.67 11.67 0 0 1 11.67-11.67 1.67 1.67 0 1 1 0 3.33A8.34 8.34 0 0 0 10 55.23zm43.33 0a1.67 1.67 0 0 1-3.33 0 11.67 11.67 0 0 1 11.67-11.67 1.67 1.67 0 1 1 0 3.33 8.34 8.34 0 0 0-8.33 8.34z"/></svg>