<svg xmlns="http://www.w3.org/2000/svg" viewBox="0 0 80 74"><title>asset-science_tool</title><path class="a" d="M79.83 36.33L60.52.7a1.36 1.36 0 0 0-1.21-.7H20.68a1.36 1.36 0 0 0-1.21.7L.16 36.34a1.37 1.37 0 0 0 0 1.31l19.27 35.64a1.37 1.37 0 0 0 1.21.71h38.63a1.37 1.37 0 0 0 1.21-.71l19.31-35.65a1.37 1.37 0 0 0 .04-1.31zM20.62 21.42L24.27 25h3.16v-3.92l-3.12-3.73a7 7 0 0 1 7.7 1.51 7.09 7.09 0 0 1 1.57 7.76l6.65 6.62-3.74 3.77-6.62-6.61a7 7 0 0 1-7.76-1.38 6.82 6.82 0 0 1-1.49-7.6zm39.3 31.28l-3.81-3.71h-3.68v3.91l3.67 3.73a7 7 0 0 1-9.23-9.27l-6.61-6.63 3.76-3.75 6.63 6.63A7 7 0 0 1 58.43 45a6.92 6.92 0 0 1 1.49 7.71zm1.62-32.92L57 25.85a.92.92 0 0 1-1.38.1l-1.45-1.44L36.58 42.1l3.1 3.1-1.3 1.3-1.23-1.23-11 11a3.57 3.57 0 1 1-5-5l11-11-1.23-1.23 1.3-1.3 3.1 3.1 17.59-17.59-1.63-1.63a.92.92 0 0 1 .12-1.4l6.26-4.35a.92.92 0 0 1 1.17.1l2.65 2.65a.92.92 0 0 1 .05 1.16z"/></svg>