<svg xmlns="http://www.w3.org/2000/svg" viewBox="0 0 80 79.99"><title>asset-higher_ed_unit</title><path class="a" d="M59.15 0a1.69 1.69 0 0 0-1.39.72L38.49 28.25a11.8 11.8 0 0 0-10.24 10.24L.72 57.76A1.69 1.69 0 0 0 0 59.15c0 7 13.83 20.84 20.85 20.84a1.7 1.7 0 0 0 1.39-.72L40.8 52.76l19.55 19.56a1.69 1.69 0 0 0 1.2.5 1.73 1.73 0 0 0 .65-.13 1.7 1.7 0 0 0 1-1.57v-7.87h7.88a1.69 1.69 0 0 0 1.2-2.89L52.73 40.8l26.54-18.55a1.69 1.69 0 0 0 .72-1.39C79.99 13.83 66.16 0 59.15 0zm-6 29.22l-6.1 6.11a8.46 8.46 0 0 1-11.73 11.73l-6.1 6.11a1.69 1.69 0 0 1-2.39-2.39l6.1-6.11a8.47 8.47 0 0 1 11.73-11.73l6.1-6.11a1.704 1.704 0 0 1 2.4 2.42z"/></svg>