<svg xmlns="http://www.w3.org/2000/svg" viewBox="0 0 80 79.99"><title>asset-higher_ed_grouping</title><path class="a" d="M59.15 0a1.69 1.69 0 0 0-1.39.72L38.49 28.25a11.8 11.8 0 0 0-10.24 10.24L.72 57.79A1.69 1.69 0 0 0 0 59.18c0 7 13.83 20.84 20.85 20.84a1.7 1.7 0 0 0 1.39-.72l18.55-26.51 19.55 19.56a1.69 1.69 0 0 0 1.2.5 1.73 1.73 0 0 0 .65-.13 1.7 1.7 0 0 0 1-1.57v-7.89h7.88a1.69 1.69 0 0 0 1.2-2.89L52.76 40.79l26.51-18.56a1.69 1.69 0 0 0 .72-1.39C79.99 13.79 66.16 0 59.15 0zm-6 29.22l-6.1 6.11a8.46 8.46 0 0 1-11.73 11.73l-6.1 6.11a1.69 1.69 0 0 1-2.39-2.39l6.1-6.11a8.47 8.47 0 0 1 11.73-11.73l6.1-6.11a1.697 1.697 0 0 1 2.4 2.4z"/></svg>