<svg xmlns="http://www.w3.org/2000/svg" viewBox="0 0 63.33 80"><title>asset-clip_art</title><path class="a" d="M26.66 79.8A30 30 0 0 1 0 50a1.67 1.67 0 0 1 2.35-1.52l24.31 10.84v20.44zm35.9-31.2a1.67 1.67 0 0 0-1.59-.12l-24.31 11v20.36a30 30 0 0 0 26.66-29.8 1.67 1.67 0 0 0-.76-1.44zM58.88.1a1.65 1.65 0 0 0-1.85.51L43.49 17.17 32.99.77a1.67 1.67 0 0 0-1.4-.77 1.67 1.67 0 0 0-1.4.78L19.83 17.16 6.29.62a1.67 1.67 0 0 0-3 1.05v16.65a28.34 28.34 0 0 0 26.66 28.25v33.42h3.33V46.57a28.34 28.34 0 0 0 26.71-28.25V1.65A1.67 1.67 0 0 0 58.88.1z"/></svg>