<svg xmlns="http://www.w3.org/2000/svg" viewBox="0 0 24 24"><title>asset-five_minute_prep</title><path d="M6.5 20.4V24c0 .2.1.4.3.5.2.1.4 0 .5-.1h7.3c.1.1.2.1.4.1h.2c.2-.1.3-.3.3-.5v-3.6c-1.3.7-2.9 1.1-4.5 1.1s-3.2-.3-4.5-1.1z"/><path d="M11 3.6c-4.7 0-8.5 3.8-8.5 8.5s3.8 8.5 8.5 8.5 8.5-3.8 8.5-8.5-3.8-8.5-8.5-8.5zm0 14.5c-3.3 0-6-2.7-6-6s2.7-6 6-6 6 2.7 6 6-2.7 6-6 6zm4.5-14.5V0c0-.2-.1-.4-.3-.5-.2-.1-.4 0-.5.1H7.4c-.1-.1-.3-.2-.4-.2h-.2c-.2.1-.3.3-.3.5v3.6c1.3-.7 2.9-1.1 4.5-1.1s3.2.4 4.5 1.2z"/><path d="M11.3 11.1c-.5 0-1 .2-1.3.5v-1.5h2.8V9H8.7v3.4l.9.2c.4-.3.8-.5 1.3-.5.7 0 1.1.4 1.1.9s-.4.9-1.1.9c-.6 0-1.2-.2-1.6-.7l-.7.9c.5.6 1.3.9 2.3.9 1.4 0 2.4-.8 2.4-2.1-.1-1.1-1-1.8-2-1.8z"/></svg>