<svg xmlns="http://www.w3.org/2000/svg" viewBox="0 0 80 80"><title>asset-animation</title><path class="a" d="M68.34 60H11.67a5 5 0 1 1 0-10h21.78a28.55 28.55 0 1 0-5.77-6.67h-16a11.67 11.67 0 1 0 0 23.33h56.67a3.335 3.335 0 0 1 0 6.67h-33.3a3.335 3.335 0 0 0 0 6.67h33.33a10 10 0 0 0-.04-20zm-8.62-11.62a20.35 20.35 0 0 1-7.59 1.42 26.11 26.11 0 0 1-8.67-1.56 1.67 1.67 0 0 1-1-2.17l3.18-8.33a1.67 1.67 0 0 1 2.42-.83 8.08 8.08 0 0 0 7.43.26 1.66 1.66 0 0 1 2.19.93l3.11 7.87a1.62 1.62 0 0 1 .19.7 1.69 1.69 0 0 1-1.26 1.7zM45 28.38a6.67 6.67 0 1 1 6.67 6.67 6.68 6.68 0 0 1-6.62-6.72zm24.28-9.12a1.64 1.64 0 0 1 .72-.2 1.66 1.66 0 0 1 1.71 1.26c2.45 6.15 1.29 12.22-.13 16.26a1.67 1.67 0 0 1-1.53 1.09 1.62 1.62 0 0 1-.59-.11l-8.41-3.21a1.67 1.67 0 0 1-.83-2.42 8.1 8.1 0 0 0 .26-7.43 1.66 1.66 0 0 1 .93-2.19zm-25.63-11h.07a23.12 23.12 0 0 1 16.15.18 1.67 1.67 0 0 1 1 2.22l-3.19 7.63a1.67 1.67 0 0 1-1.54 1h-.26a1.65 1.65 0 0 1-.63-.23 10 10 0 0 0-7.4.08 1.67 1.67 0 0 1-2.18-.9l-3.11-7.48a1.66 1.66 0 0 1-.21-.73 1.67 1.67 0 0 1 1.3-1.77zM31.76 20.13a1.67 1.67 0 0 1 2.17-1l8.33 3.18a1.68 1.68 0 0 1 1 1 1.67 1.67 0 0 1-.15 1.4 8.11 8.11 0 0 0-.26 7.43 1.67 1.67 0 0 1-.93 2.19l-7.87 3.13a1.6 1.6 0 0 1-.71.2h-.07a1.69 1.69 0 0 1-1.64-1.27c-2.45-6.15-1.29-12.23.14-16.26z"/></svg>