<svg xmlns="http://www.w3.org/2000/svg" viewBox="0 0 24 24"><title>asset-encyclopedia_article</title><path d="M17 1.8v-2H.5C.2-.2 0 0 0 .2v20c0 1.9 1.6 3.5 3.5 3.5h14.9c-.8-.9-1.4-2.2-1.4-3.5V1.8zM3 6.2c0-.2.2-.4.5-.4h5c.3 0 .5.2.5.4v6c0 .3-.2.5-.5.5h-5c-.3 0-.5-.2-.5-.5v-6zm11.5 12.6h-11c-.3 0-.5-.2-.5-.5s.2-.5.5-.5h11c.3 0 .5.2.5.5 0 .2-.2.5-.5.5zm0-2h-11c-.3 0-.5-.2-.5-.5s.2-.5.5-.5h11c.3 0 .5.2.5.5 0 .2-.2.5-.5.5zm0-2h-11c-.3 0-.5-.2-.5-.5s.2-.5.5-.5h11c.3 0 .5.2.5.5 0 .2-.2.5-.5.5zm0-2h-4c-.3 0-.5-.2-.5-.5s.2-.5.5-.5h4c.3 0 .5.2.5.5 0 .2-.2.5-.5.5zm0-2h-4c-.3 0-.5-.2-.5-.5s.2-.5.5-.5h4c.3 0 .5.2.5.5 0 .2-.2.5-.5.5zm0-2h-3c-.3 0-.5-.2-.5-.5s.2-.5.5-.5h3c.3 0 .5.2.5.4 0 .3-.2.6-.5.6zm0-5h-11c-.3 0-.5-.3-.5-.6 0-.2.2-.4.5-.4h11c.3 0 .5.2.5.4 0 .3-.2.6-.5.6z"/><path d="M23.5 2.8H20v-1c0-.3-.2-.5-.5-.5H18v19c0 1.7 1.3 3.5 2.5 3.5 1.9 0 3.5-1.6 3.5-3.5v-17c0-.3-.2-.5-.5-.5zM21 20.2c0 .3-.2.5-.5.5s-.5-.2-.5-.5V5.8h1v14.4z"/></svg>