<svg xmlns="http://www.w3.org/2000/svg" viewBox="0 0 24 24"><title>asset-math_interactive</title><path d="M10 3.5H4.5C2 3.5 0 5.5 0 8v10c0 1.4 1.1 2.5 2.5 2.5 1.3 0 1.4-.2 2.7-2.5.5-1 1.3-2.4 2.6-4.5h8.4c1.2 2.1 2 3.5 2.6 4.5 1.2 2.2 1.4 2.5 2.7 2.5 1.4 0 2.5-1.1 2.5-2.5V8c0-2.5-2-4.5-4.5-4.5H14m3.8 2.8c.4-.4 1-.4 1.4 0 .4.4.4 1 0 1.4-.4.4-1 .4-1.4 0-.4-.4-.4-1 0-1.4zM13 3.5h-2M8 9.3H6.2v1.8c0 .3-.3.6-.6.6s-.6-.3-.6-.6V9.3H3.2c-.3 0-.6-.3-.6-.6s.3-.6.6-.6H5V6.3c0-.3.3-.6.6-.6s.6.3.6.6v1.8H8c.3 0 .6.3.6.6 0 .4-.2.6-.6.6zm3 2.2h-1c-.3 0-.5-.3-.5-.5s.2-.4.5-.5h1c.3 0 .5.2.5.5s-.2.5-.5.5zm3 0h-1c-.3 0-.5-.3-.5-.5s.2-.4.5-.5h1c.3 0 .5.2.5.5s-.2.5-.5.5zm3.2-1.8c-.4.4-1 .4-1.4 0-.4-.4-.4-1 0-1.4.4-.4 1-.4 1.4 0 .4.4.4 1 0 1.4zm2 2c-.4.4-1 .4-1.4 0-.4-.4-.4-1 0-1.4.4-.4 1-.4 1.4 0 .4.4.4 1 0 1.4zm2-2c-.4.4-1 .4-1.4 0-.4-.4-.4-1 0-1.4.4-.4 1-.4 1.4 0 .4.4.4 1 0 1.4z"/></svg>