<svg xmlns="http://www.w3.org/2000/svg" viewBox="0 0 24 24"><title>asset-audio_cd</title><path d="M12 10c-1.1 0-2 .9-2 2s.9 2 2 2 2-.9 2-2-.9-2-2-2zm0 2.5c-.3 0-.5-.2-.5-.5s.2-.5.5-.5.5.2.5.5-.2.5-.5.5z"/><path d="M12 0C5.4 0 0 5.4 0 12s5.4 12 12 12 12-5.4 12-12S18.6 0 12 0zm-1.8 21.3c-3.9-.7-7-3.9-7.6-7.8l1-.2c.6 3.5 3.3 6.3 6.8 7l-.2 1zm.4-1.9c-3.1-.6-5.5-3.1-6-6.2l1-.2c.4 2.7 2.5 4.8 5.2 5.4l-.2 1zm.4-2c-2.3-.4-4-2.3-4.4-4.5l1-.2c.3 1.9 1.7 3.4 3.6 3.7l-.2 1zm1-2.4c-1.7 0-3-1.3-3-3s1.3-3 3-3 3 1.3 3 3-1.3 3-3 3zm4.4-3.7c-.3-1.9-1.7-3.4-3.6-3.7l.2-1c2.3.4 4 2.3 4.4 4.5l-1 .2zm2-.3c-.4-2.7-2.5-4.8-5.2-5.4l.2-1c3.1.6 5.5 3.1 6 6.2l-1 .2zm2-.3c-.6-3.5-3.3-6.3-6.8-7l.2-1c3.9.7 7 3.9 7.6 7.8l-1 .2z"/></svg>