<svg xmlns="http://www.w3.org/2000/svg" viewBox="0 0 24 24"><title>asset-sound_effect</title><path d="M9 1.5c-.8 0-1.5.4-2 1L1.2-.4C1-.6.7-.5.6-.2.4 0 .5.3.8.4l5.8 2.9c-.1.3-.1.5-.1.7 0 1.4 1.1 2.5 2.5 2.5s2.5-1.1 2.5-2.5S10.4 1.5 9 1.5zM23.4-.2c-.1-.2-.4-.3-.7-.2L17 2.5c-.5-.6-1.2-1-2-1-1.4 0-2.5 1.1-2.5 2.5s1.1 2.5 2.5 2.5 2.5-1.1 2.5-2.5c0-.2 0-.4-.1-.6L23.2.5c.3-.2.4-.5.2-.7zM10 11h4v8h-4zm-4 0h1v8H6zm18-1V7.5c0-.3-.2-.5-.5-.5H.5c-.3 0-.5.2-.5.5V10h24zM2 11h3v8H2zm6 0h1v8H8zm7 0h1v8h-1zM0 20v2.5c0 .3.2.5.5.5h23c.3 0 .5-.2.5-.5V20H0zm19-9h3v8h-3zm-2 0h1v8h-1z"/></svg>