<svg xmlns="http://www.w3.org/2000/svg" viewBox="0 0 80 67.76"><title>asset-fun_damental</title><path class="a" d="M73.91 19.58a4.58 4.58 0 0 0 1.11-2.92c0-3.8-5-6.67-11.67-6.67a17.62 17.62 0 0 0-7.77 1.62l-4.94-2.14a4.57 4.57 0 0 0 1-2.81c0-3.8-5-6.67-11.67-6.67S28.3 2.85 28.3 6.66a4.57 4.57 0 0 0 1 2.81l-4.07 1.77a18.4 18.4 0 0 0-7-1.25c-6.65 0-11.67 2.86-11.67 6.67a4.42 4.42 0 0 0 .71 2.36l-5.36 2.4 38.1 16.76 38.1-16.76zM18.36 20c-5.09 0-8.33-2-8.33-3.33s3.25-3.33 8.33-3.33 8.33 2 8.33 3.33S23.42 20 18.33 20zm21.67 8.33c-5.09 0-8.33-2-8.33-3.33s3.25-3.33 8.33-3.33 8.33 2 8.33 3.33-3.28 3.33-8.36 3.33zm0-18.33c-5.09 0-8.33-2-8.33-3.33s3.25-3.33 8.33-3.33 8.33 2 8.33 3.33S45.08 10 40 10zm23.33 10c-5.09 0-8.33-2-8.33-3.33s3.25-3.33 8.33-3.33 8.33 2 8.33 3.33S68.42 20 63.33 20zm16.67 4.22V50a1.67 1.67 0 0 1-1 1.53L41.7 67.76V41.09zm-80 0l38.33 16.87v26.67L1.03 51.53a1.67 1.67 0 0 1-1-1.53V24.22z"/></svg>