<svg xmlns="http://www.w3.org/2000/svg" viewBox="0 0 24 24"><title>asset-non_searchable_image</title><path d="M23.2 20.9l-2.4-2.4c.6-.8.9-1.8.9-2.9 0-2.2-1.4-4.1-3.4-4.7V1H0v15.2h11.8c.3 2.5 2.4 4.4 4.9 4.4.9 0 1.8-.3 2.6-.7l2.5 2.5c.2.2.5.3.7.3s.5-.1.7-.3c.4-.4.4-1.1 0-1.5zM5.3 4.5c.6 0 1.1.5 1.1 1.1 0 .6-.5 1.1-1.1 1.1-.6 0-1.1-.5-1.1-1.1 0-.6.5-1.1 1.1-1.1zM4 11.1c0-.2.1-.3.3-.3h1.5l1.6-2.6c.1-.2.2-.2.4-.1l.1.1L9 9.5l2-3c.1-.1.2-.1.3-.1.1 0 .2.1.2.2l1.6 4.2h.6c.2 0 .3.1.3.3s-.1.3-.3.3H4.3c-.2 0-.3-.2-.3-.3zm12.7 1.5c.5 0 .9.1 1.3.3l-4 4c-.2-.4-.3-.8-.3-1.3 0-1.6 1.3-3 3-3zm-1.3 5.7l4-4c.2.4.3.8.3 1.3 0 1.7-1.3 3-3 3-.5 0-.9-.1-1.3-.3z"/></svg>