<svg xmlns="http://www.w3.org/2000/svg" viewBox="0 0 24 24"><title>asset-math_exploration</title><path d="M23.6.2c-.1-.1-.3-.2-.4-.1-.5.1-4.4.8-5.6 1.9l-9.9 9.9 4.2 4.2 9.9-9.9c1.1-1.1 1.8-5.1 1.9-5.6.1-.1.1-.2-.1-.4zM11.3 16.9L7 12.6c-.6.7-1 1.1-1 1.1-.2.2-.2.5 0 .7l3.5 3.5c.1.1.2.1.4.1s.3-.1.4-.1l1-1zm4.7-2.5c0-.2-.1-.4-.3-.5-.2-.1-.4 0-.5.1l-4.6 4.6c-.1.1-.1.2-.1.3l-.5 4.4c0 .2.1.4.3.5h.2c.1 0 .3-.1.4-.1l3.5-3.5c.5-.5 1.3-1.5 1.5-2.3.3-.9.3-2.2.2-3-.1-.2-.1-.4-.1-.5zM5.4 13.2L10 8.6c.1-.1.2-.2.2-.4 0 0 0-.5-.6-.5-.4 0-2.6 0-3.6.4-.8.2-1.8 1.1-2.3 1.5L.2 13.1c-.2.2-.2.5-.1.6 0 .2.2.3.4.3h.1l4.6-.7c.1 0 .2 0 .2-.1zm1.3 2.6c-.8-.8-2.1-.7-3.2.4-1 1-2.1 5.4-2.3 5.9 0 .2 0 .3.1.5.1.1.2.1.4.1h.1c.5-.1 4.8-1.2 5.9-2.3 1.1-1.1 1.2-2.3.4-3.2l-1.4-1.4zM7.8 6h-.9V4H5.2v-.7h1.7V1.4h.8v1.9h1.7V4H7.8v2zm10.6 13.4l-.6-.6 1.4-1.4-1.2-1.2.5-.5 1.2 1.2 1.3-1.3.6.6-1.3 1.3 1.2 1.2-.5.6-1.2-1.2-1.4 1.3z"/></svg>