<svg xmlns="http://www.w3.org/2000/svg" viewBox="0 0 80 80"><title>asset-assessment</title><path class="a" d="M33.35 28.18a5 5 0 0 1 5-4.92 5 5 0 0 1 5 5v20l14.82 5c3.29 1.06 4 5 3.25 8.39L58 80.03H31.35l-13.39-20c-1.51-2.32-1.52-6.69 1.82-6.69s6.87 1.37 13.53 11.64v-36.8zM9.93 30a3.33 3.33 0 0 1-2.36-1L.98 22.41a3.33 3.33 0 0 1 4.71-4.71l3.82 3.82L23.96 1.38a3.33 3.33 0 0 1 5.39 3.88L12.64 28.61A3.32 3.32 0 0 1 9.93 30zm59.78-15l9.31-9.31A3.33 3.33 0 1 0 74.35.98L65 10.26 55.69.95a3.33 3.33 0 1 0-4.71 4.71l9.31 9.31-9.31 9.31a3.33 3.33 0 1 0 4.71 4.71L65 19.68l9.35 9.34a3.33 3.33 0 0 0 4.71-4.71z"/></svg>