<svg xmlns="http://www.w3.org/2000/svg" viewBox="0 0 24 24"><title>asset-lesson_plan</title><path d="M5.5 0c-2.2 0-4 1.8-4 4s1.8 4 4 4 4-1.8 4-4-1.8-4-4-4zm-1 9h-5v.5c0 3.6 1.3 6.4 3.5 7.8V24h5v-6.7c2.2-1.4 3.5-4.2 3.5-7.8V9h-5m8.9-2.5c.1.1.2.1.4.1s.3 0 .4-.1c.2-.2.2-.5 0-.7l-1.6-1.6 1.6-1.6c.2-.2.2-.5 0-.7-.2-.2-.5-.2-.7 0l-1.6 1.6L12.3 2c-.2-.2-.5-.2-.7 0-.2.2-.2.5 0 .7l1.6 1.6-1.6 1.6c-.2.2-.2.5 0 .7.1.1.2.1.4.1s.3 0 .4-.1L13.9 5l1.5 1.5zM20.5 9c-1.4 0-2.5 1.1-2.5 2.5s1.1 2.5 2.5 2.5 2.5-1.1 2.5-2.5S21.9 9 20.5 9zm0 4c-.8 0-1.5-.7-1.5-1.5s.7-1.5 1.5-1.5 1.5.7 1.5 1.5-.7 1.5-1.5 1.5zm-.7-5.4c-.1.3 0 .5.2.7h.2c.2 0 .4-.1.5-.3L22 5.4V5l-.1-.1h-.1s-.1 0-.1-.1l-3-.6c-.4-.2-.6 0-.7.3 0 .2.1.5.4.6l1.4.3c-2.7 1.3-4.9 3.5-6.2 6.2-.1.2 0 .5.2.7.1 0 .1.1.2.1.2 0 .4-.1.4-.3 1.3-2.6 3.5-4.7 6.1-5.8l-.7 1.3z"/></svg>