<svg xmlns="http://www.w3.org/2000/svg" viewBox="0 0 1000 800"><title>asset-book</title><path d="M788.2 33.1l-280 141.8c-2.4 1.3-5.2 1.9-7.9 1.9s-5.5-.6-7.9-1.9l-280-141.8c-8.6-4.4-12.1-14.9-7.7-23.6 4.4-8.6 14.9-12.1 23.6-7.7l272.4 137.9L773 1.8c8.2-5.1 19-2.7 24.1 5.5 5.1 8.2 2.7 19-5.5 24.1-1.1.7-2.2 1.3-3.4 1.7zm-306.1 451V218L157.2 55.5c-8.6-4.4-19.2-.9-23.5 7.7-1.3 2.5-1.9 5.2-1.9 8v543.1c0 6.7 3.9 12.8 10 15.7l340.6 170V548.4m34.8.5v251l340.6-170c6.1-2.9 10-9 10-15.7V71.1c0-6.2-3.3-12-8.7-15.1-5.1-3.2-11.6-3.5-17-.8L517.2 217.7v267.1"/></svg>