<svg xmlns="http://www.w3.org/2000/svg" viewBox="0 0 24 24"><title>asset-reading_passage</title><path d="M23.5 1.4c-3.3 0-8.5.6-10.9 2.4v18.9c0-.7 1.2-1.4 2.4-1.9v-4.9c0-1.5 1.4-2.7 2.8-2.7 1.5 0 2.9 1.2 2.9 2.7v3.9c.9-.1 1.8-.1 2.9-.1.3 0 .5-.2.4-.5V1.9c0-.3-.2-.5-.5-.5zM21 9.7l-1.2-1.4c-.1-.1-.3-.2-.4-.2-.1 0-.2.1-.3.2L18 9.5V3c1-.2 2-.4 3-.4v7.1z"/><path d="M19.7 16c0-1-.8-1.9-1.9-1.9s-1.9.9-1.9 1.9v6.4c.9-.3 3.8-.7 3.8-.7V16zm-2.7.1c0-.5.4-.8.8-.8.5 0 .8.4.8.8v.6c0 .1-.1.3-.2.3h-1.2c-.1 0-.2-.2-.2-.3v-.6zM0 1.9V19c0 .3.2.5.5.5 6.1 0 10.9 1.7 10.9 3.1V3.8C9.6 2.2 4.9 1.4.5 1.4c-.3 0-.5.2-.5.5zM2.8 6c2.7.2 5.1.7 6.9 1.3.2.2.4.5.3.7-.1.2-.3.4-.5.4h-.2c-1.7-.6-4-1.1-6.6-1.3-.3-.1-.5-.3-.5-.6s.3-.5.6-.5zm0 3.2c2.7.2 5.1.7 6.9 1.3.3.1.4.4.3.7-.1.2-.3.3-.5.3h-.2c-1.7-.6-4-1.1-6.6-1.3-.3 0-.5-.3-.5-.6s.3-.5.6-.4zm0 3.1c2.7.2 5.1.7 6.9 1.3.3.1.4.4.3.7-.1.2-.3.3-.5.3h-.2c-1.7-.6-4-1.1-6.6-1.3-.3 0-.5-.3-.5-.6s.3-.5.6-.4zm0 3.1c2.7.2 5.1.7 6.9 1.3.3.1.4.4.3.7-.1.2-.3.3-.5.3h-.2c-1.7-.6-4-1.1-6.6-1.3-.3 0-.5-.3-.5-.6 0-.2.3-.4.6-.4z"/></svg>