<svg xmlns="http://www.w3.org/2000/svg" viewBox="0 0 24 24"><title>asset-overview_page</title><path d="M3.5 22c-.8 0-1.5-.7-1.5-1.5V4H.5c-.3 0-.5.2-.5.5v19c0 .3.2.5.5.5h19c.3 0 .5-.2.5-.5V22H3.5z"/><path d="M23.5 0h-20c-.3 0-.5.2-.5.5v20c0 .3.2.5.5.5h20c.3 0 .5-.2.5-.5V.5c0-.3-.2-.5-.5-.5zM13 17H7c-.3 0-.5-.2-.5-.5s.2-.5.5-.5h6c.3 0 .5.2.5.5s-.2.5-.5.5zm7-2H7c-.3 0-.5-.2-.5-.5s.2-.5.5-.5h13c.3 0 .5.2.5.5s-.2.5-.5.5zm0-2H7c-.3 0-.5-.2-.5-.5s.2-.5.5-.5h13c.3 0 .5.2.5.5s-.2.5-.5.5zm0-2H7c-.3 0-.5-.2-.5-.5s.2-.5.5-.5h13c.3 0 .5.2.5.5s-.2.5-.5.5zm0-2H7c-.3 0-.5-.2-.5-.5S6.7 8 7 8h13c.3 0 .5.2.5.5s-.2.5-.5.5zm0-2H7c-.3 0-.5-.2-.5-.5S6.7 6 7 6h13c.3 0 .5.2.5.5s-.2.5-.5.5zm0-2H7c-.3 0-.5-.2-.5-.5S6.7 4 7 4h13c.3 0 .5.2.5.5s-.2.5-.5.5z"/></svg>