<svg xmlns="http://www.w3.org/2000/svg" viewBox="0 0 79.3 79.74"><title>asset-bcr_constructed_response</title><path class="a" d="M78.83 17.64h-4.64l-10.11 10h4.65c.93 0 .27.06.27 1v13H55v3h14v4H55v3h14v17.41c0 .93.66-.41-.27-.41H62V55.58c0-.45-1 0-1.34-.32s-1.59.38-2 .38H41.79c-.93 0-.79-1-.79-.06v13.06H27V55.58c0-.45-.36 0-.68-.32s-.93.38-1.38.38H10v-7h17v-4H10v-16c0-.93.54-1 1.47-1h23.37l.4-1.73c0-.12.1-.39.14-.5s.1-.33.16-.46a3.59 3.59 0 0 1 1-1.13l6.53-6.18H1.37c-.93 0-1.37 0-1.37.89v60.62c0 .93.44.49 1.37.49h77.46c.93 0 .17.44.17-.49V18.53c0-.89.76-.89-.17-.89zM24 68.64H11.47c-.93 0-1.47 1.34-1.47.41V58.64h14v10zm35 0H43.47v-6H59v6zm0-6H45v-4h14v4zm-20.8-35.2l9.82 9.82-10.84 3.1a1.6 1.6 0 0 1-.46.07 1.69 1.69 0 0 1-1.62-2.15zm1.89-2.87l10.8 10.8L67 19.22 56.2 8.42zM75 8.91L66.58.49a1.68 1.68 0 0 0-2.38 0l-5.55 5.55 10.8 10.8L75 11.29a1.68 1.68 0 0 0 0-2.38z"/></svg>