<svg xmlns="http://www.w3.org/2000/svg" viewBox="0 0 63.33 80"><title>asset-section</title><path class="a" d="M13.34 16.66v-10h10.17a8.33 8.33 0 0 1 16.33 0h10.17v10H13.34zm48.33-10h-8.33v63.33H10V6.66H1.67A1.67 1.67 0 0 0 0 8.33v70A1.67 1.67 0 0 0 1.67 80h60a1.67 1.67 0 0 0 1.67-1.67v-70a1.67 1.67 0 0 0-1.67-1.67zM45 26.66H25a1.67 1.67 0 1 0 0 3.33h20a1.67 1.67 0 1 0 0-3.33zm0 10H25a1.67 1.67 0 1 0 0 3.33h20a1.67 1.67 0 1 0 0-3.33zm0 10H25a1.67 1.67 0 1 0 0 3.33h20a1.67 1.67 0 1 0 0-3.33zm0 10H25a1.67 1.67 0 1 0 0 3.33h20a1.67 1.67 0 1 0 0-3.33zm-26.67-30h-1.66a1.67 1.67 0 1 0 0 3.33h1.67a1.67 1.67 0 1 0 0-3.33zm0 10h-1.66a1.67 1.67 0 1 0 0 3.33h1.67a1.67 1.67 0 1 0 0-3.33zm0 10h-1.66a1.67 1.67 0 1 0 0 3.33h1.67a1.67 1.67 0 1 0 0-3.33zm0 10h-1.66a1.67 1.67 0 1 0 0 3.33h1.67a1.67 1.67 0 1 0 0-3.33z"/></svg>