<svg xmlns="http://www.w3.org/2000/svg" viewBox="0 0 80 80"><title>asset-subskill</title><path class="a" d="M75.57 54.23a15 15 0 0 0-15.48-3.63L49.48 39.99l10.61-10.61a15.11 15.11 0 0 0 15.48-3.63 14.63 14.63 0 0 0 3.22-16.31 1.67 1.67 0 0 0-2.75-.51l-5.92 6.15h-4.71V9.84l5.93-5.93a1.68 1.68 0 0 0-.53-2.73 15.09 15.09 0 0 0-20.19 18.7L40 30.53 29.41 19.91a15 15 0 0 0-3.63-15.48 14.62 14.62 0 0 0-16.3-3.22 1.68 1.68 0 0 0-.51 2.76l6.15 5.92v5.22H9.9L3.98 8.96a1.67 1.67 0 0 0-2.75.51 15 15 0 0 0 18.7 20l10.59 10.56-10.59 10.59A15.08 15.08 0 0 0 1.23 70.8a1.68 1.68 0 0 0 2.73.53l5.93-5.92h5.24v4.72l-6.15 5.92a1.68 1.68 0 0 0 .51 2.75 15 15 0 0 0 5.86 1.19 15 15 0 0 0 14.06-19.9l10.61-10.61 10.61 10.61a15.08 15.08 0 0 0 20.19 18.7 1.68 1.68 0 0 0 .53-2.73l-5.94-5.93v-4.74h4.74l5.93 5.92a1.67 1.67 0 0 0 2.73-.53 15 15 0 0 0-3.24-16.55z"/></svg>