<svg xmlns="http://www.w3.org/2000/svg" viewBox="0 0 24 24"><title>asset-interactive_map</title><path d="M6.8 11H2.3l-.6 6h4.7zm13.9 0h-4.3l.3 6h4.6zm-4.5 13l-.4-6H7.4L7 24zm-3.5-8.5c-.2.3-.7.5-1.1.5-.4 0-.9-.2-1.2-.5-.4-.5-1.5-1.9-2.6-3.6L7.4 17h8.3l-.3-5.1c-1.1 1.7-2.3 3.1-2.7 3.6zM6.4 18H1.6L1 23.4c0 .1 0 .3.1.4.1.1.3.2.4.2H6l.4-6zM18.2 5.6c0 1.2-.7 2.8-1.6 4.4h4L20 4.4c0-.2-.2-.4-.5-.4H18c.1.5.2 1 .2 1.6zM16.8 18l.4 6h4.3c.1 0 .3-.1.4-.2.1-.1.1-.2.1-.4l-.6-5.4h-4.6zM6.6 10C5.7 8.4 5 6.8 5 5.6c0-.6.1-1.1.2-1.6H3.5c-.3 0-.5.2-.5.4L2.4 10h4.2z"/><path d="M11.6 0C8.5 0 6 2.5 6 5.6c0 3 5 9 5.2 9.2.1.1.2.2.4.2.1 0 .3-.1.4-.2.2-.3 5.2-6.3 5.2-9.2 0-3.1-2.5-5.6-5.6-5.6zm0 8c-1.3 0-2.4-1.1-2.4-2.4 0-1.3 1.1-2.4 2.4-2.4 1.3 0 2.4 1.1 2.4 2.4C14 6.9 12.9 8 11.6 8z"/></svg>