<svg xmlns="http://www.w3.org/2000/svg" viewBox="0 0 24 24"><title>asset-activity</title><path d="M24 16.1l-.1-.1-12.7-4 12.7-3.7c.1-.1.1-.2.1-.3 0-.1-.1-.1-.1-.1-2.9-1.1-7.3-1.9-11.2.3-1.3.7-2.4 1.9-3.1 2.8-.8-1.5-1.5-3.3-1.5-5 0-2.2-1.8-4.1-4-4.1S0 3.7 0 5.9 1.8 10 4 10c1.3 0 2.5-.6 3.3-1.7.3 1.3.8 2.6 1.5 3.7-.7 1.1-1.2 2.4-1.5 3.7-1.3-1.8-3.8-2.2-5.6-.9-1.8 1.3-2.2 3.8-.9 5.6 1.3 1.8 3.8 2.2 5.6.9 1-.8 1.7-2 1.7-3.3 0-1.8.6-3.5 1.5-5.1 1.8 2.2 6.6 6.3 14.3 3.5.1 0 .1-.2.1-.3zM4.1 8.7c-1.4 0-2.6-1.2-2.6-2.6s1.2-2.6 2.6-2.6 2.6 1.2 2.6 2.6c0 1.4-1.2 2.6-2.6 2.6zm0 12c-1.4 0-2.6-1.2-2.6-2.6s1.2-2.6 2.6-2.6 2.6 1.2 2.6 2.6c0 1.4-1.2 2.5-2.6 2.6z"/></svg>