<svg xmlns="http://www.w3.org/2000/svg" viewBox="0 0 80 79.04"><title>asset-math_overview</title><path class="a" d="M33.43 41.5H4.14a4.1 4.1 0 0 0-4.08 4.09v29.29a4.1 4.1 0 0 0 4.09 4.08h29.29a4.1 4.1 0 0 0 4.08-4.09V45.58a4.1 4.1 0 0 0-4.09-4.08zm-8.4 24.67a1.53 1.53 0 0 1-2.17.06l-4-3.76-3.76 4a1.532 1.532 0 1 1-2.23-2.1l3.76-4-4-3.76a1.532 1.532 0 0 1 2.1-2.23l4 3.76 3.76-4a1.532 1.532 0 1 1 2.23 2.1l-3.76 4 4 3.76a1.53 1.53 0 0 1 .07 2.22zM46.57 37.5h29.29a4.1 4.1 0 0 0 4.08-4.09V4.12A4.1 4.1 0 0 0 75.85.04H46.56a4.1 4.1 0 0 0-4.08 4.09v29.29a4.1 4.1 0 0 0 4.09 4.08zm10.52-20.44h9.76a2.04 2.04 0 1 1 0 4.08h-9.77a2.035 2.035 0 1 1 0-4.07zm-53 20.5h29.29a4.1 4.1 0 0 0 4.08-4.09V4.18A4.1 4.1 0 0 0 33.37.1H4.08A4.1 4.1 0 0 0 0 4.19v29.29a4.1 4.1 0 0 0 4.17 4.09zm7.66-19.94h5.42V12.2a1.53 1.53 0 1 1 3.06 0v5.42h5.42a1.53 1.53 0 0 1 0 3.06h-5.37v5.42a1.53 1.53 0 1 1-3.06 0v-5.42h-5.43a1.53 1.53 0 0 1 0-3.05zm68.16 27.92a4.1 4.1 0 0 0-4.09-4.08H46.53a4.1 4.1 0 0 0-4.08 4.09v29.29a4.1 4.1 0 0 0 4.09 4.08h29.29a4.1 4.1 0 0 0 4.08-4.09zm-18.49 6.87a2 2 0 1 1-2 2 2 2 0 0 1 2.05-1.98zm0 15.72a2 2 0 1 1 2-2 2 2 0 0 1-1.95 2.02zm6.55-6.21H54.92a1.53 1.53 0 1 1 0-3.06h13.1a1.545 1.545 0 1 1 0 3.09z"/></svg>