<svg xmlns="http://www.w3.org/2000/svg" viewBox="0 0 80 76.04"><title>asset-theme</title><path class="a" d="M26.84 12.84l8.86-8.86a13.65 13.65 0 0 1 14.84-2.95A18.38 18.38 0 0 0 39.16 14.2a20.38 20.38 0 0 0-8.28-1.76 20.71 20.71 0 0 0-4.04.4zM70.59 31.7a18.57 18.57 0 0 1-9 5 20.37 20.37 0 0 1 1.75 8.26 20.62 20.62 0 0 1-.4 4.05l8.86-8.87a13.65 13.65 0 0 0 3-14.86 18.61 18.61 0 0 1-4.21 6.42zm8.83 31.87c-8.92 7.87-19.89 12.47-29.39 12.47a27.31 27.31 0 0 1-3.11-.17 24.39 24.39 0 0 1-16.33-9l-6.92 6.92a6.81 6.81 0 1 1-9.63-9.63l10.84-10.84a1.704 1.704 0 1 0-2.41-2.41L11.63 61.75a7 7 0 0 1-9.63 0 6.81 6.81 0 0 1 0-9.63l.35-.35a1.7 1.7 0 0 0 .16-.11l27.21-27.21a1.704 1.704 0 0 0-2.41-2.41L11.66 37.69a6.82 6.82 0 0 1 0-9.63l7.22-7.22a16.9 16.9 0 0 1 23.35-.6 15.27 15.27 0 1 1 15.15 13.55 15 15 0 0 1-1.77-.17 16.9 16.9 0 0 1-.6 23.34l-7.23 7.23a6.82 6.82 0 0 1-9.63 0L53.8 48.54a1.704 1.704 0 0 0-2.41-2.41l-15 15-3.37 3.37a20.83 20.83 0 0 0 14.3 8c9.21 1.06 20.66-3.35 29.86-11.47a1.7 1.7 0 1 1 2.23 2.54zM48.83 18.45a8.51 8.51 0 1 0 14.53-6 8.71 8.71 0 0 0-12 0 8.45 8.45 0 0 0-2.53 6zM34.5 50.93a1.7 1.7 0 0 0 2.41 0l9.63-9.63a1.7 1.7 0 0 0 0-2.41l-9.63-9.63a1.7 1.7 0 0 0-2.41 0l-9.63 9.63a1.7 1.7 0 0 0 0 2.41z"/></svg>