<svg xmlns="http://www.w3.org/2000/svg" viewBox="0 0 80 79.98"><title>asset-title_full_video</title><path class="a" d="M6.98 55.97a1.67 1.67 0 1 1-3 1.45 39.62 39.62 0 0 1-4-17.43 40.26 40.26 0 0 1 .8-8 1.67 1.67 0 0 1 3.26.66A37 37 0 0 0 3.3 40a36.35 36.35 0 0 0 3.68 15.97zm-2.29-31a1.67 1.67 0 0 0 2.22-.78A37 37 0 0 1 23.32 7.36a1.682 1.682 0 0 0-1.52-3A40.32 40.32 0 0 0 3.9 22.72a1.66 1.66 0 0 0 .79 2.22zm70.85 6a1.67 1.67 0 0 0 1.61 1.26 1.69 1.69 0 0 0 .41-.05 1.67 1.67 0 0 0 1.21-2A40.23 40.23 0 0 0 64.78 8.63a1.67 1.67 0 0 0-2.07 2.61 36.88 36.88 0 0 1 12.84 19.73zM31.72 4.27a36.87 36.87 0 0 1 23.39 2.31 1.67 1.67 0 1 0 1.38-3 40.3 40.3 0 0 0-25.51-2.53 1.67 1.67 0 0 0 .75 3.21zm31.15 64.38a36.3 36.3 0 0 1-22.09 8 1.67 1.67 0 0 0 0 3.33 39.61 39.61 0 0 0 24.1-8.73 1.67 1.67 0 1 0-2-2.6zm-31 7.11a36.86 36.86 0 0 1-20-12.28 1.67 1.67 0 1 0-2.56 2.14 40.22 40.22 0 0 0 21.86 13.4 1.59 1.59 0 0 0 .37 0 1.67 1.67 0 0 0 .34-3.26zm46.45-35.92h1.67a1.6 1.6 0 0 0-1.66-1.59 1.73 1.73 0 0 0-1.67 1.74 36.35 36.35 0 0 1-7.53 22.26 1.67 1.67 0 1 0 2.65 2 39.68 39.68 0 0 0 8.21-24.34zM66.65 40a26.67 26.67 0 1 1-26.67-26.67 26.7 26.7 0 0 1 26.68 26.66zm-11.91 0a1.67 1.67 0 0 0-.87-1.47L32.31 26.86a1.67 1.67 0 0 0-2.46 1.47v23.33a1.67 1.67 0 0 0 1.67 1.67 1.69 1.69 0 0 0 .79-.2l21.56-11.67a1.67 1.67 0 0 0 .91-1.47z"/></svg>