<svg xmlns="http://www.w3.org/2000/svg" viewBox="0 0 24 24"><title>asset-general_graphic_organizer</title><path d="M19.9 9.1l-.1.3c-.4 2.3-1.9 4.4-3.9 5.5l-.1-.3c-.4-2.2-1.7-4.2-3.6-5.4l-.2-.1c2.3-1.3 5.2-1.4 7.6-.2l.3.2c.1-.4.1-.8.1-1.1 0-4.4-3.6-8-8-8S4 3.6 4 8c0 .3 0 .7.1 1l.3-.2c2.4-1.1 5.3-1 7.6.3l-.2.2c-1.9 1.2-3.2 3.2-3.6 5.4l-.1.3c-2.1-1.2-3.6-3.3-4-5.6v-.3C1.6 10.5 0 13.1 0 16c0 4.4 3.6 8 8 8 1.4 0 2.8-.4 4-1.1l-.2-.2C9.4 21.3 8 18.8 8 16c0-.3 0-.7.1-1l.3.2c1.1.5 2.3.8 3.6.8s2.5-.3 3.6-.9l.3-.2c.1.4.1.7.1 1 0 2.8-1.4 5.3-3.7 6.8l-.3.2c1.2.7 2.6 1.1 4 1.1 4.4 0 8-3.6 8-8 0-2.9-1.6-5.5-4.1-6.9z"/></svg>