<svg xmlns="http://www.w3.org/2000/svg" viewBox="0 0 80 80"><title>asset-board</title><path class="a" d="M80 16.67V8.34A8.34 8.34 0 0 0 71.67.01H8.34A8.34 8.34 0 0 0 .01 8.34v8.33h80zm-46.67-10A3.33 3.33 0 1 1 30 10a3.34 3.34 0 0 1 3.34-3.33zm-10 0A3.33 3.33 0 1 1 20 10a3.34 3.34 0 0 1 3.34-3.33zm-10 0A3.33 3.33 0 1 1 10 10a3.34 3.34 0 0 1 3.34-3.33zM0 20v51.67A8.34 8.34 0 0 0 8.33 80h63.34A8.34 8.34 0 0 0 80 71.67V20H0zm23.33 51.67a1.67 1.67 0 0 1-1.67 1.67h-10a1.67 1.67 0 0 1-1.67-1.67V45a1.67 1.67 0 0 1 1.67-1.67h10A1.67 1.67 0 0 1 23.33 45v26.67zm46.67 0a1.67 1.67 0 0 1-1.67 1.67H31.67A1.67 1.67 0 0 1 30 71.67v-10A1.67 1.67 0 0 1 31.67 60h36.67a1.67 1.67 0 0 1 1.67 1.67v10zM70 55a1.67 1.67 0 0 1-1.67 1.67H31.67A1.67 1.67 0 0 1 30 55V45a1.67 1.67 0 0 1 1.67-1.67h36.67A1.67 1.67 0 0 1 70.01 45v10zm0-16.67A1.67 1.67 0 0 1 68.33 40H11.67A1.67 1.67 0 0 1 10 38.33v-10a1.67 1.67 0 0 1 1.67-1.67h56.67a1.67 1.67 0 0 1 1.67 1.67v10z"/></svg>