<svg xmlns="http://www.w3.org/2000/svg" viewBox="0 0 80 63.33"><title>asset-techbook_unit</title><path class="a" d="M70 20h10v35a8.34 8.34 0 0 1-8.33 8.33H8.33A8.34 8.34 0 0 1 0 55V20h49.94l.09 35.62a.46.46 0 0 0 .79.33l9.14-8.81 9.15 8.81a.46.46 0 0 0 .79-.33zM80 8.33v8.33H0V8.33A8.34 8.34 0 0 1 8.33 0h63.33A8.34 8.34 0 0 1 80 8.33zM16.67 10a3.33 3.33 0 1 0-3.33 3.33A3.34 3.34 0 0 0 16.66 10zm10 0a3.33 3.33 0 1 0-3.33 3.33A3.34 3.34 0 0 0 26.66 10zm10 0a3.33 3.33 0 1 0-3.33 3.33A3.34 3.34 0 0 0 36.66 10z"/></svg>