<svg xmlns="http://www.w3.org/2000/svg" viewBox="0 0 80 70.63"><title>asset-review_sheet</title><path class="a" d="M8.41 0a8.41 8.41 0 1 0 8.41 8.41A8.42 8.42 0 0 0 8.41 0zm20.42 13.21h47.81a3.365 3.365 0 1 0 0-6.73H28.83a3.365 3.365 0 1 0 0 6.73zM8.41 26.91a8.41 8.41 0 1 0 8.41 8.41 8.42 8.42 0 0 0-8.41-8.41zm68.23 6.48H28.83a3.365 3.365 0 1 0 0 6.73h47.81a3.365 3.365 0 1 0 0-6.73zM8.41 53.82a8.41 8.41 0 1 0 8.41 8.41 8.42 8.42 0 0 0-8.41-8.41zm68.23 6.48H28.83a3.365 3.365 0 1 0 0 6.73h47.81a3.365 3.365 0 1 0 0-6.73z"/></svg>