<svg xmlns="http://www.w3.org/2000/svg" viewBox="0 0 80 80"><title>asset-resource_page_content_collection</title><path class="a" d="M71.7 0H8.33A8.34 8.34 0 0 0 0 8.33v8.33h80V8.33A8.34 8.34 0 0 0 71.7 0zM13.37 13.33A3.33 3.33 0 1 1 16.7 10a3.34 3.34 0 0 1-3.37 3.34zm10 0A3.33 3.33 0 1 1 26.7 10a3.34 3.34 0 0 1-3.37 3.34zm10 0A3.33 3.33 0 1 1 36.7 10a3.34 3.34 0 0 1-3.37 3.34zM.04 71.66a8.34 8.34 0 0 0 8.33 8.33H71.7a8.34 8.34 0 0 0 8.33-8.33V19.99h-80v51.67zm70-16.67v13.33a1.67 1.67 0 0 1-1.67 1.67h-20a1.67 1.67 0 0 1-1.67-1.67V51.65a1.67 1.67 0 0 1 1.67-1.67h5a1.67 1.67 0 0 1 1.07.39l3.49 2.94h10.43A1.67 1.67 0 0 1 70 55zM33.37 43.32a5 5 0 0 1 3.47 1.41l21.61-12.26a5.1 5.1 0 0 1-.08-.83 5.05 5.05 0 1 1 1.71 3.74L38.31 47.72a5 5 0 1 1-4.98-4.38zm-23.33-15a1.67 1.67 0 0 1 1.67-1.67h10a1.67 1.67 0 0 1 1.67 1.67v8.33H10v-8.33zm0 11.67h13.33v6.67H10v-6.67zm0 10h13.33v6.67H10v-6.67zm0 10h13.33v8.33a1.67 1.67 0 0 1-1.67 1.67h-10a1.67 1.67 0 0 1-1.67-1.67v-8.33z"/></svg>