<svg xmlns="http://www.w3.org/2000/svg" viewBox="0 0 24 24"><title>calendar</title><path d="M7.5 0h-3c-.3 0-.5.2-.5.5v4c0 .3.2.5.5.5h3c.3 0 .5-.2.5-.5v-4c0-.3-.2-.5-.5-.5zm12 0h-3c-.3 0-.5.2-.5.5v4c0 .3.2.5.5.5h3c.3 0 .5-.2.5-.5v-4c0-.3-.2-.5-.5-.5z"/><path d="M24 7V2.5c0-.3-.2-.5-.5-.5H21v2.5c0 .8-.7 1.5-1.5 1.5h-3c-.8 0-1.5-.7-1.5-1.5V2H9v2.5C9 5.3 8.3 6 7.5 6h-3C3.7 6 3 5.3 3 4.5V2H.5c-.3 0-.5.2-.5.5V7h24zM0 8v15.5c0 .3.2.5.5.5h23c.3 0 .5-.2.5-.5V8H0zm17.1 6.6l-2.6 2.2 1.3 3.5c.1.2 0 .4-.2.5-.1.1-.2.1-.3.1-.1 0-.2 0-.3-.1l-3-2.2-3.1 2.2c-.2.1-.4.1-.6 0-.2-.1-.2-.4-.2-.5l1.3-3.5-2.6-2.2c-.2-.1-.2-.3-.1-.5s.2-.3.5-.3h3.5l.9-3c.1-.2.2-.3.5-.3.2 0 .4.1.5.3l.9 3H17c.2 0 .4.1.4.3-.1.2-.2.4-.3.5z"/></svg>