<svg xmlns="http://www.w3.org/2000/svg" viewBox="0 0 71.81 80"><title>asset-virtual_lab</title><path class="a" d="M46.28 46.46L25.75 29.25a1.49 1.49 0 1 0-1.91 2.28l3.42 2.87-13.39 16a8.93 8.93 0 0 0-1.54 8.79l-3.64 4.34a1.49 1.49 0 0 0 .18 2.1l4.56 3.82a1.49 1.49 0 0 0 2.1-.18l3.64-4.34a8.93 8.93 0 0 0 8.38-3.05l13.39-16 3.42 2.87a1.494 1.494 0 1 0 1.92-2.29zM22.99 58.02a3 3 0 0 1-4.56-3.82l10.52-12.54a1.49 1.49 0 0 1 2.1-.18l2.28 1.91a1.49 1.49 0 0 1 .18 2.1zm9.05-29.32l2.86-3.41A8.939 8.939 0 1 1 48.58 36.8l-2.86 3.41a1.49 1.49 0 0 1-2.1.18l-11.4-9.56a1.49 1.49 0 0 1-.17-2.09zM9.76 71.07c-.16 1.71-.67 5.84-1.89 7.29a4.465 4.465 0 0 1-6.84-5.74c1.22-1.46 5.2-2.67 6.85-3.13a1.55 1.55 0 0 1 1.89 1.62zm53.08-54.61a16.92 16.92 0 0 1 1.84 6.35l-3.07.27a13.86 13.86 0 0 0-1.51-5.19c-.06-.12-.14-.23-.2-.35-.15-.28-.3-.55-.48-.82a13.88 13.88 0 0 0-2.41-2.77l-.3-.28c-.13-.11-.27-.2-.4-.31a13.74 13.74 0 0 0-7-2.85h-.23c-.37 0-.75-.06-1.13-.07s-.92 0-1.38.05l-.27-3.07a17 17 0 0 1 5 .29l.21.05c.47.1.93.22 1.38.36s.6.22.9.33.43.15.64.24c.37.16.72.34 1.08.52l.41.2c.38.21.75.45 1.12.69l.29.18c.28.19.55.41.82.62s.35.25.52.39c.17.14.33.31.49.46s.51.45.74.69.25.29.38.42.5.54.73.82.32.45.49.67.33.44.48.67.46.75.67 1.14c.08.1.14.18.19.3zm9 4.63l-3.07.27A20 20 0 0 0 47.08 3.17L46.81.1a23.12 23.12 0 0 1 25 20.97zm-14.26 3.37l-3.07.27a7.71 7.71 0 0 0-8.34-7l-.27-3.07a10.8 10.8 0 0 1 11.68 9.8zm-8.78 4.6a3.85 3.85 0 1 1-.48-5.42 3.85 3.85 0 0 1 .47 5.46z"/></svg>