<svg width="24" height="24" viewBox="0 0 24 24" xmlns="http://www.w3.org/2000/svg"><title>global-nav-board-builder</title><path d="M12.009 1C8.813 1 5.817 2.198 3.52 4.495a11.995 11.995 0 0 0 0 16.977c.5.4 1.099.7 1.798.7.699 0 1.298-.3 1.797-.7 1-.998 1-2.596 0-3.495-.2-.2-.2-.5 0-.699.2-.2.5-.2.7 0l4.194 4.194c1.098 1.099 2.596 1.798 4.194 1.798 1.598 0 3.096-.6 4.195-1.798a11.906 11.906 0 0 0 .1-16.977C18.2 2.198 15.204 1 12.007 1zm-.7 6.99c-.598.6-1.497.6-2.096 0-.6-.599-.6-1.497 0-2.097.599-.599 1.498-.599 2.097 0 .599.6.599 1.498 0 2.098zm3.896-1.098c.599-.6 1.498-.6 2.097 0s.599 1.498 0 2.097c-.6.6-1.498.6-2.097 0-.6-.5-.6-1.498 0-2.097zM17.7 19.275c-.799.8-1.997.8-2.796 0-.799-.799-.799-1.997 0-2.796.799-.799 1.997-.799 2.796 0 .7.8.7 1.997 0 2.796zm1.997-5.592c-.399.4-.998.4-1.398 0-.4-.4-.4-.999 0-1.398.4-.4.999-.4 1.398 0 .4.3.4.998 0 1.398z"/></svg>