<svg width="24" height="24" viewBox="0 0 24 24" xmlns="http://www.w3.org/2000/svg"><title>global-nav-classrooms</title><path d="M3.5 13C4.879 13 6 11.878 6 10.5S4.879 8 3.5 8A2.503 2.503 0 0 0 1 10.5C1 11.878 2.122 13 3.5 13zM0 14.5c0 2.389.16 4.589 2 5.313V24h4v-4.187c1.84-.725 2-2.925 2-5.313V14H0v.5zM19.5 13c1.379 0 2.5-1.122 2.5-2.5S20.879 8 19.5 8a2.503 2.503 0 0 0-2.5 2.5c0 1.378 1.122 2.5 2.5 2.5zM16 14v.5c0 2.389.16 4.589 2 5.313V24h4v-4.187c1.84-.725 2-2.925 2-5.313V14h-8zm-4.5-9C12.879 5 14 3.878 14 2.5S12.879 0 11.5 0A2.503 2.503 0 0 0 9 2.5C9 3.878 10.122 5 11.5 5zM16 6H8v.5c0 2.389.16 4.589 2 5.313V16h4v-4.187c1.84-.725 2-2.925 2-5.313V6z"/></svg>