<svg width="24" height="24" viewBox="0 0 24 24" xmlns="http://www.w3.org/2000/svg"><title>global-nav-assessment</title><path d="M10.225 8.792a1.373 1.373 0 0 1 1.376-1.367c.762 0 1.389.619 1.389 1.382v5.53l4.099 1.382c.91.293 1.112 1.385.897 2.32l-.945 5.08h-7.36l-3.701-5.54c-.419-.643-.419-1.851.502-1.851.922 0 1.9.377 3.743 3.218V8.792zm-6.47.504a.919.919 0 0 1-.652-.27L1.279 7.202A.922.922 0 1 1 2.583 5.9L3.64 6.956l3.994-5.57A.922.922 0 0 1 9.131 2.46L4.503 8.91a.917.917 0 0 1-.748.385zm16.528-4.147l2.575-2.574a.923.923 0 1 0-1.305-1.305L18.98 3.846 16.406 1.27a.923.923 0 0 0-1.304 1.306l2.575 2.574-2.575 2.573a.92.92 0 0 0 0 1.303.916.916 0 0 0 1.303 0l2.574-2.573 2.574 2.573a.916.916 0 0 0 1.303 0 .92.92 0 0 0 0-1.303L20.283 5.15v-.001z"/></svg>