<svg width="24" height="24" viewBox="0 0 24 24" xmlns="http://www.w3.org/2000/svg"><title>global-nav-science-techbook</title><path d="M23.491 12.168l-2.828-2.829a.514.514 0 0 0-.707 0l-1.768 1.767 3.536 3.537 1.767-1.769a.497.497 0 0 0 0-.706m-9.192-8.485a.499.499 0 0 0 0-.707L11.47.146a.5.5 0 0 0-.707 0l-1.767 1.77 3.535 3.537 1.768-1.77zm-1.768 13.081a3.972 3.972 0 0 1-2.829 1.172 3.973 3.973 0 0 1-2.828-1.172 4.006 4.006 0 0 1 0-5.657l4.95-4.95-3.536-3.536-5.656 5.658c-3.509 3.508-3.509 9.219 0 12.728a8.945 8.945 0 0 0 6.364 2.636 8.94 8.94 0 0 0 6.363-2.636l5.657-5.657-3.535-3.536-4.95 4.95z" fill-rule="evenodd"/></svg>