<svg width="24" height="24" viewBox="0 0 24 24" xmlns="http://www.w3.org/2000/svg"><title>global-nav-builder-tools</title><path d="M11.972 0C7.488 0 4 3.6 4 8.1c0 4.3 3.687 7.8 7.673 8.1v-4.1l-.697.6c-.2.2-.498.2-.698 0l-1.495-1.4a.485.485 0 0 1 0-.7c.2-.2.499-.2.698 0l1.096 1.1 1.096-1.1s.1-.1.2-.1h.398c.1 0 .1.1.2.1l1.096 1.1 1.096-1.1c.2-.2.498-.2.698 0 .199.2.199.5 0 .7l-1.695 1.4c-.1.1-.199.1-.299.1-.1 0-.1 0-.199-.1l-.498-.6v4.1c3.986-.2 7.474-3.8 7.474-8.1 0-4.4-3.787-8.1-8.172-8.1zm3.289 17H8.584c-.299 0-.498.2-.498.5s.2.5.498.5h6.677c.299 0 .498-.2.498-.5s-.299-.5-.498-.5zm0 2H8.584c-.299 0-.498.2-.498.5s.2.5.498.5h6.677c.299 0 .498-.2.498-.5s-.299-.5-.498-.5zm0 2H8.584c-.299 0-.498.2-.498.5s.2.5.498.5H9.68c.2 1 1.096 1.9 2.193 1.9 1.096 0 1.993-.9 2.192-1.9h1.096c.3 0 .499-.2.499-.5.1-.3-.2-.5-.4-.5z"/></svg>