<svg width="24" height="24" viewBox="0 0 24 24" xmlns="http://www.w3.org/2000/svg"><title>global-nav-my-content</title><path d="M9.706 3.92h13.79c.277 0 .5.215.5.48v16.32a.49.49 0 0 1-.5.48H.5a.49.49 0 0 1-.5-.48V2.48A.49.49 0 0 1 .5 2h7c.133 0 .26.051.354.14l1.852 1.78zm7.56 7.507a.217.217 0 0 0-.209-.147h-3.582l-1.269-3.372a.22.22 0 0 0-.415-.002l-1.268 3.372H6.939a.221.221 0 0 0-.208.147c-.03.09 0 .188.073.246l2.957 2.543-1.271 3.812a.22.22 0 0 0 .339.246l3.169-2.322 3.17 2.324c.076.059.182.06.259.002a.222.222 0 0 0 .078-.248l-1.271-3.812 2.959-2.543a.219.219 0 0 0 .073-.246z"/></svg>