<svg width="24" height="24" viewBox="0 0 24 24" xmlns="http://www.w3.org/2000/svg"><title>global nav/global-nav-search</title><path d="M23.581 21.545l-7.066-7.103A9.002 9.002 0 0 0 18.24 9.12C18.24 4.091 14.149 0 9.12 0 4.091 0 0 4.091 0 9.12c0 5.028 4.091 9.12 9.12 9.12 1.92 0 3.809-.621 5.365-1.756l7.054 7.09a1.434 1.434 0 0 0 2.036.006c.563-.56.564-1.474.006-2.035zM9.119 15.359a6.247 6.247 0 0 1-6.24-6.239 6.247 6.247 0 0 1 6.24-6.24c3.44 0 6.24 2.799 6.24 6.24a6.246 6.246 0 0 1-6.24 6.239z" fill-rule="evenodd"/></svg>