<svg width="24" height="24" viewBox="0 0 24 24" xmlns="http://www.w3.org/2000/svg"><title>global-nav-science-elementary</title><path d="M4.27 8.998h15.46a9.554 9.554 0 0 0-3.341-2.915 5.983 5.983 0 0 0 1.264-2.099A1.995 1.995 0 0 0 17.5 0a2 2 0 0 0-2 2 2 2 0 0 0 1.143 1.8c-.268.7-.692 1.33-1.239 1.842A9.399 9.399 0 0 0 12 5a9.403 9.403 0 0 0-3.405.642A4.954 4.954 0 0 1 7.357 3.8 1.998 1.998 0 0 0 8.498 2c0-1.104-.897-2-2-2s-2 .896-2 2c0 1.051.817 1.904 1.849 1.984.271.78.701 1.494 1.263 2.099a9.554 9.554 0 0 0-3.34 2.915m-.725 1.192v-.001c.032-.064.059-.13.092-.191H11.5v13.976a9.507 9.507 0 0 1-7.803-4.868l-1.814.885a.5.5 0 0 1-.439-.9l1.811-.881a9.428 9.428 0 0 1-.73-3.212H.5a.5.5 0 1 1 0-1h2.025c.05-.992.257-1.97.614-2.896l-1.849-.821a.502.502 0 0 1 .025-.925.499.499 0 0 1 .382.011l1.848.823zM23.5 13.998v.001a.5.5 0 1 1 0 1h-2.025a9.442 9.442 0 0 1-.731 3.21l1.811.883a.5.5 0 1 1-.439.899l-1.814-.885a9.503 9.503 0 0 1-7.802 4.869V9.999h7.862c.034.061.06.127.092.19l1.849-.823a.501.501 0 0 1 .406.914l-1.849.822c.356.927.564 1.904.615 2.896H23.5z"/></svg>