<svg width="24" height="24" viewBox="0 0 24 24" xmlns="http://www.w3.org/2000/svg"><title>global-nav-myde copy</title><path d="M19.126 5.61c1.17 0 2.118-1.007 2.118-2.25s-.947-2.25-2.117-2.25-2.119 1.007-2.119 2.25.95 2.251 2.118 2.251zM7.051 12.144H2.546v1.714h5.143l-.638-1.714zm3.847-5.584L9.669 8.274h-7V6.559h8.229zm8.197 1.548h3.861c.482 0 .873.418.873.954 0 .516-.391.934-.873.934h-4.23a.842.842 0 0 1-.616-.274l-.95-1.018-4.247 3.694 1.541 3.146c.516.964.16 1.596-.617 1.596H5.894c-.483 0-.874-.418-.874-.954 0-.516.391-.934.873-.934h5.794L9.201 12.59a.982.982 0 0 1-.016-1.305l5.057-5.704-.561-.601-3.679.57c-.477.074-.92-.28-.992-.81-.07-.51.262-.984.74-1.058l4.12-.638a.838.838 0 0 1 .743.264l4.482 4.8zM8.483 21.434l2.466-3.194h2.122l-3.527 4.609c-.29.386-.76.386-1.05 0l-.01-.014c-.29-.387-.29-1.014 0-1.4zM7.371 11.226L0 11.286V9.57h8.565l-1.194 1.655z"/></svg>