<svg width="24" height="24" viewBox="0 0 24 24" xmlns="http://www.w3.org/2000/svg"><title>global-nav-notebook</title><path d="M21.709 1.92a.48.48 0 0 1 .482.48v14.4c0 .128-.052.25-.143.34l-5.777 5.76a.481.481 0 0 1-.341.14H1.482A.48.48 0 0 1 1 22.56V2.4a.48.48 0 0 1 .482-.48h1.444V4.8c0 .795.647 1.44 1.445 1.44s1.445-.645 1.445-1.44V1.92h1.926V4.8c0 .795.647 1.44 1.445 1.44s1.445-.645 1.445-1.44V1.92h1.927V4.8c0 .795.646 1.44 1.444 1.44.798 0 1.445-.645 1.445-1.44V1.92h1.927V4.8c0 .795.646 1.44 1.444 1.44.798 0 1.445-.645 1.445-1.44V1.92h1.445zm-11.7 14.26a.479.479 0 0 0-.005-.673.483.483 0 0 0-.675-.006c-.345.34-.9.34-1.246 0a1.85 1.85 0 0 0-2.607 0l-.963.96a.479.479 0 0 0 .006.673.483.483 0 0 0 .675.006l.963-.96a.885.885 0 0 1 1.245 0 1.85 1.85 0 0 0 2.608 0zm5.098-4.8a1.85 1.85 0 0 0 2.608 0l.963-.96a.479.479 0 0 0-.006-.673.483.483 0 0 0-.675-.006l-.963.96a.889.889 0 0 1-1.246 0 1.85 1.85 0 0 0-2.607 0c-.345.34-.9.34-1.246 0a1.85 1.85 0 0 0-2.607 0c-.345.34-.9.34-1.246 0a1.85 1.85 0 0 0-2.607 0l-.963.96a.479.479 0 0 0 .006.673.483.483 0 0 0 .675.006l.963-.96a.884.884 0 0 1 1.245 0 1.85 1.85 0 0 0 2.608 0 .884.884 0 0 1 1.245 0 1.85 1.85 0 0 0 2.608 0 .884.884 0 0 1 1.245 0zm1.304 10.02l4.135-4.121h-4.135V21.4zM4.371 5.28a.48.48 0 0 1-.481-.48V.48a.48.48 0 0 1 .963 0V4.8a.48.48 0 0 1-.482.48zm4.816 0a.48.48 0 0 1-.481-.48V.48a.48.48 0 0 1 .963 0V4.8a.48.48 0 0 1-.482.48zm4.816 0a.48.48 0 0 1-.481-.48V.48a.48.48 0 0 1 .963 0V4.8a.48.48 0 0 1-.482.48zm4.816 0a.48.48 0 0 1-.481-.48V.48a.48.48 0 0 1 .963 0V4.8a.48.48 0 0 1-.482.48z"/></svg>