<svg width="24" height="24" viewBox="0 0 24 24" xmlns="http://www.w3.org/2000/svg"><title>global-nav-assignments</title><path d="M22.216 6.1L16.12.1c-.102 0-.204-.1-.407-.1H2.508C2.305 0 2 .2 2 .5v23c0 .3.203.5.508.5H21.81c.304 0 .507-.2.507-.5v-17c0-.1 0-.3-.101-.4zM5.86 10.2l2.946-2.9s.204-.1.305-.1c.102 0 .305.1.406.1L11.143 9l-3.25 3.2-2.033-2zm2.743 2.7l3.251-3.2 4.876 4.8-3.25 3.2-4.877-4.8zm9.55 6.2c-.102.1-.305.2-.509.1l-3.25-.9 2.946-2.9.914 3.2c0 .2 0 .4-.102.5zm-2.337-13V1.5l4.673 4.6h-4.673z"/></svg>