<svg width="24" height="24" viewBox="0 0 24 24" xmlns="http://www.w3.org/2000/svg"><title>global-nav-myde</title><path d="M.003 19.328c.002 1.365 1.092 2.471 2.438 2.473h18.536c1.345-.002 2.436-1.108 2.438-2.473V8.938H0v10.39h.003zm15.609-7.918a.495.495 0 0 1 .142-.351.482.482 0 0 1 .346-.144h2.927c.27 0 .49.222.49.495v2.97a.492.492 0 0 1-.49.495H16.1a.492.492 0 0 1-.488-.496V11.41zm0 4.95a.495.495 0 0 1 .142-.352.482.482 0 0 1 .346-.144h2.927c.27 0 .49.222.49.495v2.97a.492.492 0 0 1-.49.495H16.1a.492.492 0 0 1-.488-.496V16.36zm-5.854-4.95c0-.131.05-.258.142-.351a.482.482 0 0 1 .347-.144h2.927c.27 0 .488.222.488.495v2.97a.492.492 0 0 1-.488.495h-2.927a.492.492 0 0 1-.489-.496V11.41zm0 4.95a.5.5 0 0 1 .142-.352.482.482 0 0 1 .347-.144h2.927c.27 0 .488.222.488.495v2.97a.492.492 0 0 1-.488.495h-2.927a.492.492 0 0 1-.489-.496V16.36zm-5.854-4.95c0-.131.05-.258.143-.351a.482.482 0 0 1 .346-.144H7.32c.27 0 .489.222.489.495v2.97a.492.492 0 0 1-.489.495H4.393a.492.492 0 0 1-.489-.496V11.41zm0 4.95c0-.132.05-.259.143-.352a.482.482 0 0 1 .346-.144H7.32c.27 0 .489.222.489.495v2.97a.492.492 0 0 1-.489.495H4.393a.492.492 0 0 1-.489-.496V16.36zM20.98 3H2.444C1.098 3.002.007 4.108.006 5.473v2.49H23.42V5.492a2.494 2.494 0 0 0-.71-1.76A2.424 2.424 0 0 0 20.98 3zM3.907 6.957a.982.982 0 0 1-.974-.988c0-.546.436-.989.974-.989.539 0 .975.443.975.989a.996.996 0 0 1-.286.702.968.968 0 0 1-.692.29l.003-.004zm2.927 0a.982.982 0 0 1-.974-.988c0-.546.436-.989.974-.989s.975.443.975.989a.996.996 0 0 1-.286.702.968.968 0 0 1-.692.29l.003-.004zm2.927 0a.982.982 0 0 1-.975-.988c0-.546.437-.989.975-.989s.975.443.975.989a.996.996 0 0 1-.286.702.968.968 0 0 1-.692.29l.003-.004z"/></svg>