<svg width="24" height="24" viewBox="0 0 24 24" xmlns="http://www.w3.org/2000/svg"><title>global-nav-ss</title><path d="M9.635 17C4.873 17 1 13.187 1 8.5 1 3.812 4.873 0 9.635 0c4.761 0 8.635 3.812 8.635 8.5 0 4.688-3.874 8.5-8.635 8.5zm9.202.128c-2.072 1.987-4.72 3.09-7.431 3.317v.605c1.99.179 3.892.887 5.504 2.05a.496.496 0 0 1 .183.56.524.524 0 0 1-.496.34H4.13a.52.52 0 0 1-.496-.342.492.492 0 0 1 .183-.56 11.12 11.12 0 0 1 5.504-2.048v-.605a12.155 12.155 0 0 1-7.045-2.982l-.386.372a.533.533 0 0 1-.737 0 .486.486 0 0 1 0-.706l1.472-1.417a.538.538 0 0 1 .737 0 .487.487 0 0 1 0 .708l-.35.338C7.3 20.5 13.957 20.4 18.098 16.421a10.213 10.213 0 0 0 .35-14.488l-.35.337a.529.529 0 0 1-.368.146.522.522 0 0 1-.367-.146.489.489 0 0 1 0-.709L18.836.146a.538.538 0 0 1 .737 0 .49.49 0 0 1 0 .707l-.389.372a11.185 11.185 0 0 1-.347 15.903z"/></svg>