<svg width="24" height="24" viewBox="0 0 24 24" xmlns="http://www.w3.org/2000/svg"><title>global-nav-professional-learning</title><path d="M6 8c2.206 0 4-1.794 4-4S8.206 0 6 0 2 1.794 2 4s1.794 4 4 4zm6 1H0v.5c0 4.828 2.083 6.923 3.5 7.789V24h5v-6.711C9.917 16.423 12 14.327 12 9.5V9zm3.959-2.396a.498.498 0 0 0 .854-.354.5.5 0 0 0-.147-.354l-1.553-1.553 1.553-1.552a.5.5 0 1 0-.707-.708l-1.553 1.553-1.553-1.553a.5.5 0 1 0-.707.708l1.553 1.552-1.553 1.553a.5.5 0 1 0 .707.708l1.553-1.553 1.553 1.553zm5.083 6.459a1.501 1.501 0 1 1-.002-3.002 1.501 1.501 0 0 1 .002 3.002zm0-4a2.503 2.503 0 0 0-2.5 2.5c0 1.377 1.122 2.5 2.5 2.5s2.5-1.123 2.5-2.5c0-1.379-1.122-2.5-2.5-2.5zm-.657-1.413a.5.5 0 1 0 .908.418l1.2-2.614c.007-.013.005-.026.009-.039a.502.502 0 0 0 .034-.159c0-.027-.006-.052-.01-.08-.005-.03-.002-.06-.012-.09-.005-.014-.014-.023-.02-.035-.004-.01-.003-.022-.007-.032-.01-.017-.025-.026-.035-.04a.467.467 0 0 0-.265-.203c-.016-.005-.03-.018-.046-.02l-2.998-.62a.5.5 0 1 0-.202.978l1.418.293c-2.682 1.3-4.915 3.472-6.25 6.16a.5.5 0 0 0 .897.444 12.618 12.618 0 0 1 6.06-5.844l-.681 1.483z"/></svg>