<svg width="24" height="24" viewBox="0 0 24 24" xmlns="http://www.w3.org/2000/svg"><title>global-nav-builder-tools</title><path d="M13.756 9.222a.487.487 0 0 1-.488.455H9.356a.484.484 0 0 1-.484-.46.485.485 0 0 1-.484.46H5.445a.489.489 0 0 1-.391-.193l-1.12-1.478L6.56 5.84l2.169 3.007a.48.48 0 0 1 .139.301V.484c0-.267.218-.484.488-.484h3.912c.27 0 .49.217.49.484v1.451h-2.446a.486.486 0 0 0-.489.484c0 .268.22.484.49.484h2.444v.968h-1.222a.486.486 0 0 0-.49.484c0 .267.22.484.49.484h1.222v.967h-2.445a.486.486 0 0 0-.489.484c0 .268.22.484.49.484h2.444v.968h-1.222a.486.486 0 0 0-.49.484c0 .267.22.484.49.484h1.222v.445a.48.48 0 0 1 .09-.242l.24-.335a.471.471 0 0 0 .122-.172l1.931-2.7a1.923 1.923 0 0 1-.395-.58c-.207-.49-.195-1.056.035-1.593.12-.28.318-.531.529-.793.551-.69.862-1.15.347-1.93a.483.483 0 0 1 .523-.735c2.215.53 3.019 2.479 2.828 4.066-.151 1.253-.892 2.12-1.877 2.26l-1.489 3.005a.489.489 0 0 1-.44.271h-1.956.001a.489.489 0 0 1-.49-.455zm4.402 2.39c1.887 0 3.423 1.52 3.423 3.388 0 1.868-1.536 3.387-3.423 3.387h-.49v2.42c0 1.333-1.096 2.419-2.444 2.419H6.423c-1.348 0-2.445-1.086-2.445-2.42V11.13c0-.267.219-.484.489-.484H17.18c.27 0 .489.217.489.484v.484h.489zm0 5.807c1.347 0 2.445-1.085 2.445-2.419s-1.098-2.42-2.445-2.42h-.49v4.84h.49zM16.68 3.91v.002c-.128.3-.14.59-.033.842.08.177.21.328.373.435l.833.274c.745 0 1.103-.772 1.183-1.434.11-.913-.222-1.985-1.14-2.604.056.822-.45 1.453-.82 1.918-.169.21-.327.407-.396.568zm-12.94.032L5.83 5.18 3.462 7.134l-.455-2.7a.48.48 0 0 1 .207-.48.492.492 0 0 1 .526-.013z"/></svg>