<svg width="24" height="24" viewBox="0 0 24 24" xmlns="http://www.w3.org/2000/svg"><title>global-nav-streaming</title><path d="M19.07 19.071a.5.5 0 0 1-.707-.706A8.946 8.946 0 0 0 21 12a8.942 8.942 0 0 0-2.637-6.364c-3.509-3.509-9.219-3.509-12.727 0-3.509 3.51-3.509 9.219 0 12.729a.5.5 0 1 1-.709.706c-3.898-3.899-3.898-10.243 0-14.142 3.901-3.898 10.245-3.898 14.143 0A9.935 9.935 0 0 1 22 12a9.935 9.935 0 0 1-2.93 7.071m-2.689-2.19a.5.5 0 0 1-.354-.854A5.658 5.658 0 0 0 17.695 12a5.66 5.66 0 0 0-1.668-4.027 5.702 5.702 0 0 0-8.055 0A5.656 5.656 0 0 0 6.303 12c0 1.522.593 2.952 1.669 4.027a.5.5 0 1 1-.707.708A6.652 6.652 0 0 1 5.303 12c0-1.788.697-3.469 1.962-4.734a6.703 6.703 0 0 1 9.469 0A6.655 6.655 0 0 1 18.695 12c0 1.789-.697 3.47-1.961 4.735a.5.5 0 0 1-.353.146m-7.36-4.468A2.982 2.982 0 0 1 12 9.435a2.981 2.981 0 0 1 2.977 2.978A2.981 2.981 0 0 1 12 15.392a2.982 2.982 0 0 1-2.979-2.979M15.726 22H8.281a.5.5 0 0 1-.5-.5c0-2.197 1.771-5.456 4.219-5.456 2.406 0 4.16 3.155 4.215 5.35a.499.499 0 0 1-.489.606M12 0C5.372 0 0 5.373 0 12s5.372 12 12 12c6.627 0 12-5.373 12-12S18.627 0 12 0"/></svg>