<svg width="24" height="24" viewBox="0 0 24 24" xmlns="http://www.w3.org/2000/svg"><title>global-nav-math</title><path d="M3.53 3.53c-4.707 4.706-4.707 12.366 0 17.072.633.63 1.334 1.187 2.09 1.663l1.352.854 3.78-3.78-1.414-1.415 1.414-1.413 1.415 1.413 2.172-2.171-2.829-2.829-4.998 4.998-.153-.15c-3.148-3.146-3.147-8.266 0-11.413 3.146-3.147 8.267-3.147 11.414 0l.15.154-4.999 4.996 2.83 2.83 2.171-2.173-1.414-1.414 1.414-1.415 1.414 1.415 3.78-3.78-.854-1.353a12.066 12.066 0 0 0-1.664-2.09c-4.706-4.706-12.364-4.706-17.07 0"/></svg>