<svg width="24" height="24" viewBox="0 0 24 24" xmlns="http://www.w3.org/2000/svg"><title>Artboard</title><path d="M22.8 1.142c-.101-.1-.302-.2-.402-.1-.702.1-16.957 1.905-20.669 9.725-1.204 2.507-.903 5.415.803 8.523l-.703.702c-.3.3-.401.702-.401 1.103s.2.802.401 1.103c.301.2.703.4 1.104.4.401 0 .803-.2 1.104-.4l.702-.702C6.545 22.499 8.351 23 9.956 23c4.415 0 8.027-3.71 10.536-10.729C22.398 6.957 22.9 1.643 23 1.643c0-.2-.1-.3-.2-.501zM4.537 20.192l-.702.702-.602.602c-.2.2-.502.2-.702 0a.484.484 0 0 1 0-.702l.602-.601.702-.702 2.107-2.106v-4.813c0-.3.2-.501.502-.501.3 0 .501.2.501.501v3.81l1.606-1.604 1.906-1.905V9.564c0-.3.2-.501.502-.501.3 0 .501.2.501.501v2.306l3.01-3.008V7.56c0-.3.201-.501.502-.501s.502.2.502.5v1.004h1.003c.301 0 .502.2.502.5 0 .302-.2.502-.502.502h-1.304l-3.01 3.008h2.308c.3 0 .501.2.501.502 0 .3-.2.5-.501.5H11.16L9.254 15.48 7.65 17.084h3.812c.301 0 .502.2.502.502 0 .3-.2.5-.502.5H6.645l-2.107 2.107-.001-.001z"/></svg>