<svg width="24" height="24" viewBox="0 0 24 24" xmlns="http://www.w3.org/2000/svg"><title>global-nav-community</title><path d="M23.117 19.8a.462.462 0 0 1-.441.598h-6.118a5.097 5.097 0 0 0-1.516-1.772 4.174 4.174 0 0 1 2.268-2.49 2.757 2.757 0 0 1-1.104-2.2 2.77 2.77 0 0 1 2.765-2.77 2.77 2.77 0 0 1 2.765 2.77 2.758 2.758 0 0 1-1.105 2.202 4.154 4.154 0 0 1 2.486 3.661zM9.076 18.61v-.001a5.092 5.092 0 0 0-1.525 1.789H1.46a.461.461 0 0 1-.46-.462 4.158 4.158 0 0 1 2.486-3.8 2.759 2.759 0 0 1-1.104-2.2 2.77 2.77 0 0 1 2.765-2.77 2.77 2.77 0 0 1 2.765 2.77 2.757 2.757 0 0 1-1.106 2.2 4.177 4.177 0 0 1 2.27 2.474zm4.642.296a4.154 4.154 0 0 1 2.486 3.662.462.462 0 0 1-.458.599H8.373a.461.461 0 0 1-.461-.462 4.154 4.154 0 0 1 2.486-3.8 2.76 2.76 0 0 1-1.104-2.2 2.77 2.77 0 0 1 2.765-2.769 2.77 2.77 0 0 1 2.765 2.77 2.758 2.758 0 0 1-1.106 2.2zM6.99 10.23a1.385 1.385 0 0 1-1.382-1.385v-6.46C5.608 1.62 6.228 1 6.99 1h10.138c.762 0 1.382.621 1.382 1.385v6.461c0 .764-.62 1.385-1.382 1.385h-5.99v2.307a.462.462 0 0 1-.787.327l-2.63-2.634h-.73zm1.844-3.693a.461.461 0 0 0 0 .924h6.422a.461.461 0 0 0 0-.924H8.834zm0-1.846a.461.461 0 0 0 0 .923h6.422a.461.461 0 0 0 0-.923H8.834zm0-1.846a.461.461 0 0 0 0 .923h6.422a.461.461 0 0 0 0-.923H8.834z"/></svg>