<svg xmlns="http://www.w3.org/2000/svg" width="102" height="28" viewBox="0 0 102 28"><path d="M99.454 26.081v.201h-.568v1.487h-.231v-1.487h-.567v-.201h1.366zm.205 0h.328l.483 1.427.483-1.427h.324v1.688h-.22v-.998c0-.034 0-.09.004-.169l.001-.255-.48 1.422h-.228l-.485-1.422v.049c0 .041.001.107.004.189l.002.186v.998h-.217v-1.688zm-96.21-7.054H0v-2.803h10.112v2.803H6.647v8.743H3.449zm8.068-2.803h9.287v2.705h-6.12v1.764h5.542v2.524h-5.542v1.831h6.202v2.722h-9.369zm10.561 5.805v-.033c0-3.363 2.573-6.004 6.069-6.004 2.36 0 3.877.99 4.9 2.391l-2.408 1.865c-.661-.809-1.419-1.353-2.524-1.353-1.616 0-2.755 1.386-2.755 3.067v.033c0 1.732 1.139 3.086 2.755 3.086 1.204 0 1.913-.562 2.606-1.404l2.408 1.717C32.042 26.896 30.572 28 28.032 28c-3.299 0-5.954-2.523-5.954-5.971m12.441-5.805h3.2v4.321h4.108v-4.321h3.2V27.77h-3.2v-4.388h-4.108v4.388h-3.2zm12.556 0h5.922c1.451 0 2.476.362 3.151 1.022.462.479.742 1.09.742 1.881v.033c0 1.336-.76 2.127-1.781 2.572 1.402.462 2.293 1.254 2.293 2.82v.033c0 1.979-1.618 3.184-4.372 3.184h-5.955V16.224zm6.664 3.563c0-.645-.511-.99-1.451-.99h-2.094v2.029h2.011c.975 0 1.534-.33 1.534-1.007v-.032zm-1.105 3.281h-2.439v2.128h2.473c.99 0 1.534-.379 1.534-1.056v-.033c-.001-.627-.496-1.039-1.568-1.039m5.861-1.039v-.033c0-3.316 2.672-6.004 6.233-6.004 3.564 0 6.202 2.655 6.202 5.971v.033c0 3.315-2.672 6.004-6.233 6.004-3.564 0-6.202-2.656-6.202-5.971m9.153 0v-.033c0-1.683-1.187-3.117-2.951-3.117-1.767 0-2.938 1.42-2.938 3.084v.033c0 1.666 1.205 3.118 2.969 3.118 1.75 0 2.92-1.419 2.92-3.085m4.558 0v-.033c0-3.316 2.672-6.004 6.233-6.004 3.564 0 6.202 2.655 6.202 5.971v.033c0 3.315-2.672 6.004-6.233 6.004-3.564 0-6.202-2.656-6.202-5.971m9.153 0v-.033c0-1.683-1.187-3.117-2.951-3.117-1.767 0-2.938 1.42-2.938 3.084v.033c0 1.666 1.204 3.118 2.969 3.118 1.749 0 2.92-1.419 2.92-3.085m4.936-5.805h3.2v4.684l3.992-4.684h3.778l-4.371 4.948 4.518 6.598h-3.826l-2.92-4.29-1.171 1.288v3.002h-3.2zM1.524.778h1.231L6.682 6.66 10.608.779h1.232v10.777h-1.216v-8.73L6.697 8.6h-.061L2.71 2.841v8.714H1.524V.778zM18.817.701h1.14l4.911 10.854H23.56l-1.263-2.848h-5.866l-1.277 2.848h-1.247L18.817.701zm3.002 6.898l-2.447-5.481-2.464 5.481h4.911zm6.577-5.697h-3.617V.778h8.468v1.124h-3.618v9.653h-1.232V1.902zM35.45.778h1.216v4.788h6.221V.778h1.216v10.777h-1.216v-4.85h-6.221v4.85H35.45V.778z"/></svg>