<svg data-name="Layer 1" xmlns="http://www.w3.org/2000/svg" viewBox="0 0 127.46 58.18"><title>science-techbook-ngss</title><path d="M1.41 12.98a6.53 6.53 0 0 0 5 2.33c3.29 0 4.22-1.82 4.22-3.19 0-2.26-2.14-2.88-4.39-3.48-2.51-.7-5.21-1.37-5.21-4.37C1.03 1.65 3.38 0 6.29 0a6.88 6.88 0 0 1 5.44 2.27l-.91 1a5.73 5.73 0 0 0-4.61-2c-2.14 0-3.74 1.22-3.74 3 0 1.9 2 2.45 4.18 3 2.59.74 5.42 1.56 5.42 4.8 0 2.06-1.37 4.54-5.69 4.54a7.36 7.36 0 0 1-5.86-2.6zm13.08-4.71A8 8 0 0 1 22.61 0a7.22 7.22 0 0 1 5.83 2.83l-1.15.74a5.82 5.82 0 0 0-4.68-2.3c-3.77 0-6.68 2.83-6.68 7s2.9 7 6.67 7a5.82 5.82 0 0 0 4.68-2.33l1.15.72a7.18 7.18 0 0 1-5.83 2.86 8 8 0 0 1-8.11-8.25zm16.47-8h1.37v16h-1.37zm5.08 0H46.2v1.24h-8.79v5.93h8.62v1.25h-8.62v6.34h8.78v1.24H36.04zm14.69 2.25v13.75h-1.41v-16h1.41l10 13.55V.27h1.37v16h-1.37zm14.5 5.75A8 8 0 0 1 73.34 0a7.22 7.22 0 0 1 5.83 2.83l-1.15.74a5.82 5.82 0 0 0-4.68-2.3c-3.77 0-6.67 2.86-6.67 7s2.9 7 6.67 7a5.82 5.82 0 0 0 4.68-2.33l1.15.72a7.18 7.18 0 0 1-5.83 2.86 8 8 0 0 1-8.11-8.25zm16.5-8h10.12v1.24h-8.79v5.93h8.62v1.25h-8.62v6.34h8.79v1.24H81.73zM4.68 23.85H0v-3h12.73v3H8.11v13H4.68zm10.05-3h11.28v3h-7.92v3.42h7.75v3h-7.75v3.62h7.92v3H14.73zm12.91 8.02c0-4.92 3.72-8.28 8.52-8.28a7.33 7.33 0 0 1 6.7 3.91l-2.93 1.44a4.34 4.34 0 0 0-3.77-2.33 5 5 0 0 0-5 5.26 5 5 0 0 0 5 5.26 4.29 4.29 0 0 0 3.77-2.33l2.93 1.42a7.37 7.37 0 0 1-6.7 3.94c-4.8-.01-8.52-3.37-8.52-8.29zm27.97 1.27h-7.57v6.72h-3.4v-16h3.41v6.29h7.56v-6.3h3.43v16h-3.43zm6.31-9.29h8.42c3 0 4.61 1.94 4.61 4.08a3.56 3.56 0 0 1-2.76 3.67 3.88 3.88 0 0 1 3.07 3.94c0 2.4-1.61 4.32-4.66 4.32h-8.68zm7.68 6.42a1.71 1.71 0 0 0 1.87-1.73 1.72 1.72 0 0 0-1.87-1.75h-4.28v3.48zm.13 6.64c1.3 0 2.06-.7 2.06-1.85a1.87 1.87 0 0 0-2.06-1.87h-4.41v3.72zm15.42-13.32a8 8 0 0 1 8.38 8.28 8.37 8.37 0 0 1-16.73 0 8 8 0 0 1 8.35-8.28zm0 3c-3 0-4.85 2.26-4.85 5.26s1.9 5.26 4.85 5.26 4.87-2.28 4.87-5.26-1.92-5.24-4.87-5.24zm18.09-3a8 8 0 0 1 8.38 8.28 8.37 8.37 0 0 1-16.73 0 8 8 0 0 1 8.35-8.28zm0 3c-3 0-4.85 2.26-4.85 5.26s1.9 5.26 4.85 5.26 4.87-2.28 4.87-5.26-1.91-5.24-4.87-5.24zm15.17 6.86l-1.25 1.49v4.92h-3.43v-16h3.41v7.15l5.66-7.15h4.2l-6.36 7.51 6.79 8.5h-4.2zM4.39 47.42v10.44H.98v-16h3.5l7.42 10.06V41.85h3.41v16h-3.29zm21.58-5.83a7.48 7.48 0 0 1 6.62 3.58l-2.86 1.53a4.53 4.53 0 0 0-3.79-2.09 5 5 0 0 0-5 5.26 5 5 0 0 0 5 5.26 5.4 5.4 0 0 0 3.41-1.22v-1.93h-4.2v-3h7.63v6.14a8.88 8.88 0 0 1-6.82 3c-4.68 0-8.52-3.26-8.52-8.31s3.84-8.22 8.53-8.22zM36 53.01a7 7 0 0 0 5.09 2.16c1.87 0 2.79-.86 2.79-1.78 0-1.18-1.49-1.51-3.24-1.94-2.62-.6-6-1.32-6-5 0-2.66 2.3-4.87 6.07-4.87a8.91 8.91 0 0 1 6.24 2.23l-1.9 2.5a6.88 6.88 0 0 0-4.66-1.75c-1.46 0-2.28.65-2.28 1.61s1.46 1.37 3.19 1.78c2.64.62 6 1.42 6 5 0 2.93-2.09 5.14-6.41 5.14a9.13 9.13 0 0 1-6.77-2.54zm14.13 0a7 7 0 0 0 5.09 2.16c1.87 0 2.79-.86 2.79-1.78 0-1.18-1.49-1.51-3.24-1.94-2.62-.6-6-1.32-6-5 0-2.66 2.3-4.87 6.07-4.87a8.91 8.91 0 0 1 6.24 2.23l-1.9 2.5a6.88 6.88 0 0 0-4.66-1.75c-1.46 0-2.28.65-2.28 1.61s1.49 1.39 3.22 1.8c2.64.62 6 1.42 6 5 0 2.93-2.09 5.14-6.41 5.14a9.13 9.13 0 0 1-6.77-2.54z" class="cls-1 cls-1"/></svg>