<svg xmlns="http://www.w3.org/2000/svg" width="102" height="28" viewBox="0 0 102 28"><path d="M99.504 25.784v.201h-.568v1.487h-.23v-1.487h-.568v-.201h1.366zm.205 0h.328l.484 1.427.482-1.427h.324v1.688h-.219v-.998c0-.034 0-.09.004-.169v-.255l-.48 1.422h-.227l-.486-1.422v.05l.004.189c.002.084.002.146.002.186v.998h-.217v-1.689zM3.499 18.73H.051v-2.803h10.111v2.803H6.698v8.743H3.499zm8.068-2.803h9.287v2.705h-6.12v1.764h5.542v2.524h-5.542v1.831h6.202v2.722h-9.369zm10.561 5.805v-.033c0-3.363 2.573-6.004 6.069-6.004 2.36 0 3.877.99 4.9 2.391l-2.408 1.865c-.661-.809-1.419-1.353-2.524-1.353-1.616 0-2.755 1.386-2.755 3.067v.033c0 1.732 1.139 3.086 2.755 3.086 1.204 0 1.913-.562 2.606-1.404l2.408 1.717c-1.088 1.501-2.558 2.605-5.098 2.605-3.297.001-5.953-2.522-5.953-5.97m12.441-5.805h3.2v4.321h4.108v-4.321h3.201v11.546h-3.201v-4.388h-4.108v4.388h-3.2zm12.556 0h5.922c1.451 0 2.476.362 3.151 1.022.462.479.742 1.09.742 1.881v.033c0 1.336-.76 2.127-1.781 2.572 1.402.462 2.293 1.254 2.293 2.82v.033c0 1.979-1.618 3.184-4.372 3.184h-5.955V15.927zm6.665 3.563c0-.645-.511-.99-1.451-.99h-2.094v2.029h2.011c.975 0 1.534-.33 1.534-1.007v-.032zm-1.106 3.281h-2.439v2.128h2.473c.99 0 1.534-.379 1.534-1.056v-.033c-.001-.626-.496-1.039-1.568-1.039m5.861-1.039v-.033c0-3.316 2.672-6.004 6.233-6.004 3.564 0 6.202 2.655 6.202 5.971v.033c0 3.315-2.672 6.004-6.233 6.004-3.564 0-6.202-2.656-6.202-5.971m9.154 0v-.033c0-1.683-1.187-3.117-2.951-3.117-1.767 0-2.938 1.42-2.938 3.084v.033c0 1.666 1.205 3.118 2.969 3.118 1.749 0 2.92-1.419 2.92-3.085m4.557 0v-.033c0-3.316 2.672-6.004 6.234-6.004 3.564 0 6.201 2.655 6.201 5.971v.033c0 3.315-2.672 6.004-6.232 6.004-3.565 0-6.203-2.656-6.203-5.971m9.154 0v-.033c0-1.683-1.188-3.117-2.951-3.117-1.768 0-2.938 1.42-2.938 3.084v.033c0 1.666 1.204 3.118 2.969 3.118 1.748 0 2.92-1.419 2.92-3.085m4.936-5.805h3.199v4.684l3.992-4.684h3.777l-4.371 4.948 4.52 6.598h-3.826l-2.92-4.289-1.172 1.287v3.002h-3.199zM.866 9.688l.754-.893c1.124 1.016 2.202 1.524 3.695 1.524 1.447 0 2.402-.77 2.402-1.833v-.029c0-1-.539-1.57-2.802-2.047-2.479-.539-3.618-1.34-3.618-3.11v-.032c0-1.693 1.494-2.94 3.541-2.94 1.57 0 2.694.446 3.788 1.324l-.709.939c-1-.816-2.001-1.17-3.11-1.17-1.401 0-2.294.77-2.294 1.74v.031c0 1.016.554 1.585 2.925 2.094 2.402.523 3.51 1.401 3.51 3.048v.031c0 1.848-1.54 3.048-3.68 3.048-1.707 0-3.108-.57-4.402-1.725zm10.026-3.787V5.87c0-3.048 2.279-5.573 5.451-5.573 1.955 0 3.125.693 4.203 1.709l-.832.893c-.908-.862-1.924-1.478-3.387-1.478-2.387 0-4.172 1.939-4.172 4.418v.031c0 2.494 1.801 4.45 4.172 4.45 1.478 0 2.448-.57 3.479-1.555l.801.785c-1.124 1.139-2.355 1.894-4.312 1.894-3.109-.001-5.403-2.448-5.403-5.543zM22.78.481h1.217v10.777H22.78V.481zm4.312 0h7.79V1.59h-6.574v3.68h5.882v1.109h-5.882v3.772h6.651v1.108h-7.867V.481zm10.241 0h1.139l6.79 8.637V.481h1.186v10.777h-.97l-6.959-8.837v8.837h-1.186V.481zm11.626 5.42V5.87c0-3.048 2.278-5.573 5.45-5.573 1.955 0 3.126.693 4.203 1.709l-.831.893c-.908-.862-1.925-1.478-3.388-1.478-2.386 0-4.172 1.939-4.172 4.418v.031c0 2.494 1.801 4.45 4.172 4.45 1.479 0 2.448-.57 3.479-1.555l.801.785c-1.124 1.139-2.355 1.894-4.311 1.894-3.109-.001-5.403-2.448-5.403-5.543zM60.741.481h7.79V1.59h-6.574v3.68h5.882v1.109h-5.882v3.772h6.651v1.108h-7.867V.481z"/></svg>