<svg xmlns="http://www.w3.org/2000/svg" width="132" height="28" viewBox="0 0 132 28"><path d="M99.795 26.081v.201h-.568v1.487h-.23v-1.487h-.568v-.201h1.366zm.205 0h.328l.484 1.427.482-1.427h.324v1.688h-.218v-.998c0-.034 0-.09.004-.169v-.255l-.48 1.422h-.227l-.486-1.422v.049l.004.189c.002.084.002.146.002.186v.998H100v-1.688zM3.79 19.027H.342v-2.803h10.111v2.803H6.989v8.743H3.79zm8.068-2.803h9.287v2.705h-6.12v1.764h5.542v2.524h-5.542v1.831h6.202v2.722h-9.369zm10.561 5.805v-.033c0-3.363 2.573-6.004 6.069-6.004 2.36 0 3.877.99 4.9 2.391l-2.408 1.865c-.661-.809-1.419-1.353-2.524-1.353-1.616 0-2.755 1.386-2.755 3.067v.033c0 1.732 1.139 3.086 2.755 3.086 1.204 0 1.913-.562 2.606-1.404l2.408 1.717C32.383 26.896 30.914 28 28.374 28c-3.299 0-5.955-2.523-5.955-5.971m12.441-5.805h3.2v4.321h4.108v-4.321h3.201V27.77h-3.201v-4.388H38.06v4.388h-3.2zm12.557 0h5.922c1.451 0 2.476.362 3.151 1.022.462.479.742 1.09.742 1.881v.033c0 1.336-.76 2.127-1.781 2.572 1.402.462 2.293 1.254 2.293 2.82v.033c0 1.979-1.618 3.184-4.372 3.184h-5.955V16.224zm6.664 3.563c0-.645-.511-.99-1.451-.99h-2.094v2.029h2.011c.975 0 1.534-.33 1.534-1.007v-.032zm-1.106 3.281h-2.439v2.128h2.473c.99 0 1.534-.379 1.534-1.056v-.033c-.001-.627-.496-1.039-1.568-1.039m5.861-1.039v-.033c0-3.316 2.672-6.004 6.233-6.004 3.564 0 6.202 2.655 6.202 5.971v.033c0 3.315-2.672 6.004-6.233 6.004-3.564 0-6.202-2.656-6.202-5.971m9.154 0v-.033c0-1.683-1.187-3.117-2.951-3.117-1.767 0-2.938 1.42-2.938 3.084v.033c0 1.666 1.205 3.118 2.969 3.118 1.749 0 2.92-1.419 2.92-3.085m4.557 0v-.033c0-3.316 2.672-6.004 6.234-6.004 3.564 0 6.201 2.655 6.201 5.971v.033c0 3.315-2.672 6.004-6.232 6.004-3.565 0-6.203-2.656-6.203-5.971m9.154 0v-.033c0-1.683-1.188-3.117-2.951-3.117-1.768 0-2.938 1.42-2.938 3.084v.033c0 1.666 1.204 3.118 2.969 3.118 1.748 0 2.92-1.419 2.92-3.085m4.936-5.805h3.199v4.684l3.992-4.684h3.777l-4.371 4.948 4.52 6.598h-3.826l-2.92-4.29-1.172 1.288v3.002h-3.199zM1.157 9.985l.754-.893c1.124 1.016 2.202 1.524 3.695 1.524 1.447 0 2.402-.77 2.402-1.833v-.03c0-1-.539-1.57-2.802-2.047-2.479-.539-3.618-1.34-3.618-3.11v-.031c0-1.693 1.494-2.94 3.541-2.94 1.57 0 2.694.446 3.788 1.324l-.709.939c-1-.816-2.001-1.17-3.11-1.17-1.401 0-2.294.77-2.294 1.74v.031c0 1.016.554 1.585 2.925 2.094 2.403.522 3.511 1.4 3.511 3.047v.031c0 1.848-1.54 3.048-3.68 3.048-1.708 0-3.109-.569-4.403-1.724zm10.026-3.787v-.031c0-2.971 2.233-5.573 5.512-5.573s5.48 2.571 5.48 5.542v.031c0 2.972-2.232 5.573-5.512 5.573s-5.48-2.571-5.48-5.542zm9.73 0v-.031c0-2.448-1.785-4.449-4.249-4.449-2.463 0-4.218 1.971-4.218 4.418v.031c0 2.448 1.786 4.45 4.25 4.45 2.462 0 4.217-1.971 4.217-4.419zm3.297 0v-.031c0-3.048 2.278-5.573 5.45-5.573 1.955 0 3.126.693 4.203 1.709l-.831.893c-.908-.862-1.925-1.478-3.388-1.478-2.386 0-4.172 1.939-4.172 4.418v.031c0 2.494 1.801 4.45 4.172 4.45 1.479 0 2.448-.57 3.479-1.555l.801.785c-1.124 1.139-2.355 1.894-4.311 1.894-3.109-.001-5.403-2.449-5.403-5.543zM36.099.778h1.217v10.777h-1.217V.778zm8.3-.077h1.14l4.911 10.854h-1.309l-1.263-2.848h-5.866l-1.277 2.848h-1.247L44.399.701zm3.002 6.898l-2.447-5.481-2.464 5.481h4.911zM52.515.778h1.216v9.653h6.066v1.124h-7.282V.778zm13.321 9.207l.754-.893c1.124 1.016 2.202 1.524 3.695 1.524 1.447 0 2.401-.77 2.401-1.833v-.03c0-1-.539-1.57-2.802-2.047-2.479-.539-3.618-1.34-3.618-3.11v-.031c0-1.693 1.493-2.94 3.541-2.94 1.57 0 2.694.446 3.787 1.324l-.708.939c-1.001-.816-2.001-1.17-3.109-1.17-1.401 0-2.295.77-2.295 1.74v.031c0 1.016.555 1.585 2.926 2.094 2.401.523 3.511 1.401 3.511 3.048v.031c0 1.848-1.54 3.048-3.68 3.048-1.708-.001-3.11-.57-4.403-1.725zm13.119-8.083h-3.617V.778h8.468v1.124h-3.619v9.653h-1.232V1.902zm6.885 5.142V.778h1.217v6.189c0 2.325 1.248 3.633 3.295 3.633 1.986 0 3.248-1.201 3.248-3.557V.778h1.217v6.174c0 3.141-1.801 4.773-4.496 4.773-2.663 0-4.481-1.632-4.481-4.681zM97.637.778h3.742c3.387 0 5.727 2.325 5.727 5.358v.031c0 3.033-2.34 5.389-5.727 5.389h-3.742V.778zm1.217 1.124v8.529h2.525c2.725 0 4.465-1.848 4.465-4.234v-.03c0-2.386-1.74-4.265-4.465-4.265h-2.525zM109.725.778h1.217v10.777h-1.217V.778zm4.312 0h7.791v1.108h-6.574v3.68h5.881v1.109h-5.881v3.772h6.65v1.108h-7.867V.778zm9.549 9.207l.754-.893c1.125 1.016 2.203 1.524 3.695 1.524 1.447 0 2.402-.77 2.402-1.833v-.03c0-1-.539-1.57-2.803-2.047-2.479-.539-3.617-1.34-3.617-3.11v-.031c0-1.693 1.492-2.94 3.541-2.94 1.57 0 2.693.446 3.787 1.324l-.709.939c-1-.816-2-1.17-3.109-1.17-1.4 0-2.295.77-2.295 1.74v.031c0 1.016.555 1.585 2.926 2.094 2.402.523 3.512 1.401 3.512 3.048v.031c0 1.848-1.541 3.048-3.68 3.048-1.709-.001-3.111-.57-4.404-1.725z"/></svg>