<svg xmlns="http://www.w3.org/2000/svg" width="94" height="28" viewBox="0 0 94 28"><path d="M.784 10.041l.754-.893c1.124 1.016 2.202 1.524 3.695 1.524 1.447 0 2.402-.77 2.402-1.833v-.03c0-1-.539-1.57-2.802-2.047-2.479-.539-3.618-1.34-3.618-3.11v-.031c0-1.693 1.494-2.94 3.541-2.94 1.57 0 2.694.446 3.788 1.324l-.709.938c-1-.816-2.001-1.17-3.11-1.17-1.401 0-2.294.77-2.294 1.74v.031c0 1.016.554 1.585 2.925 2.094 2.402.523 3.51 1.401 3.51 3.048v.031c0 1.848-1.54 3.048-3.68 3.048-1.708 0-3.109-.569-4.402-1.724zm13.119-8.083h-3.618V.834h8.468v1.124h-3.618v9.653h-1.232V1.958zm7.07-1.124h4.634c1.324 0 2.387.4 3.064 1.078.523.523.831 1.278.831 2.125v.031c0 1.786-1.231 2.833-2.926 3.141l3.311 4.403h-1.493l-3.126-4.188h-3.079v4.188h-1.216V.834zm4.526 5.497c1.616 0 2.771-.832 2.771-2.217v-.031c0-1.324-1.017-2.125-2.756-2.125h-3.326v4.373h3.311zM32.046.834h7.79v1.108h-6.574v3.68h5.882v1.109h-5.882v3.772h6.651v1.108h-7.867V.834zM46.289.757h1.14l4.911 10.854h-1.309l-1.263-2.848h-5.866l-1.277 2.848h-1.247L46.289.757zm3.002 6.897l-2.447-5.481-2.464 5.481h4.911zm5.115-6.82h1.231l3.926 5.881L63.49.834h1.231v10.777h-1.217V2.882l-3.926 5.773h-.062L55.59 2.897v8.714h-1.186V.834zm13.398 0h1.217v10.777h-1.217V.834zm4.312 0h1.139l6.79 8.637V.834h1.186v10.777h-.97l-6.959-8.837v8.837h-1.186V.834zm11.612 5.419v-.03c0-2.956 2.171-5.573 5.404-5.573 1.816 0 2.94.523 4.019 1.432l-.785.924c-.832-.724-1.756-1.231-3.279-1.231-2.387 0-4.096 2.017-4.096 4.418v.031c0 2.571 1.647 4.48 4.265 4.48 1.231 0 2.371-.478 3.11-1.078v-2.68h-3.279V5.853h4.449v4.296a6.531 6.531 0 0 1-4.326 1.647c-3.389 0-5.482-2.463-5.482-5.543zM4.427 24.364H2.502v3.455H-.032V16.302h4.706c2.748 0 4.409 1.629 4.409 3.982v.033c0 2.666-2.073 4.047-4.656 4.047m2.09-4.031c0-1.135-.79-1.743-2.057-1.743H2.502v3.521H4.51c1.267 0 2.007-.756 2.007-1.746v-.032zm4.856 7.486V16.302h2.533v9.214h5.741v2.303zM26.446 28c-3.093 0-4.986-1.728-4.986-5.116v-6.582h2.534v6.516c0 1.876.938 2.847 2.484 2.847s2.483-.938 2.483-2.763v-6.6h2.534v6.5C31.496 26.289 29.538 28 26.446 28m12.145-.017a7.335 7.335 0 0 1-4.888-1.842l1.498-1.795c1.036.855 2.122 1.399 3.438 1.399 1.037 0 1.663-.411 1.663-1.085v-.035c0-.64-.396-.969-2.321-1.463-2.319-.593-3.816-1.234-3.816-3.52v-.035c0-2.088 1.679-3.471 4.031-3.471 1.678 0 3.109.527 4.277 1.465l-1.316 1.908c-1.021-.707-2.023-1.136-2.994-1.136s-1.48.445-1.48 1.004v.032c0 .758.493 1.004 2.484 1.516 2.336.607 3.651 1.447 3.651 3.454v.033c0 2.288-1.744 3.571-4.227 3.571"/></svg>