<svg xmlns="http://www.w3.org/2000/svg" width="24" height="24" viewBox="0 0 24 24"><path d="M11.186 17.938c-1.103 0-2-.897-2-2s.897-2 2-2h5.087l.369-.369-1.808-1.656a2.004 2.004 0 0 1-.125-2.823c.712-.774 2.061-.829 2.828-.125l1.922 1.787 4.012-4.012a1.38 1.38 0 0 0 0-1.948l-3.214-3.214c-.521-.52-1.428-.52-1.948 0L7.804 12.08 5.565 9.841c-.521-.52-1.428-.52-1.948 0L.403 13.055a1.377 1.377 0 0 0 0 1.948l6.426 6.427c.26.262.606.403.975.403.366 0 .71-.141.975-.401l3.495-3.495h-1.088z"/><path d="M23.155 15.697a1.133 1.133 0 0 0-.087-.227L16.861 9.7a1.028 1.028 0 0 0-1.414.062 1.003 1.003 0 0 0 .062 1.412l4.104 3.763h-8.429a1.001 1.001 0 0 0 0 2h8.429l-4.104 3.764a1.002 1.002 0 0 0-.062 1.412 1.003 1.003 0 0 0 1.413.061l6.016-5.515.066-.073-.003-.003.006-.008.062-.071.089-.158a1.14 1.14 0 0 0 .066-.206.99.99 0 0 0-.007-.443z"/></svg>