<svg xmlns="http://www.w3.org/2000/svg" width="28" height="28" viewBox="0 0 28 28"><title>attachment</title><path d="M15.277 22.061a1.172 1.172 0 0 0 .154 1.65l.014.012a1.2 1.2 0 0 0 1.684-.164l9.1-10.997a7.64 7.64 0 0 0-1.005-10.756l-.075-.062a7.83 7.83 0 0 0-10.938 1.071L1.354 18.34a5.88 5.88 0 0 0 .779 8.279l.054.044a6.032 6.032 0 0 0 8.4-.826l12.306-14.893a3.524 3.524 0 0 0-.463-4.963l-.037-.03a3.615 3.615 0 0 0-5.043.493L8.249 17.422a1.172 1.172 0 0 0 .151 1.652l.003.003.013.011c.513.414 1.263.34 1.684-.168l9.1-10.997a1.21 1.21 0 0 1 1.684-.165c.506.408.586 1.148.178 1.654l-.01.012L8.747 24.318a3.616 3.616 0 0 1-5.047.492 3.523 3.523 0 0 1-.53-4.955l.03-.035L16.064 4.298a5.418 5.418 0 0 1 7.584-.721 5.287 5.287 0 0 1 .793 7.436l-.043.054-9.121 10.994z"/></svg>