<svg xmlns="http://www.w3.org/2000/svg" width="24" height="24" viewBox="0 0 24 24"><path d="M4.049 13c1.379 0 2.5-1.122 2.5-2.5S5.428 8 4.049 8a2.503 2.503 0 0 0-2.5 2.5c0 1.378 1.122 2.5 2.5 2.5zm-4 1.5c0 2.389.16 4.589 2 5.313V24h4v-4.187c1.84-.725 2-2.925 2-5.313V14h-8v.5zm20-1.5c1.379 0 2.5-1.122 2.5-2.5S21.428 8 20.049 8a2.503 2.503 0 0 0-2.5 2.5c0 1.378 1.122 2.5 2.5 2.5zm-4 1v.5c0 2.389.16 4.589 2 5.313V24h4v-4.187c1.84-.725 2-2.925 2-5.313V14h-8zm-4-9c1.379 0 2.5-1.122 2.5-2.5S13.428 0 12.049 0a2.503 2.503 0 0 0-2.5 2.5c0 1.378 1.122 2.5 2.5 2.5zm4 1h-8v.5c0 2.389.16 4.589 2 5.313V16h4v-4.187c1.84-.725 2-2.925 2-5.313V6z"/></svg>