<svg width="16" height="16" viewBox="0 0 16 16" xmlns="http://www.w3.org/2000/svg"><path d="M13.711 12.229c.204 0 .37-.169.37-.377a.373.373 0 0 0-.37-.377h-3.692a.373.373 0 0 0-.37.377c0 .208.166.377.37.377h3.692zm-1.846-4.525c2.239 0 4.061 1.86 4.061 4.148 0 2.287-1.822 4.148-4.061 4.148s-4.061-1.86-4.061-4.148c0-2.288 1.822-4.148 4.061-4.148z"/><rect width="12.444" height="1.78" rx=".89"/><rect y="8" width="6.519" height="1.78" rx=".89"/><rect y="4" width="12.444" height="1.78" rx=".89"/></svg>