<svg width="56" height="56" viewBox="0 0 56 56" xmlns="http://www.w3.org/2000/svg"><title>CropContain-NotSelected</title><g fill-rule="evenodd"><path d="M50.75 49H5.25A5.25 5.25 0 0 1 0 43.75v-31.5C0 9.35 2.35 7 5.25 7h45.5C53.65 7 56 9.35 56 12.25v31.5c0 2.9-2.35 5.25-5.25 5.25zm-38.5-35.875a6.125 6.125 0 1 0 0 12.25 6.125 6.125 0 0 0 0-12.25zM7 42h42V29.75l-9.572-9.572a1.313 1.313 0 0 0-1.856 0L22.75 35l-6.072-6.072a1.313 1.313 0 0 0-1.856 0L7 36.75V42z" fill-rule="nonzero"/><path d="M51 7h5v42h-5zM0 7h5v42H0z"/><path d="M2 0h52a2 2 0 0 1 2 2v8H0V2a2 2 0 0 1 2-2zM0 46h56v8a2 2 0 0 1-2 2H2a2 2 0 0 1-2-2v-8z"/></g></svg>