<svg xmlns="http://www.w3.org/2000/svg" viewBox="0 0 23 24"><title>create</title><path d="M15.938 7.781l3.924-3.924-1.433-1.433-3.924 3.924zm5.986-3.924q0 .362-.241.603L4.46 21.683q-.241.241-.603.241t-.603-.241L.602 19.031q-.241-.241-.241-.603t.241-.603L17.825.602q.241-.241.603-.241t.603.241l2.652 2.652q.241.241.241.603zM3.83 1.313l1.313.402-1.313.402-.402 1.313-.402-1.313-1.312-.402 1.312-.402L3.428 0zm4.688 2.169l2.625.804-2.625.804-.804 2.625L6.91 5.09l-2.625-.804 2.625-.804.804-2.625zm12.455 6.402l1.313.402-1.313.402-.402 1.313-.402-1.313-1.313-.402 1.313-.402.402-1.313zm-8.571-8.571l1.313.402-1.313.402L12 3.43l-.402-1.313-1.313-.402 1.313-.402L12 0z"/></svg>