<svg width="56" height="56" viewBox="0 0 56 56" xmlns="http://www.w3.org/2000/svg" xmlns:xlink="http://www.w3.org/1999/xlink"><title>Crop-Fill-NotSlected</title><defs><rect id="a" width="56" height="56" rx="2"/></defs><g fill-rule="evenodd"><mask id="b"><use xlink:href="#a"/></mask><path d="M60.594 58H-3.594C-7.684 58-11 54.698-11 50.625V6.375C-11 2.302-7.684-1-3.594-1h64.188C64.684-1 68 2.302 68 6.375v44.25C68 54.698 64.684 58 60.594 58zM6.5 8a8.5 8.5 0 1 0 0 17 8.5 8.5 0 0 0 0-17zM-1 48h59V30.899L44.554 17.537a1.852 1.852 0 0 0-2.608 0L21.125 38.228l-8.53-8.476a1.852 1.852 0 0 0-2.607 0L-1 40.67V48z" fill-rule="nonzero" mask="url(#b)"/></g></svg>