<svg xmlns="http://www.w3.org/2000/svg" viewBox="0 0 80 63.33"><title>dashboard</title><path class="a" d="M0 55a8.34 8.34 0 0 0 8.33 8.33h63.33A8.34 8.34 0 0 0 79.99 55V20h-80v35zm53.33-26.67A1.66 1.66 0 0 1 55 26.66h10a1.67 1.67 0 0 1 1.67 1.67v10A1.67 1.67 0 0 1 65 40H55a1.67 1.67 0 0 1-1.67-1.67v-10zm0 16.67A1.66 1.66 0 0 1 55 43.33h10A1.67 1.67 0 0 1 66.67 45v10A1.67 1.67 0 0 1 65 56.67H55A1.67 1.67 0 0 1 53.33 55V45zm-20-16.67A1.66 1.66 0 0 1 35 26.66h10a1.67 1.67 0 0 1 1.67 1.67v10A1.67 1.67 0 0 1 45 40H35a1.67 1.67 0 0 1-1.67-1.67v-10zm0 16.67A1.66 1.66 0 0 1 35 43.33h10A1.67 1.67 0 0 1 46.67 45v10A1.67 1.67 0 0 1 45 56.67H35A1.67 1.67 0 0 1 33.33 55V45zm-20-16.67A1.66 1.66 0 0 1 15 26.66h10a1.67 1.67 0 0 1 1.67 1.67v10A1.67 1.67 0 0 1 25 40H15a1.67 1.67 0 0 1-1.67-1.67v-10zm0 16.67A1.66 1.66 0 0 1 15 43.33h10A1.67 1.67 0 0 1 26.67 45v10A1.67 1.67 0 0 1 25 56.67H15A1.67 1.67 0 0 1 13.33 55V45zM71.67 0H8.34A8.34 8.34 0 0 0 .01 8.33v8.39h80V8.39A8.34 8.34 0 0 0 71.67 0zM13.34 13.33A3.33 3.33 0 1 1 16.67 10a3.33 3.33 0 0 1-3.34 3.34zm10 0A3.33 3.33 0 1 1 26.67 10a3.33 3.33 0 0 1-3.34 3.34zm10 0A3.33 3.33 0 1 1 36.67 10a3.33 3.33 0 0 1-3.34 3.34z"/></svg>