<svg xmlns="http://www.w3.org/2000/svg" viewBox="0 0 40 40"><path d="M17.1 4.1c-1.3-1.3-3.5-1.3-4.8 0l-8.4 8.4c-.6.6-1 1.5-1 2.4 0 .9.4 1.8 1 2.4l2.4 2.4L19.5 6.5l-2.4-2.4zm-3 5.4l-4.8 4.8c-.2.2-.4.2-.6.2-.2 0-.4-.1-.6-.2-.3-.3-.3-.9 0-1.2l4.8-4.8c.3-.3.9-.3 1.2 0 .3.3.3.8 0 1.2zM7.443 20.848L20.595 7.696l10.748 10.748L18.19 31.596zM33.8 20.8l-1.2-1.2-13.1 13.2 1.2 1.2c.6.6 1.5 1 2.4 1 .9 0 1.8-.4 2.4-1l8.4-8.4c.6-.6 1-1.5 1-2.4-.1-.9-.4-1.7-1.1-2.4zm5.8-9c-2.8-4.5-7.8-7.2-12.8-7.3l2.3-1.7c.4-.3.4-.8.2-1.2-.3-.4-.8-.4-1.2-.2l-4.4 3.4c-.2.2-.3.4-.3.7 0 .3.3.7.5.8l4.3 3.3c.2.1.3.2.5.2.3 0 .5-.1.7-.3.3-.4.2-.9-.2-1.2l-2.6-2c4.6-.1 9.1 2.4 11.7 6.5.2.3.4.4.7.4.2 0 .3 0 .4-.1.4-.4.5-.9.2-1.3zM16.2 33.5l-4.3-3.3c-.4-.3-.9-.2-1.2.2-.3.4-.2.9.2 1.2l2.6 2c-4.6.1-9.1-2.4-11.7-6.5-.2-.4-.8-.5-1.2-.3-.4.2-.5.8-.2 1.2 2.8 4.5 7.7 7.2 12.7 7.3L10.9 37c-.4.3-.4.8-.2 1.2.2.2.4.3.7.3.2 0 .4-.1.5-.2l4.4-3.4c.2-.2.3-.4.3-.7 0-.2-.2-.6-.4-.7z"/></svg>