<svg xmlns="http://www.w3.org/2000/svg" viewBox="0 0 24 24"><path d="M11.9.2C7.3.2 3.5 4 3.5 8.6c0 4.5 3.5 8.1 7.9 8.4v-4.2l-.6.6c-.2.2-.5.2-.7 0l-1.5-1.5c-.2-.2-.2-.5 0-.7s.5-.2.7 0l1.1 1.1 1.1-1.1s.1-.1.2-.1c.1-.1.3-.1.4 0 .1 0 .1.1.2.1l1.1 1.1 1.1-1.1c.2-.2.5-.2.7 0s.2.5 0 .7l-1.5 1.5c-.1.1-.2.1-.4.1s-.3 0-.4-.1l-.6-.6V17c4.4-.3 7.9-3.9 7.9-8.4C20.4 4 16.6.2 11.9.2zM14.4 18h-5c-.2 0-.4.2-.4.5s.2.5.5.5h5c.3 0 .5-.2.5-.5-.1-.3-.3-.5-.6-.5zm0 2h-5c-.2 0-.4.2-.4.5s.2.5.5.5h5c.3 0 .5-.2.5-.5-.1-.3-.3-.5-.6-.5zm0 2h-5c-.2 0-.4.2-.4.5s.2.5.5.5h2v.5c0 .3.2.5.5.5s.5-.2.5-.5V23h2c.3 0 .5-.2.5-.5-.1-.3-.3-.5-.6-.5z"/></svg>