<svg xmlns="http://www.w3.org/2000/svg" viewBox="0 0 80 53.58"><title>display</title><path class="a" d="M20.08 0L0 52.87h7.62l5.12-13.86h20.59l5.12 13.86h7.62L26.13 0h-6zm10.74 32.2H15.28l7.8-21zm48.62 18.66a22.46 22.46 0 0 1-.69-3.41 30.16 30.16 0 0 1-.21-3.6V25.68c0-4.34-1.45-7.74-4.29-10.13s-6.42-3.47-10.85-3.47a17.05 17.05 0 0 0-11.12 3.62c-3 2.5-4.51 5.42-4.35 8.69l.5 1.69 6.47.06v-1.58a4.89 4.89 0 0 1 2.2-4 9.72 9.72 0 0 1 6.13-1.82 8.92 8.92 0 0 1 6.1 1.82 6.33 6.33 0 0 1 2 5v3h-6.58c-5.3 0-9.62 1.13-12.83 3.36a11.06 11.06 0 0 0-5.09 9.49 11.7 11.7 0 0 0 3.47 8.82c2.29 2.2 5.48 3.31 9.48 3.31a17.12 17.12 0 0 0 8.46-2.11 19.58 19.58 0 0 0 3.41-2.42c.12.76.28 1.62.49 2.57l.28 1.24h7.61zM54.03 41.6A5.51 5.51 0 0 1 56.7 37a13.6 13.6 0 0 1 8-2.08h6.63v5.77a10.68 10.68 0 0 1-4.13 4.29 13.18 13.18 0 0 1-7 1.83 6.58 6.58 0 0 1-4.65-1.48 4.8 4.8 0 0 1-1.53-3.77z"/></svg>