<svg xmlns="http://www.w3.org/2000/svg" viewBox="0 0 24 24"><path d="M10.1 14c.4-.2.9-.5 1.3-.6-.4-.3-.9-.6-1.3-.9.1.5.1 1 0 1.5zm-3.2 3.9c-.1.2-.2.3-.1.4.1.3.6.3.8 0 .5-.6.8-1.3 1.1-2.1-1 .7-1.6 1.4-1.8 1.7zM8.1 7.4c-.1 0-.2.1-.3.3-.1.1-.1.3 0 .5.3.6.7 1.1 1.1 1.6-.2-1.1-.5-1.9-.6-2.2-.1-.2-.1-.2-.2-.2zm8.6 6c-.8 0-1.7 0-2.5.2 1 .4 2 .6 2.7.7h.1c.3 0 .3-.2.3-.3-.1-.1-.1-.5-.6-.6z"/><path d="M21.9 6.1l-6-6c-.1 0-.3-.1-.4-.1h-13c-.3 0-.5.2-.5.5v23c0 .3.2.5.5.5h19c.3 0 .5-.2.5-.5v-17c0-.1-.1-.3-.1-.4zm-5.2 9.2c-1-.1-2.5-.4-4.1-1.2-.9.3-1.8.7-2.7 1.3-.3 1.4-.8 2.6-1.5 3.6-.3.4-.7.6-1.2.6-.6 0-1.1-.3-1.3-.8-.2-.5-.1-1 .2-1.5.3-.4 1.3-1.5 2.9-2.6.2-1 .2-2 .1-3.2-.8-.8-1.6-1.8-2.2-2.8-.3-.5-.3-1 0-1.5s.7-.8 1.2-.8.9.3 1.1.8c.2.4.6 1.9.9 3.8.8.7 1.7 1.4 2.6 1.9 1.3-.4 2.7-.6 4-.5 1 0 1.5.8 1.5 1.5 0 .9-.6 1.5-1.5 1.4zm-.9-9.1V1.6l4.6 4.6h-4.6z"/></svg>