<svg xmlns="http://www.w3.org/2000/svg" viewBox="0 0 79.8 80"><title>edit-profile</title><path class="a" d="M40.69 63.93l16.75-16.75c-2.74-1.71-6.84-3.08-11.28-4.44l-6.15-2.05v-6.15c1.71-1 4.44-3.76 4.79-9.91 1.37-.68 2.05-2.39 2.05-4.79a5.91 5.91 0 0 0-1.71-4.44c.68-2.05 2.05-5.47 1.37-9.23-1-4.44-7.52-6.15-12.31-6.15-4.44 0-9.91 1.37-12 4.44-1.71.68-3.08 1-3.76 2.05-2.05 2.39-1 6.84-.34 9.57a2.9 2.9 0 0 0-1 1 8.16 8.16 0 0 0-.68 3.08c0 2.05.68 3.76 2.05 4.44.34 5.81 3.42 8.55 4.79 9.57v6.15l-6.15 2.05c-7.86 2.74-14 4.79-15.38 8.55C.02 55.71.02 64.6.02 64.92s0 1 .34 1a1.26 1.26 0 0 0 1 .34h38.27l.68-2.05c.03.4.38.06.38-.28zm19.48-14.7L44.79 64.61l10.94 10.6 15.72-16.06-10.6-10.6-.68.68zM40 77.95a2.56 2.56 0 0 0 .34 1.71 1.26 1.26 0 0 0 1 .34h.34l10.6-3.08-9.23-9.57zm39.32-28.72l-8.21-8.21a1.65 1.65 0 0 0-2.39 0l-5.47 5.47 10.6 10.6 5.47-5.47a1.26 1.26 0 0 0 .34-1 1 1 0 0 0-.34-1.39z"/></svg>