<svg xmlns="http://www.w3.org/2000/svg" viewBox="0 0 80 74.35"><title>exclamation</title><path class="a" d="M79.21 66.08a5.26 5.26 0 0 1 0 5.48 5.9 5.9 0 0 1-4.8 2.74H5.54a5.47 5.47 0 0 1-4.8-2.74 5.26 5.26 0 0 1 0-5.48L35 3.08A6.37 6.37 0 0 1 40.14 0a5.65 5.65 0 0 1 5.14 3.08zm-32.89-41.8c0-.34 0-.69-.34-.69a1 1 0 0 0-1-.69h-9.94c-.34 0-.69.34-1 .34a1.26 1.26 0 0 0-.34 1l.69 20.56a1.2 1.2 0 0 0 1.37 1h8.22a1.2 1.2 0 0 0 1.37-1zm-.69 28.78a1.47 1.47 0 0 0-1.37-1.37h-8.57a1.47 1.47 0 0 0-1.37 1.37v8.57A1.47 1.47 0 0 0 35.69 63h8.57a1.47 1.47 0 0 0 1.37-1.37v-8.55z"/></svg>