<svg width="16" height="16" viewBox="0 0 16 16" xmlns="http://www.w3.org/2000/svg"><path d="M13.711 12.229c.204 0 .37-.169.37-.377a.373.373 0 0 0-.37-.377h-1.477V9.966a.373.373 0 0 0-.369-.377.373.373 0 0 0-.37.377v1.509H10.02a.373.373 0 0 0-.37.377c0 .208.166.377.37.377h1.477v1.508c0 .209.165.377.369.377s.37-.168.37-.377V12.23h1.476zm-1.846-4.525c2.239 0 4.061 1.86 4.061 4.148 0 2.287-1.822 4.148-4.061 4.148s-4.061-1.86-4.061-4.148c0-2.288 1.822-4.148 4.061-4.148z"/><rect width="12.444" height="1.78" rx=".89"/><rect y="8" width="6.519" height="1.78" rx=".89"/><rect y="4" width="12.444" height="1.78" rx=".89"/></svg>