<svg xmlns="http://www.w3.org/2000/svg" viewBox="0 0 56.16 80"><title>flip-x</title><path class="a" d="M1.46 39.31a1.61 1.61 0 0 0 1.71 1.71h51.28a1.71 1.71 0 0 0 0-3.42H3.17a1.83 1.83 0 0 0-1.71 1.71zM51.38 80H3.52a3.59 3.59 0 0 1-3.08-1.71c-1-1.37 0-3.08.68-3.76l24.27-24.27a3.3 3.3 0 0 1 4.79 0l24.27 24.27v.68a2.06 2.06 0 0 1 .34 1.37v1l-.34.34A3 3 0 0 1 51.38 80zM3.52 76.58h47.86c0-.34 0-.34-.34-.34L27.45 52.65zM1.8 1.02a2.26 2.26 0 0 0 .34 2.05L26.07 27a1.65 1.65 0 0 0 2.39 0L52.39 3.07a1.65 1.65 0 0 0 .34-1.37v-.68a1.88 1.88 0 0 0-1.71-1H3.16a1.43 1.43 0 0 0-1.36 1z"/></svg>