<svg xmlns="http://www.w3.org/2000/svg" viewBox="0 0 80 56.16"><title>flip-y</title><path class="a" d="M39.31 54.7a1.61 1.61 0 0 0 1.71-1.71V1.71a1.71 1.71 0 1 0-3.42 0v51.28a1.83 1.83 0 0 0 1.71 1.71zM80 4.78v47.86a3.59 3.59 0 0 1-1.71 3.08c-1.37 1-3.08 0-3.76-.68L50.26 30.77a3.3 3.3 0 0 1 0-4.79L74.53 1.71h.68a2.06 2.06 0 0 1 1.37-.34h1l.34.34A3 3 0 0 1 80 4.78zm-3.42 47.86V4.78c-.34 0-.34 0-.34.34L52.65 28.71zM1.02 54.36a2.26 2.26 0 0 0 2.05-.34L27 30.09a1.65 1.65 0 0 0 0-2.39L3.07 3.77a1.65 1.65 0 0 0-1.37-.34h-.68a1.88 1.88 0 0 0-1 1.71V53a1.43 1.43 0 0 0 1 1.36z"/></svg>