<svg xmlns="http://www.w3.org/2000/svg" viewBox="0 0 80 80"><title>fullscreen</title><path class="a" d="M75 25.57a5 5 0 0 0 5-4.79v-16a4.82 4.82 0 0 0-4.78-4.79h-16a4.795 4.795 0 0 0 0 9.59h4.42L40.06 33.16 16.5 9.6h4.38a4.795 4.795 0 1 0 0-9.59h-16A4.83 4.83 0 0 0 .08 4.8v16a4.93 4.93 0 0 0 9.86 0v-4.42l23.59 23.58L10 63.5v-4.41a5 5 0 0 0-10 0v16a5 5 0 0 0 4.93 4.9h14.38a5 5 0 0 0 0-10H16.5L40.09 46.4l23.58 23.59h-4.42a5 5 0 0 0 0 10h16a4.75 4.75 0 0 0 3.37-1.46 5.12 5.12 0 0 0 1.37-3.6v-16a5 5 0 0 0-10 0v4.57L46.42 39.93l23.57-23.56v4.39A5 5 0 0 0 75 25.57z"/></svg>