<svg xmlns="http://www.w3.org/2000/svg" viewBox="0 0 80 80"><title>gear</title><path class="a" d="M78.34 33.33h-9.52a42.53 42.53 0 0 0-2.59-7.77L73 18.79a1.67 1.67 0 0 0 0-2.36l-9.43-9.42a1.66 1.66 0 0 0-2.36 0l-6.78 6.77a42.72 42.72 0 0 0-7.77-2.59V1.62a1.67 1.67 0 0 0-1.67-1.67h-10a1.67 1.67 0 0 0-1.67 1.67v9.52a42.67 42.67 0 0 0-7.77 2.59l-6.78-6.77a1.66 1.66 0 0 0-2.36 0l-9.43 9.42a1.67 1.67 0 0 0 0 2.36l6.78 6.78a43.19 43.19 0 0 0-2.6 7.77H1.65a1.67 1.67 0 0 0-1.67 1.67v10a1.67 1.67 0 0 0 1.67 1.67h9.51a43.14 43.14 0 0 0 2.6 7.77l-6.78 6.78a1.65 1.65 0 0 0-.49 1.18 1.68 1.68 0 0 0 .49 1.18l9.43 9.43a1.71 1.71 0 0 0 2.36 0l6.78-6.77a43.31 43.31 0 0 0 7.77 2.59v9.51a1.67 1.67 0 0 0 1.67 1.67h10a1.67 1.67 0 0 0 1.67-1.67v-9.51a43.15 43.15 0 0 0 7.77-2.59l6.78 6.77a1.67 1.67 0 0 0 2.36 0L73 63.54a1.66 1.66 0 0 0 0-2.35l-6.77-6.78a42.88 42.88 0 0 0 2.59-7.77h9.52a1.67 1.67 0 0 0 1.67-1.67v-10a1.67 1.67 0 0 0-1.67-1.64zm-38.33 20A13.33 13.33 0 1 1 53.34 40 13.35 13.35 0 0 1 40 53.33z"/></svg>