<svg xmlns="http://www.w3.org/2000/svg" viewBox="0 0 24 24"><path d="M11.4 12.9c-.7-.5-1.4-1.3-1.4-1.5 0-.4 0-.6 1-1.4 1.2-1 1.9-2.2 1.9-3.6 0-1.2-.4-2.3-1-3h.5c.1 0 .2 0 .3-.1l1.4-1c.2-.1.2-.3.2-.5-.1-.2-.2-.3-.5-.3H7.6c-.7 0-1.3.1-2 .3-2.2.8-3.8 2.7-3.8 4.7 0 2.8 2.1 4.8 5 4.9-.1.2-.1.4-.1.6 0 .4.1.8.3 1.2h-.1c-2.7 0-5.2 1.3-6.1 3.3-.2.5-.4 1-.4 1.6 0 .5.1 1 .4 1.4.6 1 1.8 1.9 3.5 2.3.9.2 1.8.3 2.8.3.9 0 1.7-.1 2.5-.3 2.4-.7 4-2.5 4-4.5.1-2-.5-3.2-2.2-4.4zm-7.7 4.5c0-1.4 1.8-2.7 3.9-2.7h.1c.5 0 .9.1 1.3.2.1.1.3.2.4.3 1 .7 1.6 1.1 1.8 1.8 0 .2.1.3.1.5 0 1.8-1.3 2.7-4 2.7-2.1 0-3.6-1.2-3.6-2.8zM5.6 3.9c.3-.4.8-.6 1.2-.6h.1c1.3 0 2.6 1.5 2.9 3.3.1 1-.1 2-.6 2.5-.4.5-.8.7-1.3.7C6.5 9.7 5.2 8.2 5 6.4c-.2-1 0-1.9.6-2.5zm17.9 5.6h-3v-3h-2v3h-3v2h3v3h2v-3h3z"/></svg>