<svg xmlns="http://www.w3.org/2000/svg" viewBox="0 0 80 80"><title>graphing</title><path class="a" d="M78.33 76.66h-1.67V28.33a1.67 1.67 0 0 0-1.67-1.67h-10a1.67 1.67 0 0 0-1.67 1.67v48.33h-6.67v-25a1.67 1.67 0 0 0-1.67-1.67h-10a1.67 1.67 0 0 0-1.67 1.67v25h-6.67V44.99a1.67 1.67 0 0 0-1.67-1.67h-10a1.67 1.67 0 0 0-1.67 1.67v31.67h-6.67v-15a1.67 1.67 0 0 0-1.67-1.67h-10a1.67 1.67 0 0 0-1.67 1.67v15H1.62a1.67 1.67 0 0 0 0 3.33h76.67a1.67 1.67 0 1 0 .04-3.33z"/><path class="a" d="M10 43.33a5 5 0 0 0 4.67-6.73l12.79-10.66a4.91 4.91 0 0 0 6.46-1.22l11.09 3.69a5 5 0 1 0 9.31-2.57l13.89-16.2a4.94 4.94 0 0 0 1.79.35 5.06 5.06 0 1 0-4.32-2.52l-13.89 16.2a5 5 0 0 0-1.79-.35 5 5 0 0 0-3.92 1.93l-11.09-3.69a5 5 0 0 0-10 .09 4.89 4.89 0 0 0 .33 1.73L12.53 34.04A5 5 0 1 0 10 43.33z"/></svg>