<svg xmlns="http://www.w3.org/2000/svg" viewBox="0 0 21.66 80"><title>grip</title><path class="a" d="M19.87-.01H1.7A1.65 1.65 0 0 0-.05 1.74v18.17a1.65 1.65 0 0 0 1.75 1.75h18.17a1.65 1.65 0 0 0 1.75-1.75V1.74a1.65 1.65 0 0 0-1.75-1.75zm0 29H1.7a1.87 1.87 0 0 0-1.75 1.75v18.17a1.65 1.65 0 0 0 1.75 1.75h18.17a1.65 1.65 0 0 0 1.75-1.75V30.74a1.87 1.87 0 0 0-1.75-1.75zm0 29.35H1.7a1.65 1.65 0 0 0-1.75 1.75v18.17a1.65 1.65 0 0 0 1.75 1.75h18.17a1.65 1.65 0 0 0 1.75-1.75V60.09a1.65 1.65 0 0 0-1.75-1.75z"/></svg>