<svg xmlns="http://www.w3.org/2000/svg" viewBox="0 0 24 24"><path d="M17.5 9.589V3.532a.502.502 0 0 0-.25-.434L12 .069a.502.502 0 0 0-.5 0l-4.75 3.03a.499.499 0 0 0-.25.433v6.057c0 .178.095.343.25.432l4.75 3.029c.077.045.164.066.25.066s.173-.021.25-.066l5.25-3.029a.5.5 0 0 0 .25-.432zM6 10.948a.506.506 0 0 0-.5 0l-4.75 3.03a.5.5 0 0 0-.25.434v6.057a.5.5 0 0 0 .25.433L5.5 23.93a.506.506 0 0 0 .5 0l5.25-3.028a.503.503 0 0 0 .25-.433v-6.057a.502.502 0 0 0-.25-.434L6 10.948zm17.25 3.031L18 10.948a.506.506 0 0 0-.5 0l-4.75 3.03a.5.5 0 0 0-.25.434v6.057a.5.5 0 0 0 .25.433l4.75 3.028a.506.506 0 0 0 .5 0l5.25-3.028a.503.503 0 0 0 .25-.433v-6.057a.5.5 0 0 0-.25-.433z"/></svg>