<svg width="24" height="24" viewBox="0 0 24 24" xmlns="http://www.w3.org/2000/svg"><title>icon-placeholder</title><path d="M0 0h24v24H0V0zm4.12 9.48c.28 0 .51-.22.51-.5s-.23-.51-.51-.51c-.27 0-.5.23-.5.51s.23.5.5.5zM3.75 15h.75v-4.83h-.75V15zm2.103-2.42c0 1.44.97 2.54 2.41 2.54.88 0 1.4-.36 1.77-.84l-.5-.46c-.32.43-.73.63-1.23.63-1.03 0-1.67-.8-1.67-1.87s.64-1.86 1.67-1.86c.5 0 .91.19 1.23.63l.5-.46c-.37-.48-.89-.84-1.77-.84-1.44 0-2.41 1.1-2.41 2.53zm7.474 2.54c1.47 0 2.39-1.14 2.39-2.54 0-1.4-.92-2.53-2.39-2.53-1.47 0-2.39 1.13-2.39 2.53s.92 2.54 2.39 2.54zm0-.67c-1.03 0-1.61-.88-1.61-1.87 0-.98.58-1.86 1.61-1.86 1.03 0 1.6.88 1.6 1.86 0 .99-.57 1.87-1.6 1.87zm7.003.55h.75v-3.39c0-1.05-.53-1.56-1.54-1.56-.72 0-1.38.42-1.72.82v-.7h-.75V15h.75v-3.53c.28-.39.84-.75 1.43-.75.65 0 1.08.27 1.08 1.12V15z" fill-rule="evenodd"/></svg>