<svg width="56" height="56" viewBox="0 0 56 56" xmlns="http://www.w3.org/2000/svg"><title>ImageLeft</title><g fill-rule="evenodd"><path d="M6 3a3 3 0 0 0-3 3v44a3 3 0 0 0 3 3h44a3 3 0 0 0 3-3V6a3 3 0 0 0-3-3H6zm0-3h44a6 6 0 0 1 6 6v44a6 6 0 0 1-6 6H6a6 6 0 0 1-6-6V6a6 6 0 0 1 6-6z" fill-rule="nonzero"/><rect x="7" y="6" width="16" height="43" rx="2"/><rect x="27" y="6" width="22" height="3" rx="1.5"/><rect x="27" y="14" width="22" height="3" rx="1.5"/><rect x="27" y="22" width="22" height="3" rx="1.5"/><rect x="27" y="30" width="22" height="3" rx="1.5"/><rect x="27" y="38" width="22" height="3" rx="1.5"/><rect x="27" y="46" width="22" height="3" rx="1.5"/></g></svg>