<svg xmlns="http://www.w3.org/2000/svg" viewBox="0 0 79.99 80"><title>link</title><path class="a" d="M29.74 35.61a8.47 8.47 0 0 1 11.72 0l2.93 2.92a4.14 4.14 0 1 0 5.86-5.85l-2.93-2.93a16.56 16.56 0 0 0-23.43 0l-19 19a16.6 16.6 0 0 0 0 23.43l2.93 2.92a16.56 16.56 0 0 0 23.43 0l9-9a4.144 4.144 0 0 0-5.86-5.86l-9 9a8.48 8.48 0 0 1-11.72 0l-2.93-2.92a8.3 8.3 0 0 1 0-11.72z"/><path class="a" d="M56.1 50.25l19-19a16.55 16.55 0 0 0 0-23.43l-2.93-2.93a16.57 16.57 0 0 0-23.43 0l-8.23 8.23a4.14 4.14 0 1 0 5.86 5.85l8.22-8.22a8.28 8.28 0 0 1 11.72 0l2.93 2.93a8.28 8.28 0 0 1 0 11.71l-19 19a8.47 8.47 0 0 1-11.71 0 4.144 4.144 0 0 0-5.86 5.86 16.57 16.57 0 0 0 23.43 0z"/></svg>