<svg xmlns="http://www.w3.org/2000/svg" viewBox="0 0 24 20.6"><title>sortable</title><path d="M20.1 8.1c-2.1 0-3.9 1.7-3.9 3.9s1.7 3.9 3.9 3.9c2.1 0 3.9-1.7 3.9-3.9s-1.7-3.9-3.9-3.9zm0 7.1c-1.8 0-3.2-1.4-3.2-3.2s1.4-3.2 3.2-3.2c1.8 0 3.2 1.4 3.2 3.2s-1.4 3.2-3.2 3.2z"/><path d="M22.1 10.4L18.6 14c.4.3 1 .5 1.5.5 1.4 0 2.5-1.1 2.5-2.5 0-.6-.1-1.2-.5-1.6zm-2-1c-1.4 0-2.5 1.1-2.5 2.5 0 .6.2 1.1.5 1.5l3.5-3.5c-.4-.3-.9-.5-1.5-.5zM9.4 8.3c-.2-.9-1.3-1.5-2.7-1.5h-.6c-.8.1-1.6.5-2 1.1H4c-.3 0-.6.1-.8.4-.3.5 0 1.3.2 1.8-.3.2-.5.6-.5 1 0 .5.2.9.6 1.1 0 .7.2 1.5.8 1.9v1.1C3 15.8.4 17 0 17.8v2.6h12.7v-2.6c-.3-.8-2.9-1.9-4.3-2.5v-1.1c.5-.4.7-1.3.7-1.9.3-.2.5-.7.5-1.2 0-.2 0-.4-.1-.5-.1-.2-.2-.3-.3-.4.2-.7.4-1.3.2-1.9z"/><path d="M20.1 7.3c1.2 0 2.4.5 3.2 1.3V.7c0-.2-.2-.4-.4-.4H6.4c-.2 0-.4.2-.4.4V6h.6c1.8 0 3.2.8 3.5 2.1.1.6.1 1.2-.1 1.9 0 .1.1.2.1.3 0 .1.1.2.1.3h.7v2.3c0 .1.1.3.2.3h.1c.1 0 .2 0 .2-.1l2.6-2.6h1.5c.8-1.9 2.5-3.2 4.6-3.2z"/></svg>