<svg xmlns="http://www.w3.org/2000/svg" viewBox="0 0 24 20.6"><title>sortable</title><path d="M23.6 0h-17c-.2 0-.4.2-.4.4v5.5c.2 0 .5-.1.7-.1 1.9 0 3.3.8 3.6 2.2.2.6.1 1.3-.1 2 .1.1.1.2.1.3s.1.2.1.3h.8V13c0 .1.1.3.2.3h.1c.1 0 .2 0 .2-.1l2.6-2.6h9c.2 0 .4-.2.4-.4V.4c.1-.2-.1-.4-.3-.4z"/><path d="M9.7 8.2c-.2-.9-1.3-1.5-2.8-1.5-.2 0-.4 0-.7.1-.8.1-1.7.5-2 1.1h-.1c-.3 0-.6.1-.8.3-.3.5 0 1.3.3 1.9-.3.2-.5.7-.5 1.1 0 .5.2 1 .6 1.1 0 .7.2 1.5.8 2v1.1C3.1 16 .4 17.2 0 18v2.7h13.1V18c-.4-.8-3-2-4.5-2.6v-1.1c.5-.4.7-1.3.7-2 .4-.2.5-.8.5-1.2 0-.2 0-.4-.1-.5-.1-.2-.2-.3-.3-.4.3-.7.5-1.4.3-2z"/></svg>