<svg xmlns="http://www.w3.org/2000/svg" viewBox="0 0 24 24"><path d="M22.999 2.473a.498.498 0 0 0-.631-.455L17.006 3.48l-4.862-1.46a.519.519 0 0 0-.287 0L6.993 3.479 1.631 2.018A.5.5 0 0 0 1 2.473l-1 18.5a.5.5 0 0 0 .379.512l6 1.5a.5.5 0 0 0 .252-.002L12 21.518l5.368 1.465a.53.53 0 0 0 .253.001l6-1.5a.5.5 0 0 0 .378-.512l-1-18.499zM5.354 16.354l-.5.5a.502.502 0 0 1-.708 0 .5.5 0 0 1 0-.707l.5-.5a.5.5 0 0 1 .708.707zm3-3l-.5.5a.502.502 0 0 1-.708 0 .5.5 0 0 1 0-.707l.5-.5a.5.5 0 0 1 .708.707zM12 12h-1a.5.5 0 0 1 0-1h1a.5.5 0 1 1 0 1zm2.854 2.354a.502.502 0 0 1-.708 0l-.5-.5a.5.5 0 0 1 .707-.707l.5.5a.5.5 0 0 1 .001.707zm3.5.5l-.5.5a.502.502 0 0 1-.708 0 .5.5 0 0 1 0-.707l.5-.5a.5.5 0 0 1 .708.707zM19 12a.5.5 0 0 1-1 0v-1a.5.5 0 1 1 1 0v1zm.354-2.854a.502.502 0 0 1-.708.708L18 9.207l-.646.647a.502.502 0 0 1-.708 0 .502.502 0 0 1 0-.708l.647-.646-.646-.646a.5.5 0 1 1 .707-.708l.646.647.646-.646a.5.5 0 0 1 .707.708l-.646.645.647.646z"/></svg>