<svg xmlns="http://www.w3.org/2000/svg" width="24" height="24" viewBox="0 0 24 24"><path d="M16.5 8.451c.477 0 .941.045 1.398.115.067-.378.102-.771.102-1.18 0-4.1-4.037-7.435-9-7.435S0 3.286 0 7.386c0 1.962.855 3.826 2.359 5.178l-1.793 3.14a.498.498 0 0 0 .434.747.528.528 0 0 0 .186-.035l4.84-1.937c.435.124.887.218 1.348.281.021.002.064-.005.074.004.076 0 .32-.002.679-.022.678-3.513 4.232-6.291 8.373-6.291z"/><path d="M16.5 9.451c-4.065 0-7.5 2.977-7.5 6.5 0 3.355 2.879 6.224 6.434 6.572l.006.002a7.579 7.579 0 0 0 3.572-.536l3.812 1.43a.498.498 0 0 0 .547-.134.495.495 0 0 0 .076-.557l-1.324-2.65C23.327 18.99 24 17.569 24 15.951c0-3.523-3.435-6.5-7.5-6.5z"/></svg>