<svg xmlns="http://www.w3.org/2000/svg" viewBox="0 0 24 24"><path d="M23.9 7L17.1.2c-.1-.1-.3-.2-.4-.2H7.2c-.1 0-.2.1-.3.1L.1 7c0 .1-.1.2-.1.3v9.5c0 .1.1.3.1.4l6.7 6.7c.2 0 .3.1.4.1h9.5c.1 0 .3-.1.4-.1l6.8-6.7c.1-.1.1-.2.1-.4V7.3c0-.1-.1-.2-.1-.3zm-5.2 3.8l-1.5 2.7c-.3.5-.4 1.1-.4 1.7 0 2.3-.6 4.2-3.1 4.2h-2.4c-.8 0-1.6-.3-2.2-1l-3.6-4.8c-.4-.4-.4-1-.1-1.4.4-.4 1-.4 1.4-.1l2 1.8-1-7.5c-.1-.6.3-1.1.8-1.2.6-.2 1.1.2 1.2.8l1.2 5.3V4.8c0-.6.5-1 1-1 .6 0 1 .5 1 1v6.5l1.2-5.1c.1-.6.7-.9 1.2-.8.6.1.9.7.8 1.2l-1.1 6L17 9.7c.3-.5.9-.6 1.4-.3.4.3.6.9.3 1.4z"/></svg>