<svg xmlns="http://www.w3.org/2000/svg" viewBox="0 0 80 66.67"><title>print</title><path class="a" d="M71.68 20H8.35a8.34 8.34 0 0 0-8.33 8.33v20a8.34 8.34 0 0 0 8.33 8.33h8.33v8.33a1.66 1.66 0 0 0 1.67 1.67h43.33a1.67 1.67 0 0 0 1.67-1.67v-8.33h8.33a8.34 8.34 0 0 0 8.33-8.33v-20A8.35 8.35 0 0 0 71.68 20zm-60 16.67a5 5 0 1 1 5-5 5 5 0 0 1-5 5zm48.33 26.67h-40V46.67h40v16.67zM18.33 16.67h43.35A1.67 1.67 0 0 0 63.35 15v-3.33a1.68 1.68 0 0 0-.49-1.18l-10-10A1.68 1.68 0 0 0 51.68 0H18.35a1.67 1.67 0 0 0-1.67 1.67V15a1.66 1.66 0 0 0 1.65 1.67zM51.66 5l6.67 6.67h-6.65V5z"/></svg>