<svg xmlns="http://www.w3.org/2000/svg" width="24" height="24" viewBox="0 0 24 24"><path d="M22.947 19.219c-.735-1.469-3.243-2.391-6.715-3.668-.4-.146-.812-.298-1.232-.455v-2.408c.439-.373 1.379-1.346 1.489-2.934.227-.192.405-.524.509-.963.166-.705.084-1.541-.414-2.037l.091-.232c.384-.966 1.098-2.765.815-4.177C17.145.614 14.687 0 12.687 0c-1.551 0-3.436.391-4.029 1.461-.598.066-1.059.314-1.374.738-.869 1.171-.238 3.252.101 4.37l.051.167c-.515.493-.603 1.341-.434 2.055.103.439.282.771.509.963.111 1.588 1.05 2.561 1.489 2.934v2.408c-.421.157-.833.309-1.234.456-3.472 1.276-5.979 2.198-6.713 3.667C.012 21.301 0 23.411 0 23.5a.5.5 0 0 0 .5.5h23a.5.5 0 0 0 .5-.5c0-.089-.012-2.199-1.053-4.281z"/></svg>