<svg xmlns="http://www.w3.org/2000/svg" viewBox="0 0 80 63.72"><title>refresh</title><path class="a" d="M79.65 39.18L71.58 25.4c0-.34-.34-.34-.34-.67a2.91 2.91 0 0 0-2-1 3.06 3.06 0 0 0-2.69 1.34L55.79 37.81c-1.34 1.34-1 3.36.34 4.71s3.36 1 4.71-.34l4.71-5.71a26 26 0 0 1-19.5 20.17 23.91 23.91 0 0 1-23.19-6.72 3.33 3.33 0 0 0-4.71 4.71 31.28 31.28 0 0 0 22.18 9.08 30 30 0 0 0 7.39-1c12.1-2.69 21.18-12.77 24.2-23.86l2.35 4a3.53 3.53 0 0 0 3 1.68 3 3 0 0 0 1.68-.34 5.36 5.36 0 0 0 .7-5.01zM24.86 24.73a3.22 3.22 0 0 0-4.71.34l-5.71 6.72a24.3 24.3 0 0 1 3.7-12.44c3.7-6.05 9.75-10.76 16.47-12.1a25.6 25.6 0 0 1 24.54 7.73c1.34 1.34 3.36 1.68 4.71.34s1.68-3.36.34-4.71A31.43 31.43 0 0 0 33.28.86 34.08 34.08 0 0 0 12.1 16.32a31.37 31.37 0 0 0-4 11.09l-2-3.36a3.12 3.12 0 0 0-4.37-1 3.4 3.4 0 0 0-1.34 4.37l8.4 14.12a3.43 3.43 0 0 0 2.69 1.68h.34a3.06 3.06 0 0 0 2.69-1.34l10.76-12.44c.94-1.35.94-3.71-.41-4.71z"/></svg>