<svg xmlns="http://www.w3.org/2000/svg" viewBox="0 0 80 70.47"><title>rotate-right</title><path class="a" d="M.03 33.7a34.4 34.4 0 0 0 9.28 25.43 34.75 34.75 0 0 0 24.4 11.34 3.39 3.39 0 0 0 3.44-3.09 3.16 3.16 0 0 0-3.09-3.44 27.62 27.62 0 0 1-19.93-8.93 29 29 0 0 1-7.56-20.62 27.62 27.62 0 0 1 8.93-19.93A29 29 0 0 1 36.12 6.9a28 28 0 0 1 19.93 9.28 32.58 32.58 0 0 1 6.87 14.78l-5.5-6.19c-1-1.72-3.09-1.72-4.81-.69-1.37 1.37-1.72 3.44-.34 4.81l11.68 13.4a3.56 3.56 0 0 0 5.5-.34l10-15.12a3.26 3.26 0 0 0-.69-4.47 3.38 3.38 0 0 0-4.81 1l-4.12 6.87a35.72 35.72 0 0 0-8.59-18.56A33.92 33.92 0 0 0 36.5-.01a34.4 34.4 0 0 0-25.43 9.28C4.15 15.83.03 24.42.03 33.7z"/><circle class="a" cx="34.73" cy="33.36" r="8.59"/></svg>