<svg xmlns="http://www.w3.org/2000/svg" viewBox="0 0 80 70.47"><title>rotate-left</title><path class="a" d="M68.97 9.3A34.4 34.4 0 0 0 43.54.02 33.92 33.92 0 0 0 18.8 11.7a35.72 35.72 0 0 0-8.59 18.56l-4.12-6.87a3.38 3.38 0 0 0-4.81-1 3.26 3.26 0 0 0-.69 4.47l10 15.12a3.56 3.56 0 0 0 5.5.34l11.68-13.4c1.37-1.37 1-3.44-.34-4.81-1.72-1-3.78-1-4.81.69l-5.5 6.19a32.58 32.58 0 0 1 6.87-14.78 28 28 0 0 1 19.93-9.28 29 29 0 0 1 20.62 7.56 27.62 27.62 0 0 1 8.93 19.93 29 29 0 0 1-7.56 20.62 27.62 27.62 0 0 1-19.93 8.93 3.16 3.16 0 0 0-3.09 3.44 3.39 3.39 0 0 0 3.44 3.09 34.75 34.75 0 0 0 24.4-11.34 34.4 34.4 0 0 0 9.28-25.43c-.04-9.31-4.16-17.9-11.04-24.43z"/><circle class="a" cx="45.27" cy="33.36" r="8.59"/></svg>