<svg width="19" height="24" viewBox="0 0 19 24" xmlns="http://www.w3.org/2000/svg"><title>sortable</title><path d="M.793 10.798h17.058c.313 0 .626-.156.705-.47.156-.312.078-.625-.157-.86L9.95.235A.845.845 0 0 0 9.4 0a.71.71 0 0 0-.548.235L.245 9.546c-.234.235-.313.548-.156.861a.822.822 0 0 0 .704.391zm17.054 2.397H.789c-.313 0-.626.157-.705.47-.156.234-.078.547.157.782l8.529 9.312a.845.845 0 0 0 .548.234.71.71 0 0 0 .547-.234l8.608-9.312c.234-.235.234-.548.156-.86-.156-.235-.47-.392-.782-.392z"/></svg>