<svg xmlns="http://www.w3.org/2000/svg" width="264.49" height="268.605" viewBox="0 0 264.49 268.605"><path d="M128.935 99.678c-18.574 0-33.622 15.056-33.627 33.628 0 18.567 15.048 33.622 33.627 33.622 18.572-.002 33.623-15.055 33.623-33.622 0-18.572-15.05-33.628-33.623-33.628zm72.996 5.101a5.12 5.12 0 0 0-4.581.366l-9.474 5.714c-2.087 1.262-3.1 3.834-2.467 6.265a61.492 61.492 0 0 1 1.985 15.487c0 26.755-17.296 50.22-42.062 57.066-2.328.646-3.95 2.848-3.95 5.367v11.408c0 1.682.733 3.275 1.988 4.328a5.159 5.159 0 0 0 3.32 1.223c.386 0 .772-.043 1.157-.137 35.221-8.221 60.784-41.55 60.784-79.255a84.34 84.34 0 0 0-3.563-24.326c-.482-1.602-1.637-2.895-3.137-3.506zm-67.275-54.176c-22.352 0-43.882 9.359-59.076 25.686a5.382 5.382 0 0 0-1.384 4.492 5.42 5.42 0 0 0 2.679 3.874l9.769 5.574a5.564 5.564 0 0 0 2.741.725c1.426 0 2.837-.55 3.894-1.603 11.056-10.996 25.749-17.053 41.378-17.053s30.323 6.056 41.38 17.049a5.537 5.537 0 0 0 6.633.878l9.771-5.572a5.433 5.433 0 0 0 2.68-3.875 5.385 5.385 0 0 0-1.389-4.492c-15.191-16.326-36.724-25.683-59.076-25.683zM110.531 189.68c-24.765-6.846-42.061-30.312-42.061-57.067 0-5.216.671-10.427 1.989-15.485.634-2.435-.381-5.005-2.468-6.266l-9.473-5.716a5.11 5.11 0 0 0-4.58-.365c-1.501.61-2.656 1.904-3.139 3.507a84.368 84.368 0 0 0-3.568 24.323c0 37.708 25.565 71.041 60.784 79.256.385.094.771.137 1.155.137a5.169 5.169 0 0 0 3.322-1.221c1.256-1.053 1.988-2.646 1.988-4.332v-11.404c.002-2.52-1.62-4.725-3.949-5.367z"/><path d="M225.598 211.677l-15.828-9.635c-1.992-1.217-4.518-.783-6.047 1.029-19.479 23.109-47.389 36.365-76.57 36.371-29.188 0-57.097-13.258-76.575-36.369-1.531-1.812-4.057-2.246-6.051-1.031l-15.828 9.639c-1.24.752-2.102 2.051-2.352 3.537a5.317 5.317 0 0 0 1.061 4.174c24.854 31.277 61.209 49.213 99.747 49.213 38.529-.006 74.883-17.945 99.736-49.217a5.306 5.306 0 0 0 1.059-4.174c-.249-1.486-1.11-2.783-2.352-3.537zM15.845 173.966l16.404-8.616c2.068-1.083 2.996-3.471 2.229-5.715-9.797-28.591-6.806-59.344 8.201-84.372 15.016-25.029 40.742-42.141 70.581-46.955 2.342-.381 4.013-2.324 3.997-4.659l-.123-18.531c-.006-1.451-.678-2.857-1.823-3.836a5.316 5.316 0 0 0-4.125-1.238C71.58 5.266 37.496 27.216 17.671 60.262-2.145 93.306-5.463 133.708 8.567 171.108a5.31 5.31 0 0 0 3.035 3.055c1.402.552 2.958.481 4.243-.197zM153.537.074a4.991 4.991 0 0 0-5.851 4.92v18.788a4.996 4.996 0 0 0 3.992 4.892c48.863 10.002 84.326 53.504 84.326 103.413 0 11.323-1.824 22.528-5.42 33.306a4.993 4.993 0 0 0 2.24 5.904l16.33 9.428c.768.443 1.629.67 2.496.67.576 0 1.15-.102 1.703-.301a4.976 4.976 0 0 0 2.986-2.973c5.408-14.738 8.15-30.225 8.15-46.034C264.49 66.791 217.828 11.276 153.537.074z"/></svg>