<svg xmlns="http://www.w3.org/2000/svg" viewBox="0 0 24 24"><title>stop-impersonating</title><path d="M18.5 13.004a5.506 5.506 0 0 0-5.5 5.5 5.5 5.5 0 0 0 11 0c0-3.033-2.468-5.5-5.5-5.5zm2.5 6h-5a.5.5 0 0 1-.5-.5c0-.276.224-.5.5-.507h5c.275.007.5.23.5.507 0 .275-.225.5-.5.5z"/><path d="M12 18.504a6.497 6.497 0 0 1 2.951-5.439c-.793-.286-1.762-.627-2.951-1.061v-1.782c.486-.325 1.381-1.158 1.489-2.928.366-.23.597-.727.597-1.361 0-.558-.178-1.009-.471-1.266.244-.636.645-1.749.369-2.854C13.653.478 11.765.004 10.25.004c-1.342 0-2.977.372-3.563 1.384-.7-.04-1.088.26-1.277.511-.519.69-.277 1.773.002 2.745-.329.249-.532.721-.532 1.306 0 .643.244 1.117.63 1.344.11 1.769 1.004 2.602 1.49 2.928v1.782c-4.748 1.732-6 1.979-6.475 3.234C.032 16.726 0 19.365 0 19.504a.5.5 0 0 0 .5.5h11.682a6.457 6.457 0 0 1-.182-1.5z"/></svg>