<svg width="24" height="22" viewBox="0 0 24 22" xmlns="http://www.w3.org/2000/svg"><title>Page 1 Copy 25</title><path d="M17.5 14h2.316A2.99 2.99 0 0 1 17 16a2.99 2.99 0 0 1-2.816-2H9.816A2.99 2.99 0 0 1 7 16c-1.305 0-2.403-1-2.816-2H6.5l1.203-.969L6.5 12H4.184c.413-1 1.511-2 2.816-2a2.99 2.99 0 0 1 2.816 2h4.368A2.99 2.99 0 0 1 17 10a2.99 2.99 0 0 1 2.816 2H17.5l-1.203 1.031L17.5 14zm-8-11c0-.551.448-1 1-1h3c.552 0 1 .449 1 1v1.5h-5V3zm11 1.5h-4V3c0-1.654-1.346-3-3-3h-3c-1.654 0-3 1.346-3 3v1.5h-4C1.57 4.5 0 6.07 0 8v10c0 1.93 1.57 3.5 3.5 3.5h17c1.93 0 3.5-1.57 3.5-3.5V8c0-1.93-1.57-3.5-3.5-3.5z" fill-rule="evenodd"/></svg>