<svg xmlns="http://www.w3.org/2000/svg" viewBox="0 0 80 68.28"><title>user-add</title><path class="a" d="M65.61 54.56c-2-4.35-9.37-6.69-19.08-10.38-1-.33-2.34-1-3.35-1.34v-7a11.42 11.42 0 0 0 4.35-8.37 5 5 0 0 0 1.34-2.68c.33-2 .33-4.35-1.34-5.69 0-.33.33-.33.33-.67 1-2.68 3-7.7 2.34-11.72-1-5-8-6.69-13.72-6.69-4.35 0-9.71 1-11.72 4a5.64 5.64 0 0 0-3.68 2c-2.34 3.35-.67 9.37.33 12.38v.33a8.25 8.25 0 0 0-1.34 6.36c.33 1.34.67 2.34 1.34 2.68a11.42 11.42 0 0 0 4.35 8.37v7c-1.34.33-2.34 1-3.68 1.34-10 3.68-17.07 6.36-19.08 10.38a30 30 0 0 0-3 12.05 1.44 1.44 0 0 0 1.34 1.34h65.61a1.44 1.44 0 0 0 1.34-1.34c.33-.3.33-6.32-2.68-12.35z"/><path class="a" d="M77.66 27.45h-9.37v9.38a2.345 2.345 0 0 1-4.69 0v-9.37h-9.37a2.345 2.345 0 0 1 0-4.69h9.37V13.4a2.345 2.345 0 0 1 4.69 0v9.37h9.37a2.34 2.34 0 1 1 0 4.68z"/></svg>