<svg xmlns="http://www.w3.org/2000/svg" viewBox="0 0 24 24"><path d="M8.6 13h-2c-.3 0-.6.2-.6.5s.3.5.5.5H7v2.5c0 .3.2.5.5.5s.5-.2.5-.5V14h.6c.3 0 .5-.2.5-.5s-.3-.5-.5-.5zm2.9-4c.3 0 .5-.2.5-.5v-1c0-.3-.2-.5-.5-.5s-.5.2-.5.5v1.1c0 .2.2.4.5.4z"/><path d="M12 0C5.4 0 0 5.4 0 12s5.4 12 12 12 12-5.4 12-12S18.6 0 12 0zm2 7c0-.3.2-.5.5-.5s.5.2.5.5v1.5c0 .3.2.5.5.5s.5-.2.5-.5V7c0-.3.2-.5.5-.5s.5.2.5.5v1.5c0 .8-.7 1.5-1.5 1.5S14 9.3 14 8.5V7zm-1 .5v1.1c0 .8-.7 1.5-1.5 1.5-.8-.1-1.5-.8-1.5-1.6v-1c0-.8.7-1.5 1.5-1.5s1.5.7 1.5 1.5zM6.3 3.8c.2-.2.5-.2.7.1l1.5 2 1.5-2c.2-.2.5-.3.7-.1.3.1.3.5.1.7L9 6.8v2.7c0 .3-.2.5-.5.5S8 9.8 8 9.5V6.8L6.2 4.5c-.2-.2-.2-.6.1-.7zm13.2 12.1c0 1.4-1.1 2.6-2.6 2.6H7c-1.4 0-2.5-1.2-2.5-2.6V14c0-1.4 1.1-2.5 2.5-2.5h9.9c1.4 0 2.6 1.1 2.6 2.6v1.8z"/><path d="M11.5 14c-.3 0-.5.2-.5.5v1c0 .3-.2.5-.5.5s-.5-.2-.5-.5v-1c0-.3-.2-.5-.5-.5s-.5.2-.5.5v1c0 .8.7 1.5 1.5 1.5s1.5-.7 1.5-1.5v-1c0-.3-.2-.5-.5-.5zm2.5 1v-1.5c0-.3-.2-.5-.5-.5s-.5.2-.5.5v3c0 .3.2.5.5.5h.5c.6 0 1-.4 1-1s-.4-1-1-1zm4 0c0-.6-.4-1-1-1s-1 .4-1 1v1c0 .6.4 1 1 1h.5c.3 0 .5-.2.5-.5s-.2-.5-.5-.5H17c.6 0 1-.4 1-1z"/></svg>